<svg xmlns="http://www.w3.org/2000/svg" width="457.212" height="315.082" viewBox="0 0 457.212 315.082"><g transform="translate(-148.225 227.203) rotate(-14)"><g transform="matrix(0.985, -0.174, 0.174, 0.985, 247.809, 45.634)"><path d="M219.911,17.258a26.122,26.122,0,0,1-7.329,1.265c-8.822.231-17.428-2.828-26.248-3.129a42.613,42.613,0,0,0-28.8,10.071c-5.2,4.44-9.452,10.233-15.663,13.09-13.71,6.308-29.735-4.259-44.6-1.666C86.454,38.776,78.2,47.191,69.885,54.358c-16.745,14.441-36.852,7.5-53.64,21.356-5,4.128-9.763,9.818-16.245,9.853,4.163-.021,11.9,5.484,16.869,6.28,5.973.955,10.961-.5,16.618-.492,14.3.023,28.129,8.409,40.82,14.065,13.938,6.211,29.99,11.034,44.215,5.511,10.307-4,18.458-13.064,29.32-15.129,16.666-3.168,32.446,11.238,49.351,9.8,9.585-.816,17.9-6.593,26.573-10.75s16.793-5.337,25.821-2.087c8.878,3.2,15.289,6.5,24.684,1.486,13.255-7.069,16.6-21.911,24.221-33.378,3.412-5.132,11.245-8.377,16.458-11.424q9.78-5.715,20.021-10.59c.841-.4,1.782-.916,1.972-1.826a2.338,2.338,0,0,0-.192-1.34c-1.4-3.484-5.887-4.332-9.642-4.457-7.2-.24-14.478.306-21.639-.722-6.971-1-10.629-3.847-15.747-8.366C280.81,14.275,273.221,3.1,260.869.521,243.848-3.034,234.45,12.6,219.911,17.258Z" fill="#055c49"/><path d="M68.836,34.808C44.835,35.9,20.945,43.215,0,54.782,44.617,39.829,90.764,35.569,139.2,36.435c46.8.321,87.384-15.613,131.892-31.328,5.106-1.7,10.17-1.579,15.058-1.882C284.274.81,280.495.159,277.254.051c-.789-.027-1.577-.041-2.367-.051a182.652,182.652,0,0,0-36.412,11.329C184.914,34.573,126.11,32.073,68.836,34.808Z" transform="translate(49.856 31.185)" fill="#043025"/><path d="M3.953,3.925q-.452.319-.89.67A8.074,8.074,0,0,0,.229,8.343c-.9,2.928.988,4.424,3.452,5.316a42.638,42.638,0,0,0,25.79.968,9.723,9.723,0,0,0,4.023-1.916c2.9-2.631,2.068-7.314-.758-9.567C29.88.862,25.882.344,22.353.118,16.089-.286,9.244.2,3.953,3.925Z" transform="translate(82.195 43.856)" fill="#043025"/><path d="M21.148.295c8.193-1.772,15.036,4.737,8.919,11.757-5.35,6.14-15.86,7.94-23.243,5.337C2.085,15.717-3.659,13.9,3.074,9.05,6.561,6.537,14.385,1.757,21.148.295Z" transform="translate(179.915 78.699)" fill="#043025"/><path d="M7.914.333C5.039.695,1.8,1.566.511,4.159c-1.143,2.292-.247,5.188,1.5,7.058A17.081,17.081,0,0,0,8.584,15.06c5.2,2,27.288,9.139,26.036-3.652C33.513.144,16.247-.716,7.914.333Z" transform="translate(241.572 7.997)" fill="#043025"/><path d="M6.667,1A2.549,2.549,0,0,0,4.076.048a5.483,5.483,0,0,0-2.534,1.4C.388,2.458-.485,3.7.3,5.251,1.536,7.69,8.959,4.545,6.667,1Z" transform="translate(111.983 99.644)" fill="#043025"/><path d="M5.261,1.522C6.3,6.994-1.224,6.228.174,2.122.831.189,4.741-1.2,5.261,1.522Z" transform="translate(162.733 32.448)" fill="#043025"/><path d="M3.929.07c.986,2.045,2.848,3.073,3.1,5.471a3.153,3.153,0,0,1-.427,2.475,2.573,2.573,0,0,1-1.12.652,4.848,4.848,0,0,1-4.379-.438C-1.335,6.431.556-.784,3.929.07Z" transform="translate(254.969 77.99)" fill="#043025"/></g><g transform="translate(180.147 -113.969)"><g transform="translate(76.578 43.919)"><path d="M300.328-43.486c-11.114-5.356-23.389-9.068-33.572-16.106A101.777,101.777,0,0,1,251.818-72.2c-.034-.4.465-.624.869-.655,2.727-.209,4.758,2.377,7.231,3.548,1.215.576,2.574.813,3.759,1.448.736.394,1.39.935,2.148,1.285a11.745,11.745,0,0,0,4.647.631c2.908.082,5.154,1.254,7.927,1.741,3.448.6,7.079.657,10.566.938,12.334,1,24.959,1.858,36.5,6.713,5.814,2.446,11.174,5.835,16.505,9.209,8.521,5.394,16.925,11.742,26.178,15.772,2.5,1.09,5.092,2.244,6.873,4.311-.986.254-2.009-.26-3.027-.225a7.192,7.192,0,0,0-1.917.477c-6.654,2.138-15.006-.005-21.74-.918a135.406,135.406,0,0,1-22.538-4.76C317-35.456,308.644-39.478,300.328-43.486Z" transform="translate(-251.816 72.865)" fill="#e1a101"/><path d="M357.273-32.41c-12.162-4.542-23.815-10.741-36.05-15.409-13.789-5.26-28.168-9.347-42.882-10.893-10.427-1.1-18.093-7.783-26.452-13.788a.424.424,0,0,0-.072.277A101.843,101.843,0,0,0,266.4-59.867c6.471,1.78,12.431,3.6,19.127,4.183a72.862,72.862,0,0,1,15.679,3.62q14.686,4.669,28.954,10.537c8.523,3.506,16.938,7.334,25.742,10.06,1.171.362,2.592.656,3.5-.168Q358.336-32.013,357.273-32.41Z" transform="translate(-251.816 72.89)" fill="#d0620b"/></g><g transform="translate(145.485 123.723)"><path d="M355.346,19.081c-8.821-2.9-18.347-4.449-26.641-8.691a76.646,76.646,0,0,1-12.391-7.926c-.065-.3.285-.512.583-.575,2.014-.426,3.786,1.3,5.745,1.932.964.309,2,.352,2.948.707.588.221,1.129.56,1.73.747a8.832,8.832,0,0,0,3.528.011c2.179-.227,3.969.425,6.086.514,2.632.11,5.347-.212,7.975-.346,9.3-.477,18.8-1.086,27.9,1.394a85.666,85.666,0,0,1,13.225,5.237c6.891,3.18,13.789,7.083,21.091,9.174a13.792,13.792,0,0,1,5.554,2.537c-.711.287-1.525,0-2.28.131a5.4,5.4,0,0,0-1.384.545c-4.752,2.253-11.195,1.482-16.308,1.467a101.861,101.861,0,0,1-17.285-1.32A144.858,144.858,0,0,1,355.346,19.081Z" transform="translate(-316.306 -1.822)" fill="#e1a101"/><path d="M398.927,21.7c-9.524-2.184-18.83-5.656-28.42-7.926a128.833,128.833,0,0,0-33.07-3.881c-7.888.215-14.268-4.015-21.1-7.668a.323.323,0,0,0-.027.214,76.586,76.586,0,0,0,12.1,7.773c5,.688,9.63,1.457,14.683,1.228a54.873,54.873,0,0,1,12.056,1.149q11.418,2.029,22.644,4.994c6.706,1.772,13.363,3.8,20.2,4.957.909.155,2,.232,2.594-.471Q399.76,21.888,398.927,21.7Z" transform="translate(-316.306 -1.795)" fill="#d0620b"/></g><g transform="translate(57.995 46.931)"><path d="M236.028-1.6c2.334-11.857,3.556-23.9,5.74-35.784,1.125-6.12,2.989-12.061,4.464-18.1.475-1.947,1.109-3.858,1.634-5.792.381-1.4.749-2.811,1.059-4.232a25.424,25.424,0,0,1,.58-3.607c.18-.462.527-.98,1.02-.927.465.05.706.581.783,1.043.142.856-.085,1.642.079,2.465.17.845.63,1.7.869,2.539a35.382,35.382,0,0,1,1.028,5.391c.449,3.694.551,7.422,1.092,11.106,1.327,9.036,1.963,18.18,4.016,27.1,1.066,4.634,2.511,9.2,3.11,13.914,1.434,11.3-2.522,21.592-.55,32.769a142.155,142.155,0,0,1,1.814,19.352c.056,1.584-1.372,19.254-1.97,18.962-13.6-6.642-19.09-22.8-23.281-37.335-1.46-5.063-2.93-10.191-3.078-15.459A60.852,60.852,0,0,1,236.028-1.6Z" transform="translate(-234.424 70.046)" fill="#e1a101"/><path d="M249.441,40.5c.6,2.654,1.533,5.313,3.738,6.8.426-6.24-2.8-12.077-4.228-18.168-1.25-5.344-1.089-10.874-.63-16.3.48-5.677-.016-11.409-.119-17.141-.216-12.109-.439-24.294.511-36.38.615-7.836,1.7-15.582,2.813-23.323-.238-.839-.7-1.694-.869-2.539-.165-.823.063-1.609-.079-2.465a1.685,1.685,0,0,0-.309-.757c-1.325,16.453-5.118,32.465-4.91,49.87.121,10.028-.5,20.041-.175,30.079.16,5.01.385,10.052.939,15.037.51,4.572,2.1,9.207,3,13.784C249.223,39.49,249.326,39.995,249.441,40.5Z" transform="translate(-233.694 70.065)" fill="#d0620b"/></g><g transform="translate(190.573 152.11)"><path d="M400.56,28.892c-7.28.92-14.623,1.159-21.913,1.987-3.754.427-7.429,1.308-11.148,1.951-1.2.207-2.383.511-3.575.749-.865.172-1.734.336-2.608.465a15.551,15.551,0,0,0-2.209.2c-.287.09-.615.279-.6.579.011.284.322.453.6.518.513.122,1,.017,1.489.151s1,.452,1.5.631a21.494,21.494,0,0,0,3.221.847c2.219.425,4.473.642,6.681,1.123,5.417,1.18,10.93,1.946,16.246,3.56,2.762.839,5.465,1.9,8.3,2.463,6.784,1.339,13.182-.629,19.87,1.03a85.9,85.9,0,0,0,11.644,1.9c.956.1,11.719-.03,11.566-.4-3.458-8.511-13.013-12.51-21.645-15.655a38.139,38.139,0,0,0-9.234-2.508A36.939,36.939,0,0,0,400.56,28.892Z" transform="translate(-358.504 -28.39)" fill="#e1a101"/><path d="M425.471,38.852a6.429,6.429,0,0,1,3.965,2.547c-3.8,0-7.2-2.2-10.828-3.317a31.656,31.656,0,0,0-9.848-1.06,102.62,102.62,0,0,1-10.377-.785c-7.325-.635-14.7-1.277-22.056-1.2-4.771.046-9.507.379-14.242.733-.5-.18-1-.494-1.5-.631s-.977-.029-1.489-.151a1.031,1.031,0,0,1-.446-.218c10.02-.119,19.877-1.749,30.409-.9,6.069.489,12.158.533,18.225,1.145,3.028.3,6.072.651,9.068,1.195,2.748.5,5.489,1.654,8.223,2.391C424.87,38.679,425.17,38.762,425.471,38.852Z" transform="translate(-358.494 -28.031)" fill="#d0620b"/></g><g transform="translate(0 4.136)"><path d="M226.466-110.1S259.8-14.315,181.957,64c0,0-6.806-22.769,5.977-59.061C199.239-27.164,226.466-110.1,226.466-110.1Z" transform="translate(-180.147 110.098)" fill="#e1a101"/><path d="M212.9-33.357q-1.984,8.8-4.287,17.4c-5.325,20-15.824,38.223-18.545,59,2.4-7.775,6.15-14.614,9.457-21.973,2.888-6.425,4.931-13.737,7.036-20.52a168.14,168.14,0,0,0,5.622-23.165c.442-2.76,1.681-5.071,2.186-7.841.674-3.688,1.35-7.376,1.983-11.071,1.265-7.369,2.432-14.754,3.561-22.145,2.228-14.591,4.307-29.205,6.7-43.772-.5-1.725-.824-2.652-.824-2.652s-1.561,4.757-4.088,12.421c-.508,4.635-.831,9.33-1.2,14.667A329.837,329.837,0,0,1,212.9-33.357Z" transform="translate(-179.467 110.098)" fill="#d0620b"/></g><g transform="translate(46.305)"><path d="M260.483-84.738a213.352,213.352,0,0,0,25.165,5.623,243,243,0,0,0,27.077,1.888c9.123.295,18.263.59,27.372-.007,19.67-1.292,36.884-12.471,55.084-18.623-7.022-3.981-14.74-6.549-22.4-9.091-13.4-4.446-27.075-8.939-41.194-9.02-13.09-.074-25.86,3.65-38.755,5.9a236.791,236.791,0,0,1-33.28,3.105c-10.137.316-21.044,1.607-30.694-1.886a7.243,7.243,0,0,0-3.566-.641c-5.665.929,3.651,7.21,5.318,8.519a69.755,69.755,0,0,0,17.549,10.557,85.784,85.784,0,0,0,8.3,2.578Q258.469-85.287,260.483-84.738Z" transform="translate(-223.484 113.969)" fill="#e1a101"/><path d="M338.924-96a149.388,149.388,0,0,1,15.5-3.009c-6.171-2.583-17.2.686-23.64,1.538-8.512,1.126-17.039,2.318-25.642,2.384-14.237.2-28.539.332-42.7-1.346a129.941,129.941,0,0,1-20.705-4.041c-5.336-1.538-12.443-2.907-16.937-6.2,3.98,2.918,8.231,5.631,13,6.908a257.974,257.974,0,0,0,63.29,8.316,140.022,140.022,0,0,0,19.564-.847A184.856,184.856,0,0,0,338.924-96Z" transform="translate(-223.394 114.468)" fill="#d0620b"/></g><g transform="translate(184.837 153.381)"><path d="M367.975,44.105a102.138,102.138,0,0,1,5.676,10.956,116.369,116.369,0,0,1,4.181,12.3c1.251,4.185,2.5,8.378,3.34,12.665,1.806,9.26-1.264,18.59-1.887,27.762a59.452,59.452,0,0,1-6.942-9.253c-3.694-5.658-7.444-11.435-9.206-17.958-1.634-6.048-1.47-12.411-2.006-18.652a113.487,113.487,0,0,0-2.63-15.777c-1.092-4.728-1.827-9.933-4.622-13.971a3.471,3.471,0,0,1-.732-1.572c-.263-2.734,3.781.809,4.591,1.42a33.392,33.392,0,0,1,7.029,6.83,41.222,41.222,0,0,1,2.206,3.524Q367.474,43.24,367.975,44.105Z" transform="translate(-353.136 -29.579)" fill="#e1a101"/><path d="M372.552,81.711a71.314,71.314,0,0,0,.5,7.54c-1.949-2.539-1.784-8.04-2.177-11.125a99.773,99.773,0,0,0-2.03-12.155,154.855,154.855,0,0,0-5.839-19.593,62.084,62.084,0,0,0-4.4-9.086c-1.363-2.281-2.865-5.4-4.938-7.079a19.182,19.182,0,0,1,4.784,5.169,123.461,123.461,0,0,1,11.579,28.267,67.061,67.061,0,0,1,2,9.156A88.422,88.422,0,0,1,372.552,81.711Z" transform="translate(-353.099 -29.536)" fill="#d0620b"/></g><g transform="translate(101.634 83.499)"><path d="M283.483,43.568c3.474,9.926,7.387,20.146,6.434,30.62,3.059-1.518,4.654-4.916,5.762-8.146a65.155,65.155,0,0,0,.527-40.334c-2.04-6.491-5.113-12.7-6.215-19.413-.713-4.334-.581-8.757-.953-13.133a58.559,58.559,0,0,0-4.027-16.755c-1.232-3.086-2.655-12.71-7.07-12.211-.206,2.015,1.239,3.852,1.579,5.923s-.313,4.177-.891,6.2C272.114-.866,275.787,21.582,283.483,43.568Z" transform="translate(-275.266 35.823)" fill="#e1a101"/><path d="M290.643,58.226c2.825-3.667-.845-21.342-1.266-24.588-7.48-33.27-8.936-37.663-7.163-65.258-.905-2.147-2.087-3.9-3.73-4.167A10.7,10.7,0,0,1,279.6-31.1c-.085.662-.15,1.321-.218,1.98a10.237,10.237,0,0,1-.227,2.563C276.968,3.438,289.991,28.98,290.643,58.226Z" transform="translate(-275.046 35.825)" fill="#d0620b"/></g><g transform="translate(197.084 161.831)"><path d="M402.188,66.357c5.772,2.274,11.845,4.463,16.157,8.924.5-1.952-.4-3.973-1.419-5.713a38.43,38.43,0,0,0-17.813-15.775c-3.686-1.591-7.643-2.61-11.067-4.7-2.21-1.352-4.136-3.115-6.234-4.635a34.561,34.561,0,0,0-9.036-4.657c-1.853-.639-6.7-3.711-8.178-1.547.821.869,2.2.931,3.254,1.577a8.5,8.5,0,0,1,2.428,2.789C377.959,54.314,389.4,61.323,402.188,66.357Z" transform="translate(-364.597 -37.488)" fill="#e1a101"/><path d="M411.56,68.708c-.549-2.674-9.859-7.846-11.471-8.909-17.743-9.478-20.267-10.52-31.911-21.946-1.308-.422-2.546-.571-3.3.061a6.312,6.312,0,0,1,2.524,1.309c.264.293.533.576.8.86a5.975,5.975,0,0,1,1.058,1.089C381.817,53.707,398.245,57.732,411.56,68.708Z" transform="translate(-364.578 -37.488)" fill="#d0620b"/></g><g transform="translate(106.804 86.76)"><path d="M313.769-12.068A126.627,126.627,0,0,1,299.9-20.3c-2.76-1.9-5.478-3.942-8.618-5.1-3.354-1.237-7.806-1.319-10.477-4a2.068,2.068,0,0,1-.448-2.485,2.831,2.831,0,0,1,2.548-.88c7.271.229,13.628,4.836,20.67,6.657,5.008,1.3,10.255,1.152,15.422,1.4,12.365.593,23.357,4.44,35.15,7.567a68.973,68.973,0,0,1,16.87,7.271c2.69,1.565,5.3,3.269,7.848,5.056,1.029.722,5.472,5.023,6.526,4.861L366.251,3a36.261,36.261,0,0,1-6.2.6,32.753,32.753,0,0,1-7.574-1.285A190.416,190.416,0,0,1,313.769-12.068Z" transform="translate(-280.104 32.771)" fill="#e1a101"/><path d="M320.6-16.666c.277.045.555.085.832.124a46.881,46.881,0,0,1,6.133.971,35.387,35.387,0,0,1,4.419,1.7A83.462,83.462,0,0,0,361.341-6.9a8.8,8.8,0,0,1,3.345.545c-13.591-4.473-27.658-7.084-41.392-11.065a258.9,258.9,0,0,1-40.831-15.344,2.49,2.49,0,0,0-2.109.879,1.616,1.616,0,0,0-.227,1.117c.117.923,9.176,3.751,10.36,4.225,3.585,1.432,7.193,2.809,10.861,4.012,3.382,1.109,6.66,1.9,9.933,3.247A41.883,41.883,0,0,0,320.6-16.666Z" transform="translate(-280.104 32.771)" fill="#d0620b"/></g><g transform="translate(142.709 123.907)"><path d="M317.145,30.25c.733,12.373,2.134,24.641,7.081,35.9a42.148,42.148,0,0,0,8.431,12.9c3.114,3.13,6.909,5.656,9.337,9.342-1.737-2.638-1.6-8.858-1.991-11.981q-.8-6.459-1.021-12.973c-.3-8.76.751-15.435-2.112-24.009-2.5-7.479-5.057-14.99-8.87-21.892-2.036-3.685-9.352-16.711-14.292-15.46a38.77,38.77,0,0,1,2.558,10.893C316.608,18.694,316.8,24.484,317.145,30.25Z" transform="translate(-313.708 -1.995)" fill="#e1a101"/><path d="M326.2,55.556a72.593,72.593,0,0,0,8.226,17.493c-3.7-5.634-3.662-13.211-5.535-19.467a217.758,217.758,0,0,1-5.981-23C321.653,23.764,324.649,10.3,319.2,4.81c-1.623-1.636-3.263-2.751-4.744-2.8C321.927,19.121,319.681,37.755,326.2,55.556Z" transform="translate(-313.657 -1.994)" fill="#d0620b"/></g><path d="M271.778-39.225c9.534,11.4,19.366,23.622,29.922,34.531,11.014,11.383,23.536,19.07,35.812,28.646,13.5,10.532,27.9,22.635,44.263,28.265-1.2-4.7-11.139-8.181-14.956-10.655q-9.035-5.855-17.8-12.109A320.67,320.67,0,0,1,318.932,5.473c-23.4-21.352-42.3-47.077-61.041-72.617L240.71-90.56c-5.225-7.123-9.1-15.664-16.625-20.64-2.949,5.364,7.947,20.06,11,24.723,5.342,8.174,11.453,15.813,17.549,23.429L266.1-46.219C267.974-43.875,269.852-41.529,271.778-39.225Z" transform="translate(-177.172 114.159)" fill="#dc8655"/><path d="M224.1-107.622c-.064.025-.13.049-.187.077,1.286.683,2.588,1.322,3.9,1.935Q225.932-106.572,224.1-107.622Z" transform="translate(-177.149 114.404)" fill="#d0620b"/></g><g transform="translate(415.8 -52.834)"><g transform="translate(0 0)"><g transform="translate(11.845 27.498)"><path d="M587.017,7.048a14.985,14.985,0,0,0-1.862.789,5.018,5.018,0,0,0-1.561,1.127,2.951,2.951,0,0,0,2.007,4.856c4.171.337,14.524,3.328,11.564-5.028C595.835,5.04,590.443,5.84,587.017,7.048Z" transform="translate(-582.896 -6.043)" fill="#dc8655"/></g><g transform="translate(27.024 39.4)"><path d="M609.578,22.512c-.018.048-.037.1-.058.142-1.838,4.138-11.357,3.809-12.354-.873a5.589,5.589,0,0,1,1.058-3.757,1.317,1.317,0,0,1,1.587-.828c3.2.2,5.574.236,8.464,1.6A3,3,0,0,1,609.578,22.512Z" transform="translate(-597.102 -17.182)" fill="#dc8655"/></g><g transform="translate(34.679 28.681)"><path d="M617.589,12.925c-.2,4.557-6.854,2.333-9.521,1.411a6.546,6.546,0,0,1-2.935-1.823,3.3,3.3,0,0,1-.679-3.258c1.353-3.374,11.135-2.321,12.7.535A5.913,5.913,0,0,1,617.589,12.925Z" transform="translate(-604.267 -7.15)" fill="#dc8655"/></g><g transform="translate(3.824 40.713)"><path d="M578.352,18.416a3.463,3.463,0,0,0-1.866.309,2.8,2.8,0,0,0-.183,4.29,4.521,4.521,0,0,0,2.029.707,25.3,25.3,0,0,0,6.467.2,2.112,2.112,0,0,0,1.26-.42,1.57,1.57,0,0,0,.412-1.265,3.561,3.561,0,0,0-2.09-2.776A15.68,15.68,0,0,0,578.352,18.416Z" transform="translate(-575.389 -18.411)" fill="#dc8655"/></g><g transform="translate(15.426 49.282)"><path d="M594.13,33.137c-2.9.442-5.519-.075-7.525-2.408a1.435,1.435,0,0,1-.325-.529,1.356,1.356,0,0,1,0-.59,3.972,3.972,0,0,1,2.324-3.07c1.223-.472,5.406.708,6.615,1.329,1.563.8,2.437,3.116,1.2,4.362A3.977,3.977,0,0,1,594.13,33.137Z" transform="translate(-586.248 -26.431)" fill="#dc8655"/></g><g transform="translate(32.812 18.198)"><path d="M610.4,4.045c-2.9.442-5.519-.074-7.525-2.408a1.435,1.435,0,0,1-.326-.529,1.372,1.372,0,0,1,0-.59,3.977,3.977,0,0,1,2.325-3.07c1.223-.472,5.405.709,6.615,1.33,1.562.8,2.436,3.116,1.2,4.361A3.977,3.977,0,0,1,610.4,4.045Z" transform="translate(-602.519 2.661)" fill="#dc8655"/></g><g transform="translate(35.311 49.017)"><path d="M615.533,32.708c-2.453.544-10.979,1.075-10.667-3.537.191-2.824,6.484-2.821,8.6-2.982,2.608-.2,6.458,3.778,3.413,6A3.53,3.53,0,0,1,615.533,32.708Z" transform="translate(-604.858 -26.182)" fill="#dc8655"/></g><g transform="translate(16.607 15.825)"><path d="M598.028,1.644c-2.452.544-10.979,1.075-10.667-3.537.191-2.824,6.484-2.821,8.6-2.982,2.608-.2,6.458,3.778,3.412,6A3.541,3.541,0,0,1,598.028,1.644Z" transform="translate(-587.353 4.882)" fill="#dc8655"/></g><g transform="translate(46.281 39.477)"><path d="M617.978,17.374c2.053-.612,11.984,1.142,8.772,4.986a3.62,3.62,0,0,1-1.215.867,11.172,11.172,0,0,1-5.694,1.124,6.344,6.344,0,0,1-3.124-.945,3.439,3.439,0,0,1-1.592-2.743A3.759,3.759,0,0,1,617.978,17.374Z" transform="translate(-615.125 -17.254)" fill="#dc8655"/></g><g transform="translate(27.459 59.404)"><path d="M598.078,39.739a4.687,4.687,0,0,0,2.37,1.553,11.337,11.337,0,0,0,4.377.593c1.687-.1,3.684-.98,3.779-2.668.078-1.371-1.2-1.972-2.025-2.807a2.117,2.117,0,0,0-1.386-.469C603.32,35.8,595.333,35.884,598.078,39.739Z" transform="translate(-597.509 -35.904)" fill="#dc8655"/></g><g transform="translate(7.175 1.713)"><path d="M579.094-14.254a4.686,4.686,0,0,0,2.369,1.554,11.336,11.336,0,0,0,4.376.592c1.687-.1,3.684-.979,3.78-2.667.078-1.371-1.2-1.972-2.026-2.807a2.116,2.116,0,0,0-1.385-.47C584.335-18.193,576.348-18.108,579.094-14.254Z" transform="translate(-578.526 18.089)" fill="#dc8655"/></g><g transform="translate(22.98 7.246)"><path d="M593.886-9.077a4.678,4.678,0,0,0,2.37,1.554,11.332,11.332,0,0,0,4.375.593c1.688-.1,3.685-.98,3.78-2.668.078-1.371-1.2-1.972-2.025-2.807A2.12,2.12,0,0,0,601-12.875C599.127-13.016,591.142-12.931,593.886-9.077Z" transform="translate(-593.318 12.911)" fill="#dc8655"/></g><g transform="translate(39.576 10.933)"><path d="M609.419-5.625a4.676,4.676,0,0,0,2.37,1.553,11.332,11.332,0,0,0,4.375.593c1.688-.1,3.685-.98,3.78-2.667.078-1.371-1.2-1.974-2.025-2.807a2.12,2.12,0,0,0-1.386-.47C614.661-9.564,606.674-9.479,609.419-5.625Z" transform="translate(-608.85 9.46)" fill="#dc8655"/></g><g transform="translate(8.069 60.48)"><path d="M580.808,36.961a1.543,1.543,0,0,0-.813.15,1.183,1.183,0,0,0-.438.57,3.081,3.081,0,0,0,.528,3.011,5.678,5.678,0,0,0,2.641,1.738c2.917,1.029,11.2-2.826,5.573-4.923C586.046,36.667,583.172,36.959,580.808,36.961Z" transform="translate(-579.362 -36.911)" fill="#dc8655"/></g><g transform="translate(43.583 60.678)"><path d="M622.5,42.535c-1.669.878-5.192.855-6.973.9a2.068,2.068,0,0,1-2.324-1.408,2.824,2.824,0,0,1-.553-2.062,2.129,2.129,0,0,1,.275-.579c1.986-3.142,6.51-2.765,8.879-.587C623.953,40.775,623.72,41.895,622.5,42.535Z" transform="translate(-612.6 -37.096)" fill="#dc8655"/></g><g transform="translate(18.446 70.599)"><path d="M597.939,48.39c.211,3.173-5.187,3.516-7.162,2.726-1.273-.509-2.181-2.148-1.432-3.3.593-.908,1.838-1.062,2.921-1.126C594.066,46.587,597.743,45.426,597.939,48.39Z" transform="translate(-589.074 -46.381)" fill="#dc8655"/></g><g transform="translate(5.539 21.601)"><path d="M585.858,2.533c.211,3.173-5.186,3.516-7.162,2.727-1.271-.51-2.18-2.148-1.431-3.3.593-.909,1.838-1.063,2.92-1.127C581.985.73,585.662-.43,585.858,2.533Z" transform="translate(-576.994 -0.524)" fill="#dc8655"/></g><g transform="translate(35.563 69.545)"><path d="M610.891,45.411c2.38-.229,6.03,2,2.333,3.739a6.335,6.335,0,0,1-2.46.434c-1.966.083-4.228.044-5.5-1.46a1.531,1.531,0,0,1,.7-2.017C607.044,45.5,609.661,45.529,610.891,45.411Z" transform="translate(-605.094 -45.395)" fill="#dc8655"/></g><g transform="translate(0 10.8)"><path d="M577.608-9.568c2.38-.228,6.031,2,2.333,3.74a6.353,6.353,0,0,1-2.459.434c-1.967.082-4.229.043-5.5-1.461a1.529,1.529,0,0,1,.7-2.016C573.761-9.48,576.378-9.449,577.608-9.568Z" transform="translate(-571.811 9.584)" fill="#dc8655"/></g><g transform="translate(49.261 23.182)"><path d="M623.711,2.02c2.38-.229,6.031,2,2.332,3.739a6.332,6.332,0,0,1-2.459.434c-1.967.083-4.229.044-5.5-1.46a1.531,1.531,0,0,1,.7-2.017C619.864,2.108,622.481,2.138,623.711,2.02Z" transform="translate(-617.914 -2.004)" fill="#dc8655"/></g><g transform="translate(35.299)"><path d="M610.645-19.676c2.38-.228,6.03,2,2.331,3.74a6.349,6.349,0,0,1-2.459.434c-1.966.082-4.228.043-5.5-1.461a1.529,1.529,0,0,1,.7-2.017C606.8-19.588,609.414-19.557,610.645-19.676Z" transform="translate(-604.847 19.692)" fill="#dc8655"/></g></g></g><g transform="translate(507.484 -94.222)"><path d="M748.557-.506c-4.737,1.774-12.325,6.134-17.305,4.047a9.724,9.724,0,0,1-5.743-8.954c.069-4.185,2.726-7.827,5.267-11.154,6.017-7.879,12.359-17.228,23.884-16.4,13.159.948,13.966,16.9,6.578,24.69C757.795-4.647,753.239-2.259,748.557-.506Z" transform="translate(-675.745 44.096)" fill="#fdfbfa"/><path d="M707.61-12.209c4.854,1.419,13.542,2.476,16.28,7.131a9.727,9.727,0,0,1-.768,10.609c-2.564,3.309-6.873,4.633-10.9,5.773-9.539,2.7-20.22,6.385-28.949-1.186-9.965-8.644-1.048-21.9,9.532-23.707C697.733-14.429,702.811-13.611,707.61-12.209Z" transform="translate(-678.935 45.404)" fill="#fdfbfa"/><path d="M707.378,17.122c2.4-4.455,5.235-12.733,10.357-14.443a9.726,9.726,0,0,1,10.219,2.955c2.7,3.2,3.1,7.685,3.382,11.861.661,9.893,2.046,21.1-7.174,28.07-10.526,7.953-21.641-3.523-21.21-14.248C703.155,26.322,705.01,21.526,707.378,17.122Z" transform="translate(-677.291 46.511)" fill="#fdfbfa"/><path d="M729.745-21.635c.669,5.012,3.223,13.384.075,17.771a9.724,9.724,0,0,1-10.012,3.6c-4.063-1-7.019-4.406-9.693-7.628-6.334-7.627-14.028-15.9-10.641-26.947,3.867-12.613,19.6-9.83,25.536-.888C727.774-31.565,729.083-26.591,729.745-21.635Z" transform="translate(-677.585 43.386)" fill="#fdfbfa"/><path d="M730.811,23.8c-2.741-4.25-8.616-10.737-7.637-16.048A9.725,9.725,0,0,1,730.7.238c4.1-.822,8.227,1,12.018,2.774,8.98,4.2,19.465,8.411,21.1,19.848C765.7,35.919,750.277,40.1,741.1,34.54,736.822,31.949,733.519,28.005,730.811,23.8Z" transform="translate(-675.912 46.36)" fill="#fdfbfa"/><path d="M725.946,9.84A6.893,6.893,0,0,1,721.4,9.1a10.962,10.962,0,0,1-3.5-3.554c-4.127-6.142-.8-16.975,8.178-13.378,5.154,2.065,7.578,11.032,4.059,15.314A6.923,6.923,0,0,1,725.946,9.84Z" transform="translate(-676.386 45.772)" fill="#dc8655"/></g></g></svg>