<svg xmlns="http://www.w3.org/2000/svg" width="2005.173" height="727.37" viewBox="0 0 2005.173 727.37"><g transform="translate(36.219 -1630.455)"><g transform="translate(-662.499 1662.754)"><g transform="translate(638.604 469.518)"><g transform="translate(0 5.595)"><path d="M719.572,444.417c-9.36,23.475-19.54,46.371-35.558,66.173a145.532,145.532,0,0,1-22.2,21.617c-7.355,5.88-15.6,9.123-23.9,13.292-.508.253-.188,1.047.331,1.011,17.711-1.2,34.141-19.233,45.218-31.546,17.674-19.649,27.7-45.818,36.692-70.25.142-.386-.427-.693-.583-.3Z" transform="translate(-637.657 -444.233)" fill="#5c9984"/></g><g transform="translate(0.308 27.098)"><path d="M638.46,544.392c8.578-3.242,16.037-5.418,23.348-11.128a94.141,94.141,0,0,0,17.772-19.031c11.213-15.481,16.55-31.492,20.309-49.921.061-.291-.344-.355-.437-.09-2.76,8.055-4.488,16.39-7.723,24.29-3.068,7.489-7.655,14.71-11.979,21.53a103.507,103.507,0,0,1-16.826,19.63c-7.274,6.855-15.87,9.783-24.72,13.933-.471.219-.26.984.256.789Z" transform="translate(-637.941 -464.054)" fill="#5c9984"/></g><g transform="translate(27.007 3.729)"><path d="M663.264,532.838c15.45-10.758,29.849-24.946,42.137-39.117,12.864-14.839,21.456-31.323,25.431-50.655.1-.495-.662-.794-.861-.3-3.15,7.751-5.221,15.869-8.432,23.615-4.05,9.772-10.835,18-17.694,25.914a238.7,238.7,0,0,1-20,20.2c-7.046,6.416-13.53,13.773-21.1,19.539-.484.368.007,1.156.513.8Z" transform="translate(-662.552 -442.513)" fill="#5c9984"/></g><g transform="translate(62.62 11.164)"><path d="M696.265,487.411c10.08-9.348,18.767-24.415,22.232-37.658a.326.326,0,0,0-.607-.215c-6.094,12.609-12.817,26.845-22.371,37.192-.445.482.28,1.118.746.681Z" transform="translate(-695.38 -449.367)" fill="#5c9984"/></g><g transform="translate(55.176 31.172)"><path d="M689.375,506.04c18.013-8.634,30.208-21.676,41.85-37.554a.4.4,0,0,0-.59-.544c-5.878,6.038-11.1,12.66-16.952,18.722-7.051,7.3-16.226,13.233-24.9,18.447-.623.379-.024,1.222.593.929Z" transform="translate(-688.518 -467.809)" fill="#5c9984"/></g><g transform="translate(36.814 44.493)"><path d="M672.346,516.613c6.455-10.916,9.458-24.038,13.447-35.986.186-.544-.623-.726-.888-.311-6.868,10.7-8.3,24.336-13.273,35.933a.4.4,0,0,0,.715.365Z" transform="translate(-671.592 -480.089)" fill="#5c9984"/></g><path d="M729.19,444.61a3.8,3.8,0,1,1-1.659-5.118A3.8,3.8,0,0,1,729.19,444.61Z" transform="translate(-630.502 -439.075)" fill="#5c9984"/><path d="M730.737,470.987a3.8,3.8,0,1,1-1.659-5.117A3.806,3.806,0,0,1,730.737,470.987Z" transform="translate(-630.371 -436.837)" fill="#5c9984"/><path d="M721.085,452.775a3.8,3.8,0,1,1-1.659-5.117A3.8,3.8,0,0,1,721.085,452.775Z" transform="translate(-631.189 -438.383)" fill="#5c9984"/><path d="M717.718,445.4a3.8,3.8,0,1,1-1.659-5.118A3.806,3.806,0,0,1,717.718,445.4Z" transform="translate(-631.475 -439.009)" fill="#5c9984"/><path d="M699.008,467.587a3.8,3.8,0,1,1-1.659-5.117A3.8,3.8,0,0,1,699.008,467.587Z" transform="translate(-633.062 -437.126)" fill="#5c9984"/><path d="M687.708,482.979a3.8,3.8,0,1,1-1.659-5.117A3.8,3.8,0,0,1,687.708,482.979Z" transform="translate(-634.021 -435.82)" fill="#5c9984"/></g><g transform="matrix(0.819, 0.574, -0.574, 0.819, 764.123, 427.891)"><path d="M820.8,448.495c-1.507-12.433-10.9-22-23.713-15.078-18.628,10.065-30.646,31.954-41.795,49.045-15.218,23.341-35.2,42.818-50.744,65.853-13.977,20.713-15.6,42.54-12.91,66.088-9.273,11.535-16.379,24.17-16.909,38.9a.946.946,0,0,0,1.75.473c6.431-10.878,11.074-21.688,17.4-32.014,10.571,12.739,26.316,15.6,42.491,10.963,21.437-6.15,37.227-28.307,49.8-45.3A167.7,167.7,0,0,0,817.651,513.4C821,492.638,823.357,469.532,820.8,448.495Z" transform="translate(-674.734 -431.092)" fill="#5c995c"/><g transform="translate(23.387 28.422)"><path d="M790.4,451.019c-11.163,31.4-23.627,61.825-43.471,88.837a379.428,379.428,0,0,1-33.461,39.138c-7.251,7.484-20.3,15.328-22.534,26.126a1.613,1.613,0,0,0,2.933,1.238c7.794-11.234,19.109-19.812,28.43-29.775a356.329,356.329,0,0,0,30.445-37.888c18.738-26.475,29.757-56.434,38.481-87.45a.427.427,0,0,0-.822-.226Z" transform="translate(-690.887 -450.722)" fill="#b1e0b2"/></g><g transform="translate(27.566 120.323)"><path d="M707.655,514.4c-4.648,18.312-14.894,38.066-13.8,57.254a1.339,1.339,0,0,0,2.618.353c4.772-18.57,9.354-38.486,11.753-57.531.042-.332-.491-.389-.57-.077Z" transform="translate(-693.773 -514.198)" fill="#b1e0b2"/></g><g transform="translate(55.147 82.484)"><path d="M722.454,488.309c-1.593,22.178-8.144,43.829-9.628,65.917-.09,1.328,1.884,1.5,2.247.3,3.391-11.218,4.012-23.362,5.745-34.933a169.041,169.041,0,0,0,2.147-31.286.256.256,0,0,0-.511,0Z" transform="translate(-712.823 -488.062)" fill="#b1e0b2"/></g><g transform="translate(86.284 54.374)"><path d="M738.25,468.96c-.7,17.11-.708,35.635-3.892,52.451a1.351,1.351,0,0,0,2.6.717c2.36-7.191,1.216-14.755,1.268-22.21.072-10.329.912-20.62.669-30.958a.325.325,0,0,0-.649,0Z" transform="translate(-734.329 -468.647)" fill="#b1e0b2"/></g><g transform="translate(106.938 38.697)"><path d="M748.6,458.152c.406,5.557.8,11.1,1.016,16.673.19,4.837-.337,9.567.5,14.357.054.311.471.24.559,0,3.57-9.489,1.168-21.6-1.406-31.123-.1-.363-.7-.3-.67.093Z" transform="translate(-748.594 -457.819)" fill="#b1e0b2"/></g><g transform="translate(107.005 42.455)"><path d="M777.039,460.508a173.83,173.83,0,0,0-17.815,14.126c-4.626,4.265-9.8,8.94-10.581,15.495a.274.274,0,0,0,.466.191c4.54-4.989,8.121-10.639,13.023-15.335,4.978-4.768,10.494-8.952,15.587-13.591.47-.427-.153-1.257-.681-.886Z" transform="translate(-748.641 -460.415)" fill="#b1e0b2"/></g><g transform="translate(85.9 79.226)"><path d="M784.1,485.848c-10.739,6.855-22.426,11.719-33.726,17.52-5.722,2.935-14.879,7.627-16.3,14.549-.115.57.614,1.132,1.058.615,12.936-15.075,32.944-21.4,49.19-32.3.237-.158.022-.537-.221-.384Z" transform="translate(-734.064 -485.812)" fill="#b1e0b2"/></g><g transform="translate(55.249 130.139)"><path d="M757.2,521c-8.775,3.539-17.8,6.3-26.708,9.467-6.223,2.214-13.5,4.684-17.494,10.143-.346.473.226,1.15.754.977,7.769-2.567,14.888-7.978,22.57-11.156,7.094-2.936,14.255-5.393,21.1-8.9.29-.146.085-.653-.222-.529Z" transform="translate(-712.893 -520.978)" fill="#b1e0b2"/></g><g transform="translate(23.659 167.081)"><path d="M752.446,546.5a262.086,262.086,0,0,1-41.934,9.3c-6.124.819-15.946.773-19.271,6.916a1.342,1.342,0,0,0,1.823,1.823c6.982-4.016,14.2-4.7,21.974-6.133a184.455,184.455,0,0,0,37.482-11.638c.155-.067.1-.318-.074-.265Z" transform="translate(-691.075 -546.493)" fill="#b1e0b2"/></g></g><g transform="translate(659.127 191.65)"><path d="M758.731,254.646c6.147-.779,10.853-5.455,7.394-11.771-5.028-9.189-15.886-15.075-24.372-20.544-11.587-7.465-21.276-17.3-32.711-24.924-10.283-6.858-21.086-7.6-32.725-6.21-5.731-4.556-12-8.036-19.29-8.26a.468.468,0,0,0-.229.867c5.4,3.154,10.758,5.42,15.883,8.519-6.274,5.263-7.647,13.059-5.31,21.048,3.1,10.587,14.1,18.339,22.543,24.511a82.925,82.925,0,0,0,36.7,15.375C736.9,254.857,748.333,255.965,758.731,254.646Z" transform="translate(-656.576 -182.938)" fill="#5c995c"/><g transform="translate(19.021 11.465)"><path d="M751.586,242.315c-15.563-5.438-30.648-11.522-44.062-21.265A187.643,187.643,0,0,1,688.073,204.6c-3.721-3.567-7.636-10-12.983-11.077a.8.8,0,0,0-.6,1.456c5.577,3.824,9.851,9.4,14.8,13.981a176.117,176.117,0,0,0,18.824,14.959c13.146,9.2,28,14.569,43.361,18.8a.212.212,0,0,0,.112-.408Z" transform="translate(-674.109 -193.506)" fill="#b1e0b2"/></g><g transform="translate(21.861 13.509)"><path d="M705.729,202.111c-9.072-2.249-18.871-7.265-28.359-6.672a.662.662,0,0,0-.169,1.3,235.282,235.282,0,0,0,28.491,5.661c.164.02.191-.245.037-.284Z" transform="translate(-676.727 -195.39)" fill="#b1e0b2"/></g><g transform="translate(36.446 27.083)"><path d="M723.346,212.49c-10.972-.728-21.7-3.911-32.631-4.586-.656-.041-.738.936-.143,1.112,5.558,1.647,11.567,1.922,17.3,2.747a83.413,83.413,0,0,0,15.481.979.126.126,0,0,0,0-.252Z" transform="translate(-690.171 -207.903)" fill="#b1e0b2"/></g><g transform="translate(56.783 42.374)"><path d="M735.7,223.8c-8.464-.3-17.629-.256-25.955-1.785a.668.668,0,0,0-.347,1.29c3.564,1.147,7.3.562,10.989.567,5.11.008,10.2.4,15.316.248a.161.161,0,0,0,0-.321Z" transform="translate(-708.918 -221.998)" fill="#b1e0b2"/></g><g transform="translate(75.905 52.407)"><path d="M741.993,231.247c-2.749.216-5.49.424-8.246.547a52.71,52.71,0,0,0-7.1.287c-.154.027-.117.233,0,.276,4.7,1.742,10.689.521,15.392-.778.18-.05.146-.348-.047-.332Z" transform="translate(-726.545 -231.246)" fill="#b1e0b2"/></g><g transform="translate(74.829 52.53)"><path d="M740.412,245.327a85.97,85.97,0,0,0-7.036-8.774c-2.122-2.277-4.447-4.824-7.691-5.193-.117-.013-.176.157-.093.232,2.48,2.232,5.284,3.989,7.621,6.4,2.373,2.452,4.457,5.169,6.764,7.676.213.231.622-.079.436-.34Z" transform="translate(-725.552 -231.359)" fill="#b1e0b2"/></g><g transform="translate(55.128 42.195)"><path d="M723.794,246.5c-3.419-5.294-5.857-11.061-8.757-16.635-1.467-2.824-3.812-7.341-7.24-8.026-.283-.055-.56.308-.3.526,7.492,6.358,10.674,16.238,16.111,24.245.079.117.266.01.189-.111Z" transform="translate(-707.392 -221.833)" fill="#b1e0b2"/></g><g transform="translate(35.941 27.136)"><path d="M700.02,229.816c-1.774-4.331-3.166-8.788-4.756-13.186-1.111-3.071-2.351-6.663-5.063-8.627-.235-.169-.568.116-.481.376,1.29,3.836,3.985,7.343,5.577,11.134,1.473,3.5,2.706,7.038,4.461,10.416.073.141.324.039.261-.113Z" transform="translate(-689.706 -207.952)" fill="#b1e0b2"/></g><g transform="translate(18.775 11.601)"><path d="M683.055,223.946a129.867,129.867,0,0,1-4.711-20.719c-.421-3.026-.425-7.886-3.473-9.514a.663.663,0,0,0-.9.906c2.006,3.443,2.361,7.015,3.092,10.854a91.236,91.236,0,0,0,5.857,18.508c.034.078.158.05.131-.035Z" transform="translate(-673.883 -193.631)" fill="#b1e0b2"/></g></g><g transform="translate(623.109 291.828) rotate(-21)"><path d="M822.964,336.719c-4.739,21.194-30.561,7.292-45.614-2.718a335.022,335.022,0,0,1,36.788,44.287,1.431,1.431,0,0,1,1.065-.168c3.766.981,5.706-.508,9.151-1.936,4.265-1.771,9.568-1.258,13.949-.258,6.687,1.528,12.364,10.257,8.569,17.035-3.453,6.162-10.575,6.481-17.365,3.853,7.14,3.065,14.443,7.176,18.824,13.662,3.974,5.886,2.193,15.932-5.1,18.1-7.081,2.1-15.1-1.1-17.533-8.628-2.136-6.6.731-14.068-.076-20.669a11.876,11.876,0,0,1-1.139-1.738,1.444,1.444,0,0,1-.135-.424q-2.364-3.306-4.789-6.573a21.946,21.946,0,0,1-4.99-6.609q-6.655-8.665-13.745-17c4.007,11.68,5.34,26.643-8.419,28.626-9.625,1.386-17.141-4.562-18.323-14.234-.539-4.438,1.271-9.833,4.818-12.515a40.711,40.711,0,0,1,8.053-4.292,20.3,20.3,0,0,0,6.979-5.479,326.006,326.006,0,0,0-42.663-40.057c-1.089-.844-2.2-1.648-3.312-2.468,7.636,11.524,12.031,25.752,2.8,35.634-8.508,9.113-23.3,4.443-29.112-5.005-3.485-5.662-2.815-12.75-.148-18.488,1.62-3.48,4.771-6.365,7.394-9.018,4.093-4.141,4.759-7.484,5.147-12.574A180.02,180.02,0,0,0,700.6,290.849c-9.073-3.27-18.212-4.881-27.42-6.044,7.5,4.628,14.234,11.608,18.668,17.321,8.651,11.151,11.275,24.6,5.944,37.746-5.476,13.5-23.428,9.237-30.353-.089-5.556-7.479-7.23-15.4-7.224-24.676.007-11.11,5.329-22.13-1.977-31.94-.011-.016-.012-.033-.02-.044-4.066-.447-8.149-.924-12.25-1.548-1.037-.157-.895-1.719,0-1.972,13.779-3.887,28.539-3.042,43.076.641,9.771-10.475,5.127-32.08,21.959-36.639,9.766-2.646,22.163.048,26.1,10.933,3.973,10.993,1.089,20.394-8.1,27.271-5.608,4.2-12.713,5.393-20,5.2a210.483,210.483,0,0,1,42.406,24.533c5.063,3.74,9.917,7.713,14.618,11.849a2.165,2.165,0,0,1,.954-.049c7.216,1.258,14.4-8.246,20.923-11.428,5.914-2.886,12.947-5.046,19.565-4.155C821.462,309.649,825.814,323.953,822.964,336.719Z" transform="translate(-641.85 -242.662)" fill="#76995c"/><g transform="translate(0 32.632)"><path d="M841.268,411.107c-13.339-17.126-27.737-33.515-41.2-50.605-14.073-17.867-28.69-34.414-46.845-48.044-17.164-12.881-36.616-22.362-56.392-30.188a97.345,97.345,0,0,0-29.412-6.756c-7.837-.553-15.6,1.216-23.226-1a2.116,2.116,0,0,1-.491-3.822c13.3-7.437,33.286-3.23,47.149.808,20.787,6.055,41.2,17.049,59.317,28.88,41.349,26.992,66,69.04,91.838,110.149.284.45-.409,1-.74.577Z" transform="translate(-642.695 -266.602)" fill="#5a7c40"/></g><g transform="translate(13.283 37.303)"><path d="M685.3,307.537c-4.3-7.58-8.633-14.625-14.434-21.185-5.275-5.962-12.412-8.46-17.794-13.757-.709-.7-.454-2.3.648-2.445,16.242-2.14,27.194,25.042,32.805,36.678.4.827-.765,1.521-1.226.71Z" transform="translate(-652.674 -270.029)" fill="#5a7c40"/></g><g transform="translate(40.392 15.511)"><path d="M712.47,255.07c-5.9,14.4-22.333,28.818-38.817,23.132a.879.879,0,0,1-.2-1.582c4.544-3.052,9.863-2.577,15.09-3.643,10.161-2.072,18.176-9.329,22.773-18.578.4-.8,1.478-.113,1.156.672Z" transform="translate(-673.04 -254.042)" fill="#5a7c40"/></g><g transform="translate(90.385 60.176)"><path d="M722.485,322.985c.944-7.074.526-13.563-2.46-20.1-2.463-5.392-7.169-9.146-9.336-14.575-.307-.767.2-1.694,1.1-1.463,14.213,3.642,14.478,25.059,11.791,36.431-.173.748-1.19.425-1.093-.293Z" transform="translate(-710.599 -286.81)" fill="#5a7c40"/></g><g transform="translate(123.275 81.215)"><path d="M774.1,314.573c-14.994,1.472-29.47,2.436-38.727-11.6-.252-.382.264-.935.638-.653,10.619,7.972,25.174,11.235,38.088,11.528a.361.361,0,0,1,0,.721Z" transform="translate(-735.309 -302.246)" fill="#5a7c40"/></g><g transform="translate(151.231 114.087)"><path d="M756.849,357.525a39.618,39.618,0,0,0,2.653-14.837c-.064-5.4-2.36-10.388-3.181-15.661a.535.535,0,0,1,.885-.521c9.833,8.1,6.177,21.972.72,31.466-.327.568-1.326.2-1.077-.447Z" transform="translate(-756.311 -326.363)" fill="#5a7c40"/></g><g transform="translate(167.283 132.34)"><path d="M798.228,358.749c-12.433-1.513-22.9-7.392-29.758-17.974a.676.676,0,0,1,.905-.927c9.345,6.042,18.193,14.781,28.978,17.92.513.151.441,1.054-.125.981Z" transform="translate(-768.371 -339.755)" fill="#5a7c40"/></g></g><g transform="translate(638.07 421.044)"><path d="M741.9,434.771a.488.488,0,0,1-.282.052c-12.636-2.136-24.944,4.585-34.794,11.751-8.581,6.244-15.818,14.3-26.879,15.929-7.751,1.137-18.59,1.019-23.993-5.826-2.844-3.6-4.076-7.578-4.683-12.1-.05-.371.271-6.928,1.194-8.889a32.371,32.371,0,0,1-9.5-1.859.812.812,0,0,1,.339-1.521c3.194.246,6.254.4,9.273.41,1.021-11.124,2.846-21.228,11.248-29.259,6.578-6.291,15.964-8.8,24.824-9.055,23.41-.669,42.558,21.7,54.1,39.637C743.108,434.6,742.383,435.14,741.9,434.771Z" transform="translate(-636.709 -394.392)" fill="#5c9984"/><g transform="translate(0 31.415)"><path d="M728.476,426.98c-15.26-4.449-32.859.714-47.9,3.785-12.676,2.585-31.176,7.713-42.773-.179a1.27,1.27,0,0,1,.856-2.353c8.342,1.033,15.839,2.215,24.308,1.382,8.392-.823,16.656-2.767,24.939-4.281,14.312-2.612,26.685-2.829,40.831.465.764.177.485,1.4-.257,1.18Z" transform="translate(-637.165 -423.351)" fill="#407c67"/></g><g transform="translate(14.728 40.179)"><path d="M688.4,446.459c-11.531-1.936-28.875-5.246-37.465-13.863a.677.677,0,0,1,.6-1.148c5.568,1.347,10.727,4.9,15.942,7.286a102.187,102.187,0,0,0,21.077,7.015.364.364,0,0,1-.156.711Z" transform="translate(-650.741 -431.429)" fill="#407c67"/></g><g transform="translate(39.033 37.984)"><path d="M694.723,437.269c-4.153-1.092-8.335-2.016-12.471-3.183-3.115-.878-6.751-1.473-8.99-3.951-.221-.244-.126-.742.27-.729,3.239.106,6.063,1.973,9.074,3.06,4.05,1.458,8.187,2.721,12.289,4.025.481.153.33.909-.171.778Z" transform="translate(-673.145 -429.406)" fill="#407c67"/></g><g transform="translate(63.151 32.635)"><path d="M711.568,430.71c-4.862-.463-12.949-1.665-16.138-5.8-.165-.216.088-.456.3-.429,2.369.277,4.428,1.461,6.613,2.362a93.237,93.237,0,0,0,9.356,3.247.319.319,0,0,1-.133.624Z" transform="translate(-695.377 -424.475)" fill="#407c67"/></g><g transform="translate(63.349 27.97)"><path d="M709.724,420.621a38.147,38.147,0,0,0-7.943,3.886c-1.7.963-4.071,2.332-6,1.418a.41.41,0,0,1-.172-.554c1.144-1.811,4-2.4,5.913-3.069a44.809,44.809,0,0,1,8.12-2.123c.263-.04.323.37.08.443Z" transform="translate(-695.56 -420.175)" fill="#407c67"/></g><g transform="translate(38.165 18.453)"><path d="M704.912,411.713a130.988,130.988,0,0,0-16.581,7.943,66.29,66.29,0,0,0-6.885,4.593c-3.116,2.337-4.659,5.686-8.145,7.288-.426.2-1.1-.08-.928-.651,3.76-12.307,21.838-16.25,32.444-19.476a.159.159,0,0,1,.094.3Z" transform="translate(-672.345 -411.402)" fill="#407c67"/></g><g transform="translate(16.417 10.947)"><path d="M692.44,404.9a75.109,75.109,0,0,0-38.146,28.614c-.545.8-1.979.707-1.995-.443-.1-6.713,8.964-11.9,13.823-15.6,7.734-5.883,16.66-10.847,26.19-12.986a.215.215,0,0,1,.128.411Z" transform="translate(-652.298 -404.483)" fill="#407c67"/></g></g><g transform="matrix(0.875, -0.485, 0.485, 0.875, 654.409, 159.054)"><g transform="translate(0 0)"><path d="M678.38,162.613c1.219,3.99.518,7.709-.78,11.572-.116.343.349.743.63.437,5.261-5.707,2.348-13.187-1.393-19.087a56.143,56.143,0,0,1,8.208,8.225,96.872,96.872,0,0,1,6.65,9.411,29.534,29.534,0,0,1-.055,7.543.366.366,0,0,0,.662.235,7.718,7.718,0,0,0,1.122-4.895q2.151,3.72,3.99,7.592a.449.449,0,0,0,.814-.379c-.517-1.239-1.06-2.518-1.629-3.821a10.64,10.64,0,0,0,5.212.921c.375-.027.363-.568.054-.687-1.149-.435-2.371-.649-3.544-1.014a8.863,8.863,0,0,1-2.8-1.637,97.038,97.038,0,0,0-6.968-12.942,32.292,32.292,0,0,0,14.878,4.958.383.383,0,0,0,.156-.74c-2.783-1.211-5.742-1.968-8.615-2.936a43.462,43.462,0,0,1-8.711-4.542c-4.737-6.27-10.661-11.3-18.262-12.981-.551-.123-1.023.585-.482.942,2.393,1.58,4.687,3.16,6.883,4.825A49.256,49.256,0,0,1,678.38,162.613Z" transform="translate(-667.276 -147.833)" fill="#5c995c"/></g><path d="M699.492,170.443a5.424,5.424,0,1,1,7.548-1.367A5.424,5.424,0,0,1,699.492,170.443Z" transform="translate(-664.74 -146.753)" fill="#5c995c"/><path d="M700,182.207a5.424,5.424,0,1,1,7.548-1.366A5.424,5.424,0,0,1,700,182.207Z" transform="translate(-664.697 -145.755)" fill="#5c995c"/><path d="M693.659,189.823a5.424,5.424,0,1,1,7.548-1.366A5.424,5.424,0,0,1,693.659,189.823Z" transform="translate(-665.235 -145.109)" fill="#5c995c"/><path d="M684.794,183.523a5.424,5.424,0,1,1,7.548-1.367A5.424,5.424,0,0,1,684.794,183.523Z" transform="translate(-665.987 -145.643)" fill="#5c995c"/><path d="M673.8,175.9a5.425,5.425,0,1,1,7.548-1.366A5.424,5.424,0,0,1,673.8,175.9Z" transform="translate(-666.92 -146.29)" fill="#5c995c"/><g transform="translate(35.686 14.718)"><path d="M700.534,162.465a3.3,3.3,0,0,1,2.764.353,7.014,7.014,0,0,1,1.029.891c.3.314.429.663.819.88a.731.731,0,0,0,1.092-.355c.372-1.31-.955-2.223-2.036-2.6a5.8,5.8,0,0,0-3.859.243c-.325.136-.154.692.19.593Z" transform="translate(-700.171 -161.4)" fill="#b1e0b2"/></g><g transform="translate(40.755 18.307)"><path d="M704.861,165.3c.155.563.036,1.066.455,1.517a.273.273,0,0,0,.382.035,1.58,1.58,0,0,0,.125-1.856c-.217-.529-1.116-.254-.961.3Z" transform="translate(-704.844 -164.709)" fill="#b1e0b2"/></g><g transform="translate(36.525 27.716)"><path d="M701.212,174.052a4.761,4.761,0,0,1,3.159,1.011c.936.67.995,1.755,1.466,2.712a.86.86,0,0,0,1.625-.3,3.767,3.767,0,0,0-1.974-3.432c-1.162-.814-2.962-.7-4.307-.584a.3.3,0,0,0,.031.588Z" transform="translate(-700.944 -173.382)" fill="#b1e0b2"/></g><g transform="translate(41.408 32.656)"><path d="M705.882,178.089c-.169.431-.49.687-.43,1.172a.266.266,0,0,0,.369.192c.548-.2.533-.764.522-1.266a.239.239,0,0,0-.461-.1Z" transform="translate(-705.445 -177.935)" fill="#b1e0b2"/></g><g transform="translate(32.362 40.276)"><path d="M699.27,185.136a4.847,4.847,0,0,1-1.4,2.064c-.384.356-1.046.715-.637,1.3a.574.574,0,0,0,.555.2c1.611-.375,1.9-2.051,2-3.456a.272.272,0,0,0-.525-.111Z" transform="translate(-697.106 -184.96)" fill="#b1e0b2"/></g><g transform="translate(32.263 43.566)"><path d="M697.026,188.015a.054.054,0,0,0,.089.061.054.054,0,0,0-.089-.061Z" transform="translate(-697.016 -187.992)" fill="#b1e0b2"/></g><g transform="translate(29.527 43.299)"><path d="M696.35,187.75c-.564.082-1.158.1-1.728.146-.17.013-.165.257-.025.31a3.462,3.462,0,0,0,1.887.293c.489-.07.352-.82-.133-.75Z" transform="translate(-694.493 -187.746)" fill="#b1e0b2"/></g><g transform="translate(17.895 35.121)"><path d="M689.29,182.76a4.1,4.1,0,0,1-2.527-1.072c-.714-.528-1.053-1.287-1.981-1.467-.528-.1-.9.4-.985.843-.238,1.238,1.206,1.915,2.176,2.171a8.857,8.857,0,0,0,3.342.027c.283-.034.264-.514-.026-.5Z" transform="translate(-683.771 -180.207)" fill="#b1e0b2"/></g><g transform="translate(17.448 32.096)"><path d="M684.219,178.567a1.524,1.524,0,0,0,.206-.5.5.5,0,0,0-.944-.331,2.307,2.307,0,0,0-.1.4.477.477,0,0,0,.839.429Z" transform="translate(-683.359 -177.419)" fill="#b1e0b2"/></g><g transform="translate(7.182 27.068)"><path d="M679.232,173.16a2.519,2.519,0,0,1-2.276.267c-.792-.2-1.637-.79-2.473-.61a.741.741,0,0,0-.532,1.023c.4,1.073,2.019,1.428,3.033,1.455a3.459,3.459,0,0,0,2.854-1.58c.3-.367-.258-.856-.606-.555Z" transform="translate(-673.896 -172.784)" fill="#b1e0b2"/></g><g transform="translate(5.205 24.691)"><path d="M672.855,171.683a1.317,1.317,0,0,0-.3-1.022.2.2,0,0,0-.335.06,4.7,4.7,0,0,0-.144.9c-.079.493.751.568.777.062Z" transform="translate(-672.073 -170.593)" fill="#b1e0b2"/></g></g><g transform="translate(626.499 323.614)"><path d="M711.656,403.989c-10.114-23.16-21.031-45.715-37.681-64.986a145.476,145.476,0,0,0-22.891-20.886c-7.542-5.64-15.887-8.615-24.316-12.513-.515-.235-.221-1.04.3-1.022,17.739.622,34.745,18.118,46.216,30.067,18.3,19.065,29.17,44.9,38.946,69.025.155.38-.4.705-.573.315Z" transform="translate(-626.499 -304.582)" fill="#5c995c"/><g transform="translate(0.316 0.403)"><path d="M627.3,304.98c8.678,2.962,16.2,4.895,23.7,10.367a94.108,94.108,0,0,1,18.378,18.447c11.709,15.109,17.561,30.94,21.916,49.238.071.287-.332.365-.435.1-3.019-7.961-5.016-16.237-8.506-24.027-3.307-7.387-8.127-14.455-12.667-21.132A103.54,103.54,0,0,0,652.223,318.9c-7.492-6.618-16.177-9.265-25.159-13.125-.476-.205-.291-.975.231-.8Z" transform="translate(-626.79 -304.954)" fill="#5c995c"/></g><g transform="translate(27.435 12.853)"><path d="M652.486,316.51c15.791,10.252,30.64,23.967,43.382,37.733,13.337,14.415,22.458,30.612,27.058,49.806.117.489-.637.814-.852.325-3.4-7.645-5.733-15.692-9.194-23.328-4.364-9.637-11.411-17.642-18.523-25.328a238.628,238.628,0,0,0-20.639-19.544c-7.249-6.184-13.968-13.327-21.719-18.847-.5-.35-.033-1.154.486-.817Z" transform="translate(-651.788 -316.429)" fill="#5c995c"/></g><g transform="translate(64.479 56.462)"><path d="M686.808,356.764c10.378,9.016,19.548,23.795,23.439,36.918a.326.326,0,0,1-.6.233c-6.5-12.405-13.679-26.415-23.561-36.447-.462-.465.242-1.126.723-.7Z" transform="translate(-685.935 -356.629)" fill="#5c995c"/></g><g transform="translate(56.39 36.603)"><path d="M679.319,338.375c18.283,8.047,30.9,20.686,43.043,36.18.316.4-.192.928-.572.562-6.07-5.844-11.506-12.294-17.548-18.166-7.286-7.069-16.647-12.7-25.486-17.629-.635-.358-.063-1.222.563-.948Z" transform="translate(-678.479 -338.323)" fill="#5c995c"/></g><g transform="translate(37.65 25.447)"><path d="M661.952,328.238c6.8,10.7,10.232,23.718,14.605,35.532.2.537-.6.745-.878.338-7.212-10.465-9.084-24.054-14.431-35.484a.4.4,0,0,1,.7-.386Z" transform="translate(-661.204 -328.039)" fill="#5c995c"/></g><path d="M721.016,396.094a3.8,3.8,0,1,0-1.492,5.17A3.8,3.8,0,0,0,721.016,396.094Z" transform="translate(-619.085 -296.985)" fill="#5c995c"/><path d="M721.707,369.682a3.8,3.8,0,1,0-1.492,5.167A3.806,3.806,0,0,0,721.707,369.682Z" transform="translate(-619.027 -299.226)" fill="#5c995c"/><path d="M712.651,388.2a3.8,3.8,0,1,0-1.492,5.167A3.8,3.8,0,0,0,712.651,388.2Z" transform="translate(-619.795 -297.655)" fill="#5c995c"/><path d="M709.523,395.68a3.8,3.8,0,1,0-1.492,5.169A3.805,3.805,0,0,0,709.523,395.68Z" transform="translate(-620.06 -297.02)" fill="#5c995c"/><path d="M690.1,374.106a3.8,3.8,0,1,0-1.491,5.169A3.8,3.8,0,0,0,690.1,374.106Z" transform="translate(-621.708 -298.85)" fill="#5c995c"/><path d="M678.313,359.089a3.8,3.8,0,1,0-1.494,5.168A3.8,3.8,0,0,0,678.313,359.089Z" transform="translate(-622.708 -300.124)" fill="#5c995c"/></g><g transform="translate(662.892 59.747)"><path d="M786.091,85.169a.655.655,0,0,0-.371.073c-14.5,8.77-32.893,6.494-48.485,2.472-13.587-3.5-26.4-9.891-40.79-6.511-10.079,2.372-23.348,7.787-26.662,18.829-1.747,5.813-1.325,11.3.123,17.145.122.482,3.7,8.385,5.793,10.347a42.8,42.8,0,0,0-10.78,6.905c-.777.7.228,2.163,1.157,1.708,3.806-1.857,7.493-3.537,11.2-5.015,6.664,13.178,13.816,24.712,28.053,30.5,11.146,4.533,23.9,3.058,34.921-.939,29.1-10.558,41.765-47.366,47.237-75.031A.751.751,0,0,0,786.091,85.169Z" transform="translate(-658.051 -80.247)" fill="#76995c"/><g transform="translate(0 18.069)"><path d="M773.617,93.007c-16.6,12.889-40.742,15.1-60.728,18.641-16.844,2.983-42.076,5.676-52.5,21.016a1.68,1.68,0,0,0,2.2,2.478c9.752-5.326,18.393-10.426,29.207-13.521,10.719-3.066,21.822-4.7,32.74-6.862,18.866-3.746,34.18-9.5,49.968-20.426.852-.588-.083-1.95-.889-1.325Z" transform="translate(-660.046 -92.846)" fill="#5a7c40"/></g><g transform="translate(16.531 12.289)"><path d="M710.96,88.891c-13.231,7.987-32.942,20.489-39.314,35.261a.894.894,0,0,0,1.3,1.116c6.191-4.364,10.8-11.241,16.055-16.708a135.084,135.084,0,0,1,22.5-18.869c.521-.346-.01-1.12-.541-.8Z" transform="translate(-671.573 -88.815)" fill="#5a7c40"/></g><g transform="translate(47.63 19.77)"><path d="M716.205,94.138c-4.572,3.362-9.264,6.531-13.783,9.977-3.4,2.593-7.581,5.094-9.128,9.227-.153.409.2.974.687.766,3.927-1.705,6.491-5.374,9.665-8.173,4.269-3.763,8.741-7.327,13.148-10.922.518-.423-.034-1.281-.588-.875Z" transform="translate(-693.258 -94.032)" fill="#5a7c40"/></g><g transform="translate(79.967 19.291)"><path d="M732.837,93.754c-5.754,2.933-15.109,8.345-17.016,14.982-.1.344.327.516.581.379,2.779-1.493,4.734-3.95,6.981-6.118a123.838,123.838,0,0,1,9.921-8.54.422.422,0,0,0-.467-.7Z" transform="translate(-715.805 -93.698)" fill="#5a7c40"/></g><g transform="translate(79.985 31.836)"><path d="M735.666,103.7c-4.021.359-7.7-.369-11.654-.915-2.564-.356-6.141-.888-8.063,1.175a.541.541,0,0,0,.057.764c2.285,1.668,6.079,1.007,8.76.9a59.343,59.343,0,0,0,11.017-1.337c.341-.079.215-.615-.118-.585Z" transform="translate(-715.819 -102.445)" fill="#5a7c40"/></g><g transform="translate(46.7 39.249)"><path d="M742.1,116.616a173.191,173.191,0,0,1-24.248-1.705,87.07,87.07,0,0,1-10.7-2.3c-4.965-1.357-8.49-4.723-13.554-5-.621-.036-1.316.632-.823,1.251,10.6,13.3,34.745,9.358,49.353,8.167a.209.209,0,0,0-.03-.417Z" transform="translate(-692.609 -107.614)" fill="#5a7c40"/></g><g transform="translate(19.219 47.34)"><path d="M736.593,130.153c-21.412,1.037-42.952-4.439-60.809-16.629-1.06-.723-2.775.1-2.234,1.516,3.141,8.3,16.805,10.271,24.577,12.453,12.367,3.472,25.753,5.235,38.508,3.228a.285.285,0,0,0-.042-.568Z" transform="translate(-673.447 -113.256)" fill="#5a7c40"/></g></g></g><g transform="translate(451.132 1656.547)"><g transform="translate(1385.01 473.249)"><path d="M1383.541,507.145c9.488-14.875,25.907,2.959,34.959,14.813a273.589,273.589,0,0,1-16.717-44.12,1.212,1.212,0,0,1-.879-.17c-2.679-1.8-4.6-1.2-7.689-1.074-3.821.163-7.831-1.711-10.987-3.7-4.817-3.035-6.88-11.292-2.062-15.412,4.382-3.746,10.043-2,14.641,1.9-4.753-4.336-9.347-9.518-11.008-15.7-1.5-5.608,2.628-12.789,8.927-12.408,6.114.369,11.515,5.054,11.368,11.49-.128,5.642-4.407,10.546-5.576,15.818a9.441,9.441,0,0,1,.417,1.646,1.109,1.109,0,0,1-.009.363q.946,3.185,1.954,6.36a17.806,17.806,0,0,1,2.1,6.444q2.845,8.481,6.121,16.833c.049-10.046,3.086-21.854,14.393-19.527,7.914,1.627,12.174,8.27,10.46,15.994-.786,3.543-3.675,7.158-7.182,8.218a34.087,34.087,0,0,1-7.473,1.034,16.82,16.82,0,0,0-6.957,2.239,268.6,268.6,0,0,0,22.469,42.526c.622.949,1.274,1.875,1.918,2.812-2.833-10.94-2.394-23.041,7.523-28.018,9.144-4.59,19.445,3.109,21.42,11.953,1.185,5.3-1.274,10.531-4.927,14.173-2.215,2.207-5.467,3.533-8.243,4.828-4.333,2.023-5.767,4.391-7.458,8.174a151.216,151.216,0,0,0,21.752,21.727,107.118,107.118,0,0,0,19.813,12.275,62,62,0,0,1-9.888-18.45c-3.731-10.939-2.117-21.953,5.64-30.51,7.967-8.792,20.854-.519,23.73,8.543,2.309,7.268,1.461,13.79-1.073,20.878-3.035,8.488-10.205,15.425-7.162,24.962,0,.014,0,.028,0,.039,3.06,1.478,6.125,2.982,9.165,4.6.769.41.232,1.565-.537,1.509-11.844-.876-23.165-5.643-33.539-12.517-10.5,5.279-12.759,23.086-27.175,21.874-8.364-.706-17.333-6.225-17.441-15.643-.112-9.512,4.707-15.89,13.776-18.581,5.532-1.642,11.42-.572,17.07,1.61a176.068,176.068,0,0,1-26.5-30.591c-2.942-4.272-5.656-8.664-8.209-13.135a1.855,1.855,0,0,1-.76-.228c-5.3-2.979-13.514,2.282-19.491,2.89-5.415.555-11.508.242-16.446-2.287C1377.336,528.253,1377.829,516.107,1383.541,507.145Z" transform="translate(-1377.422 -431.267)" fill="#5c995c"/><g transform="translate(14.359 7.286)"><path d="M1391.15,438.075c5.77,16.814,12.57,33.359,18.446,50.179,6.144,17.584,13.071,34.312,23.565,49.8,9.921,14.637,22.559,27.316,35.9,38.818a82.508,82.508,0,0,0,21.176,13.376c5.983,2.61,12.539,3.424,17.907,7.248a1.7,1.7,0,0,1-.659,3.058c-12.435,1.969-26.932-6.826-36.681-13.783-14.617-10.429-27.594-24.531-38.55-38.632-25-32.175-32.831-71.195-41.844-109.827-.1-.424.594-.651.737-.234Z" transform="translate(-1390.404 -437.854)" fill="#407c40"/></g><g transform="translate(105.531 127.869)"><path d="M1473.993,547.345a98.06,98.06,0,0,0,5.52,20.222c2.5,6.029,7.408,9.932,10.176,15.481.366.732-.272,1.886-1.175,1.689-13.294-2.9-14.454-26.731-15.674-37.192a.585.585,0,0,1,1.152-.2Z" transform="translate(-1472.836 -546.876)" fill="#407c40"/></g><g transform="translate(64.1 152.28)"><path d="M1435.535,580.071c8.544-9.357,25.336-15.788,36.686-6.842a.707.707,0,0,1-.272,1.266c-4.39,1.063-8.422-.783-12.8-1.428-8.517-1.254-16.77,2.054-22.889,7.84-.529.5-1.187-.324-.72-.836Z" transform="translate(-1435.376 -568.947)" fill="#407c40"/></g><g transform="translate(61.341 95.394)"><path d="M1439.99,518.261c-2.668,5.142-4.11,10.218-3.556,16.049.457,4.807,3.117,8.991,3.334,13.745a.821.821,0,0,1-1.258.811c-10.132-6.75-4.5-23.193.7-31.135.339-.523,1.047.009.776.531Z" transform="translate(-1432.882 -517.515)" fill="#407c40"/></g><g transform="translate(20.498 81.577)"><path d="M1396.341,505.033c12.137,3.063,23.728,6.367,27.148,19.677.093.362-.462.641-.678.321-6.136-9.057-16.638-15.615-26.667-19.445a.293.293,0,0,1,.2-.552Z" transform="translate(-1395.954 -505.022)" fill="#407c40"/></g><g transform="translate(32.278 44.198)"><path d="M1417.37,471.976a31.524,31.524,0,0,0-6.122,10.6c-1.421,4.147-.984,8.6-1.778,12.86a.443.443,0,0,1-.834.15c-5.488-8.938,1.155-18.517,8.015-24.25.409-.342,1.092.216.719.643Z" transform="translate(-1406.606 -471.227)" fill="#407c40"/></g><g transform="translate(8.668 27.586)"><path d="M1385.784,456.249c9.318,4.629,15.908,12.045,18.39,22.047a.556.556,0,0,1-.962.455c-5.666-7.226-10.209-16.375-17.793-21.785-.361-.261-.059-.929.365-.717Z" transform="translate(-1385.259 -456.208)" fill="#407c40"/></g></g><g transform="translate(1302.694 585.478) rotate(-31)"><path d="M1381.115,494.141a.5.5,0,0,1,.053.288c-2.178,12.883,4.674,25.431,11.981,35.474,6.366,8.749,14.583,16.127,16.24,27.4,1.159,7.9,1.039,18.953-5.939,24.462-3.674,2.9-7.726,4.155-12.332,4.775-.378.051-7.063-.276-9.063-1.218a33,33,0,0,1-1.9,9.688.827.827,0,0,1-1.551-.345c.251-3.256.409-6.376.418-9.454-11.341-1.041-21.643-2.9-29.831-11.467-6.414-6.707-8.973-16.276-9.232-25.31-.682-23.866,22.123-43.39,40.411-55.161C1380.939,492.911,1381.491,493.65,1381.115,494.141Z" transform="translate(-1339.947 -493.179)" fill="#76995c"/><g transform="translate(32.029 14.389)"><path d="M1372.606,506.913c-4.536,15.559.728,33.5,3.859,48.841,2.636,12.925,7.864,31.785-.182,43.609a1.294,1.294,0,0,1-2.4-.873c1.053-8.505,2.259-16.148,1.409-24.783-.839-8.556-2.822-16.981-4.364-25.427-2.663-14.592-2.885-27.206.474-41.629.18-.779,1.425-.494,1.2.262Z" transform="translate(-1368.906 -506.189)" fill="#5a7c40"/></g><g transform="translate(40.964 54.353)"><path d="M1392.308,542.763c-1.974,11.756-5.349,29.44-14.134,38.2a.69.69,0,0,1-1.17-.614c1.374-5.677,5-10.935,7.428-16.253a104.184,104.184,0,0,0,7.152-21.489.371.371,0,0,1,.724.159Z" transform="translate(-1376.984 -542.321)" fill="#5a7c40"/></g><g transform="translate(38.726 45.941)"><path d="M1382.978,535.189c-1.113,4.233-2.055,8.5-3.245,12.714-.895,3.175-1.5,6.883-4.028,9.166-.249.226-.757.128-.743-.275.108-3.3,2.012-6.182,3.12-9.25,1.487-4.13,2.774-8.348,4.1-12.53.156-.49.927-.336.793.176Z" transform="translate(-1374.961 -534.716)" fill="#5a7c40"/></g><g transform="translate(33.273 26.932)"><path d="M1376.386,517.914c-.472,4.957-1.7,13.2-5.917,16.453-.22.168-.465-.09-.437-.309.282-2.416,1.49-4.515,2.408-6.742a95.071,95.071,0,0,0,3.31-9.538.325.325,0,0,1,.636.136Z" transform="translate(-1370.03 -517.529)" fill="#5a7c40"/></g><g transform="translate(28.517 29.026)"><path d="M1366.185,519.579c.884,2.985,2.45,5.417,3.962,8.1.982,1.735,2.378,4.151,1.446,6.115a.418.418,0,0,1-.565.176c-1.846-1.166-2.449-4.075-3.129-6.029a45.7,45.7,0,0,1-2.164-8.279c-.041-.267.377-.33.451-.081Z" transform="translate(-1365.73 -519.422)" fill="#5a7c40"/></g><g transform="translate(18.813 35.988)"><path d="M1357.274,525.824a133.463,133.463,0,0,0,8.1,16.9,67.566,67.566,0,0,0,4.683,7.02c2.382,3.177,5.8,4.75,7.43,8.3.2.435-.082,1.122-.664.946-12.548-3.834-16.567-22.265-19.857-33.078a.162.162,0,0,1,.309-.1Z" transform="translate(-1356.957 -525.717)" fill="#5a7c40"/></g><g transform="translate(11.16 50.394)"><path d="M1350.464,538.893a76.578,76.578,0,0,0,29.173,38.892c.82.555.721,2.017-.451,2.034-6.844.1-12.133-9.139-15.9-14.093-6-7.885-11.059-16.985-13.24-26.7a.22.22,0,0,1,.419-.13Z" transform="translate(-1350.038 -538.741)" fill="#5a7c40"/></g></g><g transform="translate(1338.834 279.701)"><path d="M1322.764,329.851c-4.381,4.551-5.125,11.274,1.662,14.076,9.871,4.074,22.256,1.8,32.49.708,13.974-1.489,27.955.115,41.912-1.149,12.551-1.137,21.6-7.458,29.948-16.013,7.465-.051,14.668-1.3,20.6-5.788a.477.477,0,0,0-.372-.835c-6.3.952-12.008,2.583-18.06,3.4,1.612-8.192-2.287-15.259-9.254-20.1-9.234-6.419-22.928-5.531-33.576-5.029a84.562,84.562,0,0,0-38.971,11.283C1339.958,315.71,1330.172,322.15,1322.764,329.851Z" transform="translate(-1319.399 -298.769)" fill="#76995c"/><g transform="translate(14.871 22.802)"><path d="M1333.145,333.121c15.832-5.644,31.7-10.468,48.58-11.319a191.381,191.381,0,0,1,25.963.608c5.235.449,12.461,3.05,17.394.483a.814.814,0,0,0-.452-1.542c-6.873.534-13.832-1.156-20.7-1.625a179.7,179.7,0,0,0-24.514.174c-16.32,1.112-31.543,6.352-46.447,12.825-.256.113-.083.488.174.4Z" transform="translate(-1332.845 -319.385)" fill="#c4e0b1"/></g><g transform="translate(76.806 25.063)"><path d="M1389.052,335.484c8.639-4.02,19.627-6.309,26.778-12.851a.675.675,0,0,0-.695-1.137,239.774,239.774,0,0,0-26.236,13.739c-.143.09.006.316.153.249Z" transform="translate(-1388.842 -321.43)" fill="#c4e0b1"/></g><g transform="translate(54.596 23.783)"><path d="M1368.972,338.531c9.174-6.444,19.725-10.783,28.834-17.242.547-.387-.014-1.214-.6-.973-5.466,2.25-10.411,5.875-15.486,8.887a85.063,85.063,0,0,0-12.914,9.13.129.129,0,0,0,.164.2Z" transform="translate(-1368.761 -320.272)" fill="#c4e0b1"/></g><g transform="translate(35.475 24.546)"><path d="M1351.739,337.455c6.911-5.18,14.156-11.079,21.742-15.193a.682.682,0,0,0-.55-1.247c-3.562,1.37-6.155,4.227-9.084,6.582-4.061,3.264-8.352,6.215-12.316,9.6a.163.163,0,0,0,.207.252Z" transform="translate(-1351.473 -320.962)" fill="#c4e0b1"/></g><g transform="translate(24.007 28.78)"><path d="M1341.385,335.5c2.043-1.93,4.086-3.85,6.194-5.71,1.831-1.616,3.848-2.918,5.453-4.773.105-.119-.056-.26-.177-.218-4.849,1.628-8.817,6.427-11.72,10.468-.109.154.107.369.25.233Z" transform="translate(-1341.105 -324.79)" fill="#c4e0b1"/></g><g transform="translate(16.411 26.687)"><path d="M1334.418,323.45a87.589,87.589,0,0,0,11.2,2.462c3.141.449,6.616.983,9.428-.8.1-.064.039-.237-.074-.243-3.4-.184-6.747.216-10.144-.2-3.452-.428-6.845-1.251-10.282-1.764-.316-.048-.441.461-.128.549Z" transform="translate(-1334.237 -322.898)" fill="#c4e0b1"/></g><g transform="translate(30.701 15.116)"><path d="M1347.229,312.651c6.1,2.013,11.727,5.032,17.595,7.6,2.972,1.3,7.725,3.387,10.883,1.735.259-.137.247-.6-.1-.609-10.014-.253-18.862-6.059-28.3-8.936-.137-.042-.217.164-.078.209Z" transform="translate(-1347.157 -312.436)" fill="#c4e0b1"/></g><g transform="translate(62.199 13.066)"><path d="M1375.7,310.85c4.179,2.3,8.136,4.951,12.213,7.423,2.847,1.728,6.13,3.785,9.538,3.608a.339.339,0,0,0,.142-.607c-3.48-2.219-7.863-3.278-11.553-5.268-3.41-1.837-6.651-3.855-10.2-5.411-.149-.066-.283.176-.136.255Z" transform="translate(-1375.635 -310.583)" fill="#c4e0b1"/></g><g transform="translate(81.297 7.121)"><path d="M1392.932,305.329a132.193,132.193,0,0,1,17,13.431c2.272,2.132,5.384,5.987,8.845,5.329a.676.676,0,0,0,.132-1.293c-3.795-1.449-6.362-4.057-9.4-6.636a93.038,93.038,0,0,0-16.492-10.942c-.076-.04-.157.062-.082.112Z" transform="translate(-1392.902 -305.208)" fill="#c4e0b1"/></g></g><g transform="translate(1273.338 279.509)"><path d="M1343.538,278.42c4.452-19.447,28.717-6.691,42.863,2.5a309.332,309.332,0,0,1-34.571-40.642,1.362,1.362,0,0,1-1,.154c-3.54-.9-5.363.467-8.6,1.776-4.009,1.625-8.991,1.154-13.108.238-6.284-1.4-11.619-9.413-8.052-15.632,3.243-5.656,9.938-5.948,16.318-3.536-6.711-2.813-13.572-6.587-17.689-12.538-3.735-5.4-2.062-14.619,4.792-16.607,6.653-1.929,14.187,1.006,16.475,7.918,2.006,6.058-.687,12.908.07,18.966a10.872,10.872,0,0,1,1.072,1.595,1.3,1.3,0,0,1,.126.39q2.219,3.032,4.5,6.03a20.158,20.158,0,0,1,4.689,6.066q6.253,7.949,12.916,15.6c-3.764-10.718-5.017-24.448,7.913-26.269,9.044-1.271,16.106,4.186,17.217,13.063.507,4.073-1.193,9.023-4.526,11.484a38.634,38.634,0,0,1-7.569,3.94,19.023,19.023,0,0,0-6.558,5.027,303.535,303.535,0,0,0,40.092,36.758c1.022.774,2.069,1.512,3.111,2.266-7.174-10.575-11.3-23.632-2.633-32.7,7.994-8.363,21.893-4.078,27.356,4.593,3.275,5.2,2.645,11.7.138,16.966-1.522,3.193-4.483,5.841-6.948,8.276-3.846,3.8-4.472,6.868-4.837,11.537a170.931,170.931,0,0,0,31.425,14.879,121.15,121.15,0,0,0,25.768,5.545,70.129,70.129,0,0,1-17.544-15.9c-8.129-10.231-10.594-22.576-5.585-34.638,5.146-12.392,22.014-8.475,28.522.081,5.221,6.864,6.8,14.133,6.789,22.646-.007,10.194-5.009,20.307,1.856,29.309.01.015.011.03.02.041,3.821.41,7.656.847,11.51,1.42.976.145.842,1.577,0,1.811-12.947,3.566-26.817,2.79-40.477-.589-9.182,9.614-4.819,29.439-20.634,33.624-9.177,2.427-20.828-.044-24.523-10.034-3.732-10.088-1.022-18.714,7.612-25.025,5.269-3.854,11.947-4.949,18.794-4.772a199.033,199.033,0,0,1-39.85-22.513c-4.757-3.432-9.318-7.077-13.735-10.872a2.1,2.1,0,0,1-.9.045c-6.782-1.156-13.527,7.567-19.662,10.487-5.556,2.648-12.165,4.63-18.385,3.811C1344.948,303.262,1340.86,290.136,1343.538,278.42Z" transform="translate(-1317.757 -193.547)" fill="#5c9984"/><g transform="translate(8.617 8.495)"><path d="M1325.4,200.478c12.536,15.717,26.064,30.756,38.714,46.438,13.225,16.4,26.958,31.58,44.02,44.088,16.128,11.82,34.408,20.52,52.991,27.7a93.392,93.392,0,0,0,27.639,6.2c7.363.507,14.657-1.117,21.825.914a1.925,1.925,0,0,1,.46,3.508c-12.5,6.823-31.278,2.963-44.306-.743-19.532-5.555-38.713-15.645-55.739-26.5-38.857-24.769-62.022-63.356-86.3-101.08-.266-.413.383-.919.694-.529Z" transform="translate(-1324.646 -200.338)" fill="#407c67"/></g><g transform="translate(151.606 102.205)"><path d="M1440.194,275.589c4.037,6.956,8.112,13.421,13.562,19.441,4.957,5.471,11.665,7.764,16.722,12.624a1.348,1.348,0,0,1-.61,2.244c-15.261,1.964-25.552-22.98-30.826-33.658a.662.662,0,0,1,1.152-.652Z" transform="translate(-1438.964 -275.259)" fill="#407c67"/></g><g transform="translate(120.909 133.616)"><path d="M1414.478,322.764c5.547-13.213,20.986-26.444,36.476-21.226a.8.8,0,0,1,.191,1.451c-4.27,2.8-9.27,2.366-14.18,3.345-9.548,1.9-17.081,8.559-21.4,17.048-.374.733-1.387.1-1.086-.618Z" transform="translate(-1414.423 -300.372)" fill="#407c67"/></g><g transform="translate(97.598 82.108)"><path d="M1398.058,259.854c-.887,6.49-.5,12.445,2.311,18.445,2.313,4.947,6.736,8.393,8.772,13.373a.928.928,0,0,1-1.031,1.342c-13.357-3.341-13.6-22.995-11.079-33.431.163-.687,1.117-.39,1.027.27Z" transform="translate(-1395.785 -259.192)" fill="#407c67"/></g><g transform="translate(43.359 84.612)"><path d="M1352.74,261.927c14.091-1.351,27.694-2.235,36.393,10.642.235.35-.248.859-.6.6-9.978-7.317-23.656-10.312-35.792-10.579a.332.332,0,0,1,0-.663Z" transform="translate(-1352.422 -261.194)" fill="#407c67"/></g><g transform="translate(47.247 37.229)"><path d="M1361.64,223.98a35.591,35.591,0,0,0-2.493,13.615c.061,4.954,2.219,9.532,2.991,14.372a.5.5,0,0,1-.832.478c-9.241-7.436-5.806-20.164-.676-28.875.307-.522,1.246-.188,1.01.41Z" transform="translate(-1355.531 -223.311)" fill="#407c67"/></g><g transform="translate(10.28 32.308)"><path d="M1326.417,219.381c11.684,1.388,21.521,6.784,27.965,16.494a.628.628,0,0,1-.852.851c-8.781-5.545-17.1-13.564-27.23-16.443-.481-.14-.414-.968.116-.9Z" transform="translate(-1325.976 -219.377)" fill="#407c67"/></g></g><g transform="translate(1364.516 121.178)"><path d="M1359.855,141.776a.5.5,0,0,1,.288-.053c12.883,2.178,25.431-4.674,35.474-11.981,8.749-6.366,16.127-14.583,27.4-16.24,7.9-1.159,18.953-1.039,24.463,5.939,2.9,3.674,4.154,7.726,4.774,12.332.051.379-.277,7.064-1.218,9.063a33,33,0,0,1,9.688,1.9.827.827,0,0,1-.344,1.551c-3.257-.251-6.378-.409-9.456-.418-1.041,11.341-2.9,21.643-11.466,29.831-6.708,6.414-16.278,8.973-25.311,9.232-23.866.682-43.39-22.123-55.16-40.411C1358.625,141.951,1359.364,141.4,1359.855,141.776Z" transform="translate(-1358.893 -112.952)" fill="#5c995c"/><g transform="translate(14.39 26.287)"><path d="M1372.627,144.694c15.559,4.536,33.5-.727,48.841-3.859,12.925-2.636,31.786-7.864,43.609.184a1.294,1.294,0,0,1-.873,2.4c-8.505-1.053-16.148-2.259-24.782-1.409-8.557.839-16.982,2.822-25.428,4.364-14.592,2.664-27.205,2.885-41.628-.475-.779-.179-.5-1.423.261-1.2Z" transform="translate(-1371.903 -136.718)" fill="#407c40"/></g><g transform="translate(54.354 13.697)"><path d="M1408.477,125.342c11.756,1.974,29.44,5.349,38.2,14.134a.69.69,0,0,1-.614,1.17c-5.676-1.374-10.936-5-16.253-7.428a104.247,104.247,0,0,0-21.489-7.152.371.371,0,0,1,.159-.724Z" transform="translate(-1408.036 -125.335)" fill="#407c40"/></g><g transform="translate(45.941 23.233)"><path d="M1400.9,133.972c4.233,1.114,8.5,2.055,12.714,3.245,3.175.895,6.884,1.5,9.166,4.028.226.249.128.757-.275.743-3.3-.108-6.182-2.012-9.25-3.12-4.13-1.487-8.348-2.774-12.529-4.1-.491-.157-.337-.928.175-.794Z" transform="translate(-1400.43 -133.957)" fill="#407c40"/></g><g transform="translate(26.932 30.361)"><path d="M1383.628,140.4c4.958.472,13.2,1.7,16.454,5.917.168.22-.09.465-.309.437-2.416-.282-4.515-1.49-6.742-2.408a94.779,94.779,0,0,0-9.538-3.309.326.326,0,0,1,.136-.637Z" transform="translate(-1383.243 -140.401)" fill="#407c40"/></g><g transform="translate(29.026 35.306)"><path d="M1385.293,150.587c2.985-.884,5.417-2.45,8.1-3.962,1.735-.982,4.151-2.378,6.115-1.446a.418.418,0,0,1,.176.565c-1.166,1.846-4.075,2.449-6.029,3.129a45.666,45.666,0,0,1-8.279,2.165c-.266.041-.33-.377-.081-.451Z" transform="translate(-1385.136 -144.872)" fill="#407c40"/></g><g transform="translate(35.988 30.585)"><path d="M1391.539,160.88a133.454,133.454,0,0,0,16.9-8.1,67.6,67.6,0,0,0,7.021-4.683c3.177-2.382,4.749-5.8,8.3-7.43.435-.2,1.122.082.946.664-3.833,12.548-22.265,16.567-33.077,19.857a.162.162,0,0,1-.1-.309Z" transform="translate(-1391.431 -140.604)" fill="#407c40"/></g><g transform="translate(50.394 28.697)"><path d="M1404.606,168.605a76.566,76.566,0,0,0,38.892-29.173c.555-.82,2.017-.72,2.034.451.1,6.844-9.139,12.133-14.093,15.9-7.885,6-16.986,11.059-26.7,13.239a.22.22,0,0,1-.13-.419Z" transform="translate(-1404.455 -138.897)" fill="#407c40"/></g></g><g transform="translate(1403.969 365.264)"><g transform="translate(7.414 9.802)"><path d="M1427.21,364.2c-1.243-4.068-.529-7.858.8-11.8.118-.35-.356-.757-.643-.446-5.364,5.82-2.393,13.445,1.42,19.461a57.351,57.351,0,0,1-8.368-8.386,98.8,98.8,0,0,1-6.779-9.6,30.052,30.052,0,0,1,.055-7.689.373.373,0,0,0-.675-.241,7.87,7.87,0,0,0-1.144,4.992q-2.191-3.794-4.068-7.741a.458.458,0,0,0-.829.386c.528,1.264,1.081,2.567,1.661,3.9a10.845,10.845,0,0,0-5.314-.94c-.383.028-.37.58-.054.7,1.17.444,2.417.661,3.612,1.034a9.059,9.059,0,0,1,2.856,1.669,98.919,98.919,0,0,0,7.1,13.2,32.924,32.924,0,0,0-15.168-5.055.39.39,0,0,0-.159.754c2.837,1.234,5.854,2.007,8.783,2.993a44.262,44.262,0,0,1,8.881,4.632c4.83,6.392,10.869,11.518,18.619,13.234.562.125,1.043-.6.491-.96-2.439-1.61-4.778-3.222-7.018-4.92A50.287,50.287,0,0,1,1427.21,364.2Z" transform="translate(-1401.266 -342.497)" fill="#5c995c"/></g><path d="M1403.757,354a5.53,5.53,0,1,1-7.7,1.394A5.53,5.53,0,0,1,1403.757,354Z" transform="translate(-1394.509 -331.58)" fill="#5c995c"/><path d="M1403.245,342.239a5.53,5.53,0,1,1-7.7,1.391A5.53,5.53,0,0,1,1403.245,342.239Z" transform="translate(-1394.563 -332.828)" fill="#5c995c"/><path d="M1409.591,334.622a5.53,5.53,0,1,1-7.7,1.393A5.53,5.53,0,0,1,1409.591,334.622Z" transform="translate(-1393.89 -333.635)" fill="#5c995c"/><path d="M1418.456,340.922a5.53,5.53,0,1,1-7.7,1.394A5.53,5.53,0,0,1,1418.456,340.922Z" transform="translate(-1392.95 -332.967)" fill="#5c995c"/><path d="M1429.448,348.544a5.531,5.531,0,1,1-7.7,1.392A5.53,5.53,0,0,1,1429.448,348.544Z" transform="translate(-1391.785 -332.159)" fill="#5c995c"/><g transform="translate(2.044 28.204)"><path d="M1402.293,361.413a3.364,3.364,0,0,1-2.818-.359,7.148,7.148,0,0,1-1.05-.908c-.3-.32-.437-.675-.835-.9a.745.745,0,0,0-1.114.362c-.379,1.336.973,2.266,2.076,2.656a5.908,5.908,0,0,0,3.934-.248c.332-.138.157-.7-.194-.605Z" transform="translate(-1396.411 -359.135)" fill="#b1e0b2"/></g><g transform="translate(1.887 25.663)"><path d="M1397.492,358.484c-.158-.573-.036-1.087-.463-1.546a.277.277,0,0,0-.389-.034,1.61,1.61,0,0,0-.127,1.891c.221.54,1.138.259.98-.311Z" transform="translate(-1396.27 -356.837)" fill="#b1e0b2"/></g><g transform="translate(0.775 13.349)"><path d="M1401.657,349.988a4.861,4.861,0,0,1-3.221-1.03c-.954-.685-1.014-1.791-1.494-2.765a.877.877,0,0,0-1.657.3,3.841,3.841,0,0,0,2.013,3.5c1.185.83,3.02.718,4.391.6a.3.3,0,0,0-.032-.6Z" transform="translate(-1395.264 -345.704)" fill="#b1e0b2"/></g><g transform="translate(1.544 11.714)"><path d="M1396.432,345.635c.173-.438.5-.7.439-1.194a.272.272,0,0,0-.377-.2c-.559.2-.542.779-.532,1.291a.243.243,0,0,0,.47.1Z" transform="translate(-1395.959 -344.226)" fill="#b1e0b2"/></g><g transform="translate(8.943 1.683)"><path d="M1403.185,338.8a4.952,4.952,0,0,1,1.426-2.1c.392-.362,1.066-.728.649-1.325a.583.583,0,0,0-.566-.207c-1.643.384-1.94,2.093-2.044,3.525a.277.277,0,0,0,.535.112Z" transform="translate(-1402.649 -335.156)" fill="#b1e0b2"/></g><g transform="translate(11.675 2.048)"><path d="M1405.22,335.572a.055.055,0,0,0-.091-.062.055.055,0,0,0,.091.062Z" transform="translate(-1405.119 -335.487)" fill="#b1e0b2"/></g><g transform="translate(12.235 1.625)"><path d="M1406.073,335.9c.575-.084,1.18-.1,1.762-.149.174-.013.168-.262.025-.316a3.53,3.53,0,0,0-1.923-.3c-.5.072-.358.837.136.764Z" transform="translate(-1405.625 -335.105)" fill="#b1e0b2"/></g><g transform="translate(20.576 7.502)"><path d="M1413.4,341.082a4.17,4.17,0,0,1,2.576,1.092c.728.539,1.074,1.312,2.02,1.5.539.105.918-.406,1-.859.243-1.262-1.23-1.952-2.219-2.213a9.076,9.076,0,0,0-3.408-.028c-.289.034-.269.524.026.513Z" transform="translate(-1413.167 -340.418)" fill="#b1e0b2"/></g><g transform="translate(25.787 12.471)"><path d="M1418.1,345.121a1.547,1.547,0,0,0-.21.509.51.51,0,0,0,.962.336,2.249,2.249,0,0,0,.1-.409.486.486,0,0,0-.855-.436Z" transform="translate(-1417.878 -344.91)" fill="#b1e0b2"/></g><g transform="translate(31.209 16.417)"><path d="M1423.488,350.655a2.571,2.571,0,0,1,2.32-.272c.808.209,1.669.805,2.522.622a.755.755,0,0,0,.542-1.043c-.408-1.094-2.058-1.456-3.091-1.482a3.522,3.522,0,0,0-2.911,1.61c-.311.373.263.873.618.565Z" transform="translate(-1422.78 -348.478)" fill="#b1e0b2"/></g><g transform="translate(38.571 19.937)"><path d="M1429.441,352.014a1.34,1.34,0,0,0,.3,1.041.2.2,0,0,0,.342-.061,4.786,4.786,0,0,0,.147-.918c.081-.5-.765-.58-.792-.062Z" transform="translate(-1429.437 -351.661)" fill="#b1e0b2"/></g></g><g transform="translate(1420.559 190.509)"><g transform="translate(7.414 9.802)"><path d="M1442.21,206.2c-1.243-4.068-.529-7.858.8-11.8.118-.35-.356-.757-.643-.446-5.364,5.82-2.393,13.445,1.42,19.461a57.347,57.347,0,0,1-8.368-8.386,98.779,98.779,0,0,1-6.779-9.6,30.051,30.051,0,0,1,.055-7.689.373.373,0,0,0-.675-.241,7.871,7.871,0,0,0-1.144,4.992q-2.192-3.794-4.068-7.741a.458.458,0,0,0-.83.386c.528,1.264,1.081,2.567,1.661,3.9a10.845,10.845,0,0,0-5.313-.94c-.383.028-.37.58-.054.7,1.17.444,2.417.661,3.612,1.034a9.059,9.059,0,0,1,2.856,1.669,98.918,98.918,0,0,0,7.1,13.2,32.923,32.923,0,0,0-15.168-5.055.39.39,0,0,0-.159.754c2.837,1.234,5.854,2.007,8.783,2.993a44.263,44.263,0,0,1,8.882,4.632c4.83,6.392,10.869,11.518,18.619,13.234.562.125,1.043-.6.491-.96-2.439-1.61-4.778-3.222-7.018-4.92A50.287,50.287,0,0,1,1442.21,206.2Z" transform="translate(-1416.266 -184.497)" fill="#5c995c"/></g><path d="M1418.757,196a5.53,5.53,0,1,1-7.7,1.394A5.531,5.531,0,0,1,1418.757,196Z" transform="translate(-1409.509 -173.58)" fill="#5c995c"/><path d="M1418.245,184.239a5.53,5.53,0,1,1-7.7,1.391A5.53,5.53,0,0,1,1418.245,184.239Z" transform="translate(-1409.563 -174.828)" fill="#5c995c"/><path d="M1424.591,176.622a5.53,5.53,0,1,1-7.7,1.393A5.53,5.53,0,0,1,1424.591,176.622Z" transform="translate(-1408.89 -175.635)" fill="#5c995c"/><path d="M1433.456,182.922a5.53,5.53,0,1,1-7.7,1.394A5.53,5.53,0,0,1,1433.456,182.922Z" transform="translate(-1407.95 -174.967)" fill="#5c995c"/><path d="M1444.448,190.544a5.531,5.531,0,1,1-7.7,1.393A5.53,5.53,0,0,1,1444.448,190.544Z" transform="translate(-1406.785 -174.159)" fill="#5c995c"/><g transform="translate(2.044 28.204)"><path d="M1417.293,203.413a3.364,3.364,0,0,1-2.818-.359,7.147,7.147,0,0,1-1.05-.908c-.3-.32-.437-.675-.835-.9a.745.745,0,0,0-1.114.362c-.379,1.336.973,2.266,2.076,2.656a5.908,5.908,0,0,0,3.934-.248c.332-.138.157-.7-.194-.6Z" transform="translate(-1411.411 -201.135)" fill="#b1e0b2"/></g><g transform="translate(1.887 25.663)"><path d="M1412.492,200.484c-.158-.573-.036-1.087-.463-1.546a.277.277,0,0,0-.389-.034,1.61,1.61,0,0,0-.127,1.891c.221.54,1.138.259.98-.311Z" transform="translate(-1411.27 -198.837)" fill="#b1e0b2"/></g><g transform="translate(0.775 13.349)"><path d="M1416.657,191.988a4.861,4.861,0,0,1-3.221-1.03c-.954-.685-1.014-1.791-1.494-2.765a.877.877,0,0,0-1.657.3,3.841,3.841,0,0,0,2.013,3.5c1.184.83,3.019.718,4.391.6a.3.3,0,0,0-.032-.6Z" transform="translate(-1410.264 -187.704)" fill="#b1e0b2"/></g><g transform="translate(1.544 11.714)"><path d="M1411.432,187.635c.172-.438.5-.7.439-1.195a.273.273,0,0,0-.377-.2c-.558.2-.542.779-.532,1.291a.243.243,0,0,0,.47.1Z" transform="translate(-1410.959 -186.226)" fill="#b1e0b2"/></g><g transform="translate(8.943 1.683)"><path d="M1418.185,180.8a4.948,4.948,0,0,1,1.426-2.1c.391-.362,1.066-.728.649-1.325a.583.583,0,0,0-.566-.207c-1.643.384-1.94,2.093-2.044,3.525a.277.277,0,0,0,.535.112Z" transform="translate(-1417.649 -177.157)" fill="#b1e0b2"/></g><g transform="translate(11.675 2.048)"><path d="M1420.219,177.572a.055.055,0,0,0-.091-.062.055.055,0,0,0,.091.062Z" transform="translate(-1420.119 -177.487)" fill="#b1e0b2"/></g><g transform="translate(12.235 1.625)"><path d="M1421.073,177.9c.575-.084,1.18-.1,1.762-.149.174-.013.168-.262.025-.316a3.529,3.529,0,0,0-1.923-.3c-.5.072-.358.837.136.764Z" transform="translate(-1420.625 -177.105)" fill="#b1e0b2"/></g><g transform="translate(20.576 7.502)"><path d="M1428.4,183.082a4.17,4.17,0,0,1,2.576,1.092c.728.539,1.074,1.312,2.02,1.5.539.105.918-.406,1-.859.243-1.262-1.23-1.952-2.219-2.213a9.076,9.076,0,0,0-3.408-.028c-.289.034-.269.524.026.513Z" transform="translate(-1428.167 -182.418)" fill="#b1e0b2"/></g><g transform="translate(25.787 12.471)"><path d="M1433.1,187.121a1.545,1.545,0,0,0-.21.509.51.51,0,0,0,.962.336,2.247,2.247,0,0,0,.1-.409.486.486,0,0,0-.855-.436Z" transform="translate(-1432.878 -186.91)" fill="#b1e0b2"/></g><g transform="translate(31.209 16.417)"><path d="M1438.488,192.655a2.572,2.572,0,0,1,2.32-.272c.807.209,1.669.805,2.522.622a.755.755,0,0,0,.542-1.043c-.408-1.094-2.058-1.456-3.091-1.482a3.522,3.522,0,0,0-2.911,1.61c-.311.373.263.873.618.565Z" transform="translate(-1437.78 -190.478)" fill="#b1e0b2"/></g><g transform="translate(38.571 19.937)"><path d="M1444.442,194.014a1.34,1.34,0,0,0,.3,1.041.2.2,0,0,0,.342-.061,4.786,4.786,0,0,0,.147-.918c.081-.5-.765-.58-.792-.062Z" transform="translate(-1444.437 -193.661)" fill="#b1e0b2"/></g></g><g transform="translate(1370.131 183.734)"><g transform="translate(17.738 5.27)"><path d="M1380.619,174.455c10.312,23.612,21.443,46.608,38.417,66.256a148.431,148.431,0,0,0,23.339,21.295c7.689,5.749,16.2,8.782,24.791,12.756.527.241.226,1.061-.3,1.042-18.087-.634-35.425-18.472-47.121-30.654-18.658-19.439-29.74-45.775-39.706-70.374-.159-.388.41-.72.583-.321Z" transform="translate(-1380.008 -174.275)" fill="#5c995c"/></g><g transform="translate(39.085 26.518)"><path d="M1464.556,273.33c-8.847-3.021-16.519-4.992-24.158-10.57a95.978,95.978,0,0,1-18.738-18.807c-11.937-15.4-17.9-31.543-22.343-50.2-.073-.294.337-.372.442-.106,3.078,8.116,5.114,16.554,8.673,24.5,3.372,7.531,8.285,14.739,12.915,21.546,4.963,7.313,11.2,13.611,17.8,19.446,7.637,6.746,16.493,9.446,25.649,13.381.487.209.3,1-.235.814Z" transform="translate(-1399.308 -193.485)" fill="#5c995c"/></g><g transform="translate(4.66 3.786)"><path d="M1440.012,262.76c-16.1-10.452-31.239-24.435-44.23-38.47-13.6-14.7-22.9-31.21-27.586-50.78-.12-.5.649-.83.867-.332,3.467,7.794,5.845,16,9.374,23.784,4.45,9.825,11.635,17.986,18.886,25.824a243.425,243.425,0,0,0,21.041,19.925c7.392,6.306,14.241,13.589,22.144,19.216.505.357.032,1.176-.5.832Z" transform="translate(-1368.183 -172.932)" fill="#5c995c"/></g><g transform="translate(14.629 11.052)"><path d="M1401.11,217.547c-10.582-9.192-19.931-24.259-23.9-37.64a.333.333,0,0,1,.613-.238c6.625,12.648,13.946,26.931,24.022,37.16.471.476-.248,1.148-.737.718Z" transform="translate(-1377.197 -179.502)" fill="#5c995c"/></g><g transform="translate(2.837 31.842)"><path d="M1410.52,235.885c-18.639-8.2-31.5-21.09-43.884-36.887a.41.41,0,0,1,.584-.574c6.187,5.959,11.729,12.535,17.89,18.521,7.428,7.208,16.972,12.947,25.985,17.973.647.365.063,1.245-.575.967Z" transform="translate(-1366.535 -198.298)" fill="#5c995c"/></g><g transform="translate(51.099 43.865)"><path d="M1425.093,245.958c-6.937-10.91-10.431-24.182-14.89-36.226-.207-.547.61-.761.894-.346,7.354,10.671,9.262,24.524,14.713,36.178a.409.409,0,0,1-.717.395Z" transform="translate(-1410.17 -209.168)" fill="#5c995c"/></g><path d="M1365.144,175.264a3.879,3.879,0,1,0,1.521-5.271A3.879,3.879,0,0,0,1365.144,175.264Z" transform="translate(-1363.897 -169.509)" fill="#5c995c"/><path d="M1364.454,201.675a3.878,3.878,0,1,0,1.521-5.268A3.878,3.878,0,0,0,1364.454,201.675Z" transform="translate(-1363.97 -166.708)" fill="#5c995c"/><path d="M1373.509,183.16a3.877,3.877,0,1,0,1.521-5.267A3.877,3.877,0,0,0,1373.509,183.16Z" transform="translate(-1363.01 -168.672)" fill="#5c995c"/><path d="M1376.637,175.678a3.878,3.878,0,1,0,1.521-5.27A3.88,3.88,0,0,0,1376.637,175.678Z" transform="translate(-1362.678 -169.465)" fill="#5c995c"/><path d="M1396.055,197.252a3.878,3.878,0,1,0,1.52-5.269A3.877,3.877,0,0,0,1396.055,197.252Z" transform="translate(-1360.619 -167.178)" fill="#5c995c"/><path d="M1407.847,212.27a3.879,3.879,0,1,0,1.523-5.27A3.879,3.879,0,0,0,1407.847,212.27Z" transform="translate(-1359.369 -165.585)" fill="#5c995c"/></g><g transform="translate(1340.215 401.77)"><path d="M1338.014,427.758a.494.494,0,0,0,.285-.056c11.18-6.763,25.368-5.008,37.393-1.907,10.479,2.7,20.363,7.629,31.458,5.021,7.773-1.829,18.006-6.006,20.563-14.521,1.347-4.483,1.022-8.712-.1-13.223-.094-.372-2.856-6.467-4.467-7.98a33.009,33.009,0,0,0,8.314-5.326c.6-.536-.176-1.668-.893-1.317-2.936,1.432-5.778,2.727-8.638,3.869-5.14-10.165-10.656-19.059-21.635-23.523-8.6-3.5-18.436-2.358-26.932.724-22.445,8.144-32.21,36.531-36.431,57.867A.579.579,0,0,0,1338.014,427.758Z" transform="translate(-1336.922 -366.641)" fill="#5c995c"/><g transform="translate(11.303 18.164)"><path d="M1348.088,415.753c12.8-9.94,31.422-11.644,46.835-14.376,12.99-2.3,32.45-4.378,40.487-16.208a1.3,1.3,0,0,0-1.7-1.911c-7.521,4.108-14.185,8.041-22.526,10.428-8.266,2.366-16.829,3.621-25.25,5.292-14.55,2.889-26.36,7.324-38.537,15.753-.657.455.064,1.505.686,1.022Z" transform="translate(-1347.142 -383.064)" fill="#407c40"/></g><g transform="translate(56.132 27.199)"><path d="M1388.254,419.411c10.2-6.158,25.406-15.8,30.32-27.194a.69.69,0,0,0-1-.86c-4.775,3.366-8.333,8.67-12.382,12.885a104.134,104.134,0,0,1-17.354,14.552c-.4.268.008.865.417.617Z" transform="translate(-1387.672 -391.232)" fill="#407c40"/></g><g transform="translate(44.795 34.148)"><path d="M1378.035,412.951c3.526-2.593,7.145-5.037,10.63-7.694,2.621-2,5.846-3.93,7.041-7.117.117-.315-.158-.751-.531-.591-3.028,1.315-5.006,4.144-7.454,6.3-3.293,2.9-6.741,5.652-10.14,8.424-.4.326.026.988.453.675Z" transform="translate(-1377.422 -397.515)" fill="#407c40"/></g><g transform="translate(24.531 38.108)"><path d="M1359.6,412.979c4.438-2.262,11.652-6.435,13.123-11.554.077-.267-.252-.4-.448-.293-2.142,1.151-3.651,3.046-5.384,4.719a95.767,95.767,0,0,1-7.652,6.586.325.325,0,0,0,.36.541Z" transform="translate(-1359.101 -401.096)" fill="#407c40"/></g><g transform="translate(22.599 37.743)"><path d="M1357.6,402.417c3.1-.276,5.939.285,8.987.706,1.978.275,4.736.686,6.219-.906a.419.419,0,0,0-.044-.59c-1.763-1.286-4.69-.776-6.757-.692a45.768,45.768,0,0,0-8.5,1.032c-.263.06-.166.473.092.45Z" transform="translate(-1357.354 -400.765)" fill="#407c40"/></g><g transform="translate(25.486 26.241)"><path d="M1360.134,391.827a133.4,133.4,0,0,1,18.7,1.314,67.156,67.156,0,0,1,8.25,1.773c3.829,1.045,6.548,3.642,10.453,3.853.48.028,1.015-.487.635-.964-8.178-10.259-26.8-7.217-38.062-6.3a.161.161,0,0,0,.024.322Z" transform="translate(-1359.964 -390.366)" fill="#407c40"/></g><g transform="translate(36.088 14.283)"><path d="M1369.779,380.643a76.575,76.575,0,0,1,46.9,12.825c.817.557,2.14-.074,1.723-1.169-2.422-6.4-12.96-7.921-18.954-9.6-9.537-2.678-19.861-4.038-29.7-2.49a.219.219,0,0,0,.032.437Z" transform="translate(-1369.55 -379.554)" fill="#407c40"/></g></g><g transform="matrix(0.788, 0.616, -0.616, 0.788, 1375.918, -26.092)"><path d="M1306.978,247.439c1.553,12.816,11.24,22.678,24.443,15.542,19.2-10.376,31.592-32.937,43.083-50.557,15.689-24.06,36.284-44.138,52.309-67.881,14.407-21.352,16.083-43.853,13.307-68.126,9.561-11.89,16.884-24.915,17.43-40.1a.975.975,0,0,0-1.8-.488c-6.63,11.213-11.416,22.357-17.932,33-10.9-13.132-27.127-16.083-43.8-11.3-22.1,6.34-38.375,29.18-51.33,46.694-16.942,22.914-27.927,48.2-32.455,76.31C1306.781,201.937,1304.347,225.755,1306.978,247.439Z" transform="translate(-1305.868 -35.37)" fill="#76995c"/><g transform="translate(24.131 39.503)"><path d="M1322.905,222.741c11.507-32.367,24.357-63.731,44.811-91.575a391.437,391.437,0,0,1,34.492-40.344c7.474-7.714,20.924-15.8,23.23-26.931a1.664,1.664,0,0,0-3.027-1.276c-8.032,11.58-19.7,20.423-29.3,30.692a367.321,367.321,0,0,0-31.385,39.056c-19.314,27.291-30.673,58.173-39.666,90.145a.441.441,0,0,0,.849.233Z" transform="translate(-1322.037 -61.839)" fill="#c4e0b1"/></g><g transform="translate(108.367 45.398)"><path d="M1379.069,126.155c4.789-18.876,15.353-39.239,14.226-59.019a1.379,1.379,0,0,0-2.7-.364c-4.921,19.142-9.644,39.672-12.117,59.305-.043.34.507.4.588.078Z" transform="translate(-1378.478 -65.789)" fill="#c4e0b1"/></g><g transform="translate(84.291 75.639)"><path d="M1362.964,155.141c1.642-22.861,8.394-45.179,9.926-67.948.091-1.369-1.943-1.548-2.316-.312-3.5,11.565-4.137,24.082-5.924,36.01a174.391,174.391,0,0,0-2.213,32.25.264.264,0,0,0,.527,0Z" transform="translate(-1362.347 -86.051)" fill="#c4e0b1"/></g><g transform="translate(57.982 117.845)"><path d="M1345.434,170.123c.718-17.636.73-36.732,4.012-54.067a1.393,1.393,0,0,0-2.685-.739c-2.431,7.413-1.254,15.211-1.306,22.894-.075,10.647-.942,21.255-.691,31.912a.335.335,0,0,0,.67,0Z" transform="translate(-1344.719 -114.331)" fill="#c4e0b1"/></g><g transform="translate(37.448 157.576)"><path d="M1334.96,173.153c-.418-5.728-.821-11.444-1.046-17.187-.2-4.986.346-9.862-.519-14.8-.054-.321-.484-.248-.575,0-3.68,9.781-1.2,22.267,1.449,32.082.1.375.722.307.691-.1Z" transform="translate(-1330.96 -140.953)" fill="#c4e0b1"/></g><g transform="translate(11.233 155.339)"><path d="M1314.268,170.266a179.564,179.564,0,0,0,18.365-14.563c4.768-4.4,10.1-9.216,10.907-15.971.03-.246-.327-.37-.481-.2-4.68,5.143-8.373,10.968-13.423,15.81-5.134,4.915-10.819,9.226-16.071,14.008-.483.44.161,1.3.7.915Z" transform="translate(-1313.395 -139.454)" fill="#c4e0b1"/></g><g transform="translate(11.22 114.402)"><path d="M1313.722,145.926c11.068-7.067,23.115-12.078,34.764-18.059,5.9-3.027,15.338-7.864,16.8-15,.12-.588-.633-1.166-1.091-.634-13.335,15.539-33.958,22.055-50.707,33.3-.243.161-.02.554.231.394Z" transform="translate(-1313.386 -112.025)" fill="#c4e0b1"/></g><g transform="translate(48.685 74.587)"><path d="M1338.863,106.6c9.044-3.646,18.35-6.5,27.53-9.759,6.415-2.28,13.911-4.827,18.033-10.456.355-.488-.233-1.185-.778-1.007-8.009,2.648-15.347,8.223-23.264,11.5-7.314,3.028-14.7,5.559-21.753,9.179-.3.151-.087.673.231.545Z" transform="translate(-1338.489 -85.347)" fill="#c4e0b1"/></g><g transform="translate(63.863 38.99)"><path d="M1348.827,80.276a270.214,270.214,0,0,1,43.226-9.583c6.312-.845,16.438-.8,19.865-7.129a1.383,1.383,0,0,0-1.879-1.879c-7.2,4.142-14.643,4.841-22.651,6.322a190.1,190.1,0,0,0-38.635,12c-.16.067-.1.327.074.272Z" transform="translate(-1348.659 -61.495)" fill="#c4e0b1"/></g></g></g><g transform="translate(530.987 1718.807)"><g transform="translate(754.866 12.865)"><path d="M644.365,32.822c-3.25-4.13-5.645-9.824-5.153-15.2.163-1.778,1.269-5.64,3.563-2.873.317-1.361,1.461-2.271,2.436-1.071,1.387-1.969,3.178.077,3.783,1.6.92,2.32.191,5.235-.379,7.527-.814,3.274-2.24,6.354-2.979,9.643a40.708,40.708,0,0,1,10.241-8.6c2.523-1.356,9.183-.682,4.617,2.567,1.727-.6,3.511.478,1.628,1.948,3.517-.285,4.386,1.659,1.568,3.654a19.308,19.308,0,0,1-8.134,2.849c-3,.358-8.525.435-11.015-1.513" transform="translate(-624.52 -12.865)" fill="#fff"/><path d="M644.518,33.743c5.085,1.327,10.434,4.416,13.292,9,.946,1.516,2.4,5.261-1.1,4.443.57,1.276.209,2.693-1.292,2.326.084,2.406-2.579,1.858-3.986,1.008-2.133-1.291-3.315-4.055-4.245-6.226-1.331-3.1-2.056-6.417-3.455-9.483a40.725,40.725,0,0,1-2.961,13.041c-1.191,2.605-6.906,6.093-5.23.745-1.016,1.519-3.086,1.741-2.475-.568-2.629,2.353-4.5,1.329-3.457-1.963a19.3,19.3,0,0,1,4.759-7.186c2.176-2.1,6.528-5.5,9.691-5.451" transform="translate(-624.52 -12.865)" fill="#fff"/><path d="M645.25,33.531c-3.074-4.35-8.986-8.841-14.117-10.214-1.121-.3-4.583-1.34-5.4.1s1.1,2.843,2.276,3.219c-1.722-.243-3.828,1.123-1.594,2.3-2.051-.21-2.238,1.237-1.5,2.742,1.276,2.613,5.54,2.243,8.077,2.431,4.176.31,8.664,1.6,12.613-.4" transform="translate(-624.52 -12.865)" fill="#fff"/><path d="M646.312,33a2.656,2.656,0,1,1-2.656-2.656A2.656,2.656,0,0,1,646.312,33Z" transform="translate(-624.52 -12.865)" fill="#f4ee82"/></g><g transform="translate(249.437 25.865)"><path d="M244.709,45.822c-3.25-4.13-5.646-9.824-5.153-15.2.163-1.778,1.269-5.64,3.563-2.873.316-1.361,1.461-2.271,2.436-1.071,1.386-1.969,3.177.077,3.783,1.6.92,2.32.191,5.235-.379,7.527-.815,3.274-2.24,6.354-2.98,9.643a40.73,40.73,0,0,1,10.242-8.6c2.523-1.356,9.183-.682,4.617,2.567,1.726-.6,3.511.478,1.628,1.948,3.516-.285,4.386,1.659,1.568,3.654a19.308,19.308,0,0,1-8.135,2.849c-3,.358-8.524.435-11.014-1.513" transform="translate(-224.864 -25.865)" fill="#edd570"/><path d="M244.861,46.743c5.086,1.327,10.435,4.416,13.293,9,.946,1.516,2.4,5.261-1.1,4.443.57,1.276.209,2.693-1.292,2.326.084,2.406-2.579,1.858-3.987,1.008-2.132-1.291-3.314-4.055-4.245-6.226-1.33-3.1-2.055-6.417-3.454-9.483a40.725,40.725,0,0,1-2.961,13.041c-1.191,2.605-6.906,6.093-5.23.745-1.016,1.519-3.086,1.741-2.475-.568-2.63,2.353-4.5,1.329-3.457-1.963a19.3,19.3,0,0,1,4.759-7.186c2.176-2.1,6.528-5.5,9.69-5.451" transform="translate(-224.864 -25.865)" fill="#edd570"/><path d="M245.594,46.531c-3.075-4.35-8.987-8.841-14.117-10.214-1.122-.3-4.583-1.34-5.4.1s1.1,2.843,2.275,3.219c-1.721-.243-3.828,1.123-1.593,2.3-2.051-.21-2.239,1.237-1.5,2.742,1.276,2.613,5.54,2.243,8.077,2.431,4.176.31,8.664,1.6,12.613-.4" transform="translate(-224.864 -25.865)" fill="#edd570"/><path d="M246.656,46A2.656,2.656,0,1,1,244,43.344,2.656,2.656,0,0,1,246.656,46Z" transform="translate(-224.864 -25.865)" fill="#fff"/></g><g transform="translate(132.013 14.924)"><path d="M142.929,25.9a12.382,12.382,0,0,1-2.835-8.363c.09-.978.7-3.1,1.961-1.58.174-.749.8-1.25,1.34-.589.762-1.083,1.748.042,2.081.882.505,1.276.1,2.88-.208,4.141-.45,1.8-1.233,3.5-1.64,5.3a22.409,22.409,0,0,1,5.634-4.731c1.388-.746,5.053-.375,2.539,1.412.951-.328,1.931.263.9,1.071,1.936-.156,2.412.913.863,2.01a10.619,10.619,0,0,1-4.475,1.568c-1.651.2-4.689.239-6.06-.833" transform="translate(-132.013 -14.924)" fill="#dd855e"/><path d="M143.014,26.408a12.4,12.4,0,0,1,7.312,4.95c.52.834,1.318,2.894-.607,2.444.313.7.115,1.482-.711,1.28.046,1.323-1.418,1.023-2.193.554-1.173-.71-1.823-2.231-2.335-3.424-.732-1.707-1.13-3.53-1.9-5.217a22.408,22.408,0,0,1-1.629,7.174c-.656,1.433-3.8,3.351-2.877.409-.558.836-1.7.958-1.361-.311-1.447,1.293-2.475.73-1.9-1.082a10.614,10.614,0,0,1,2.618-3.952c1.2-1.154,3.591-3.024,5.33-3" transform="translate(-132.013 -14.924)" fill="#dd855e"/><path d="M143.416,26.292a15.743,15.743,0,0,0-7.767-5.618c-.616-.165-2.52-.738-2.968.053s.6,1.563,1.251,1.77c-.948-.134-2.106.618-.877,1.267-1.127-.116-1.231.68-.826,1.507.7,1.438,3.046,1.235,4.443,1.338,2.3.171,4.766.878,6.938-.219" transform="translate(-132.013 -14.924)" fill="#dd855e"/><path d="M144,26a1.461,1.461,0,1,1-1.461-1.461A1.461,1.461,0,0,1,144,26Z" transform="translate(-132.013 -14.924)" fill="#f4ee82"/></g><g transform="translate(180.474 88.463)"><path d="M191.39,99.441a12.382,12.382,0,0,1-2.835-8.363c.09-.977.7-3.1,1.961-1.58.174-.749.8-1.25,1.339-.589.763-1.083,1.749.042,2.081.882.506,1.276.1,2.88-.207,4.141-.45,1.8-1.233,3.5-1.64,5.3a22.409,22.409,0,0,1,5.634-4.731c1.388-.746,5.052-.375,2.539,1.412.951-.328,1.931.263.9,1.071,1.936-.156,2.412.913.863,2.01a10.623,10.623,0,0,1-4.475,1.568c-1.651.2-4.689.239-6.06-.833" transform="translate(-180.474 -88.463)" fill="#fff"/><path d="M191.475,99.947a12.4,12.4,0,0,1,7.312,4.951c.52.833,1.318,2.893-.607,2.443.313.7.115,1.482-.711,1.28.046,1.323-1.418,1.023-2.193.554-1.174-.71-1.823-2.231-2.335-3.424-.732-1.707-1.131-3.53-1.9-5.217a22.4,22.4,0,0,1-1.629,7.174c-.656,1.433-3.8,3.352-2.877.409-.558.836-1.7.958-1.361-.311-1.447,1.294-2.475.73-1.9-1.081a10.621,10.621,0,0,1,2.619-3.952c1.2-1.155,3.59-3.025,5.33-3" transform="translate(-180.474 -88.463)" fill="#fff"/><path d="M191.877,99.831a15.754,15.754,0,0,0-7.767-5.618c-.616-.165-2.52-.737-2.968.053s.6,1.563,1.251,1.77c-.948-.134-2.106.618-.877,1.267-1.127-.115-1.231.68-.826,1.507.7,1.438,3.046,1.235,4.443,1.338,2.3.171,4.765.878,6.938-.219" transform="translate(-180.474 -88.463)" fill="#fff"/><path d="M192.461,99.539A1.461,1.461,0,1,1,191,98.078,1.461,1.461,0,0,1,192.461,99.539Z" transform="translate(-180.474 -88.463)" fill="#f4ee82"/></g><g transform="translate(346.599 4.193)"><path d="M332.3,29.248c5.371-1.581,14.247-.128,17.767,4.663,4.327,5.888-1.7,8.765-6.8,6.175,6.795,4.508,2.541,13.073-2.887,6.16,4.564,9.568-9.482,11.872-12.589,2.27a21.532,21.532,0,0,1,1.631-17.045c-4.086,6.923-11.9,13.847-20.5,12.859-9.685-1.115-7.053-6.469-1.63-11.072-7.088.756-8.648-9.281-1.848-7.85-3.947-.7-5.4-4.936-3.845-8.294,2.592-5.589,8.044-3.8,12.575-2.119,6.54,2.421,10.693,7.067,14.254,12.9" transform="translate(-300.981 -4.193)" fill="#dd855e"/><path d="M329.693,29.656c7.407-.5,19.1-5.92,20.3-14.077,1-6.812-4.338-6.866-8.664-3.273,7.526-5.732-4.963-12.79-6.944-3.888,2.7-5.577-5.183-5.159-7.586-1.49-3.986,6.086-1.066,17.868.923,24.105" transform="translate(-300.981 -4.193)" fill="#dd855e"/><path d="M327.993,30.93a2.45,2.45,0,1,1,3.428-.5A2.45,2.45,0,0,1,327.993,30.93Z" transform="translate(-300.981 -4.193)" fill="#f4ee82"/><g transform="translate(20.072 17.133)"><g transform="translate(9.867 7.295)"><path d="M339.929,30.742c-2.5-1.312-6.456-3.4-8.958-1.081-.119.112-.012.328.151.256,2.9-1.278,5.984-.029,8.724,1.039.141.055.211-.147.083-.214Z" transform="translate(-330.92 -28.621)" fill="#71875f"/></g><g transform="translate(10.29 8.186)"><path d="M335.328,34.206a21.73,21.73,0,0,1-2.147-1.92,11.166,11.166,0,0,1-1.672-2.726c-.042-.081-.186-.054-.164.047.444,2.074,2.212,3.6,3.866,4.755a.1.1,0,0,0,.117-.156Z" transform="translate(-331.343 -29.512)" fill="#71875f"/></g><g transform="translate(8.18 8.975)"><path d="M332.534,37.739a12.894,12.894,0,0,1-1.994-3.368,7.587,7.587,0,0,1-.654-2.268,4.808,4.808,0,0,1,.367-1.643.145.145,0,0,0-.164-.158c-1.355.2-.761,2.416-.493,3.225a15.207,15.207,0,0,0,2.63,4.453c.157.2.474-.054.308-.241Z" transform="translate(-329.233 -30.301)" fill="#71875f"/></g><g transform="translate(4.702 8.715)"><path d="M329.1,30.053c-2.684,1.234-3.451,3.6-3.328,6.413.005.119.193.111.206,0,.252-2.377,1.122-4.874,3.272-6.153.148-.088,0-.325-.15-.256Z" transform="translate(-325.755 -30.041)" fill="#71875f"/></g><g transform="translate(0.481 7.529)"><path d="M327.948,29.247c-2.234-1.074-4.85.219-6.379,1.941a.162.162,0,0,0,.192.245c1.94-1,3.7-2.492,6.021-1.758a.23.23,0,0,0,.166-.428Z" transform="translate(-321.534 -28.855)" fill="#71875f"/></g><g transform="translate(2.42 2.095)"><path d="M328.118,27.8c-1.785-.939-3.761-2.33-4.443-4.315a.1.1,0,0,0-.2.03c-.131,2.368,2.655,3.846,4.491,4.671.248.11.381-.265.15-.386Z" transform="translate(-323.473 -23.421)" fill="#71875f"/></g><g transform="translate(6.778 0.413)"><path d="M329.908,27.1a5.634,5.634,0,0,1-1.088-5.212.11.11,0,0,0-.169-.126c-1.754,1.415-.352,4.407,1.011,5.591.15.131.379-.1.246-.253Z" transform="translate(-327.831 -21.739)" fill="#71875f"/></g><g transform="translate(9.115 2.926)"><path d="M330.54,27.722a4.464,4.464,0,0,1,2.756-3.31.08.08,0,0,0-.023-.159c-1.7.2-2.71,1.8-3.1,3.327-.061.239.3.386.365.142Z" transform="translate(-330.168 -24.252)" fill="#71875f"/></g><g transform="translate(9.718 4.708)"><path d="M331.164,28.48c.954-1.364,2.6-1.71,4.135-2.054a.155.155,0,0,0-.006-.307,4.271,4.271,0,0,0-4.488,2.094c-.142.243.19.509.359.267Z" transform="translate(-330.771 -26.034)" fill="#71875f"/></g><g transform="translate(11.213 1.778)"><path d="M332.473,23.507a1.015,1.015,0,0,0,1.628,1.212,1.015,1.015,0,0,0-1.628-1.212Z" transform="translate(-332.266 -23.104)" fill="#71875f"/></g><g transform="translate(13.834 4)"><path d="M335.052,25.647a.808.808,0,0,0,1.295.964.808.808,0,0,0-1.295-.964Z" transform="translate(-334.887 -25.326)" fill="#71875f"/></g><g transform="translate(13.338 12.346)"><path d="M334.547,33.976a.764.764,0,0,0,1.225.912.764.764,0,0,0-1.225-.912Z" transform="translate(-334.391 -33.672)" fill="#71875f"/></g><g transform="translate(13.034 6.891)"><path d="M334.431,28.377a.833.833,0,0,0-.329.8.71.71,0,0,0,.789.588.835.835,0,0,0,.676-.547.739.739,0,0,0-1.136-.846Z" transform="translate(-334.087 -28.217)" fill="#71875f"/></g><g transform="translate(18.186 8.893)"><path d="M339.583,30.379a.833.833,0,0,0-.329.805.709.709,0,0,0,.789.587.832.832,0,0,0,.677-.545.74.74,0,0,0-1.137-.847Z" transform="translate(-339.239 -30.219)" fill="#71875f"/></g><g transform="translate(10.439 15.203)"><path d="M332.714,36.531a1.13,1.13,0,0,0-1.044.457.916.916,0,0,0,.186,1.267l.037.031-.309-.391a2.4,2.4,0,0,0,.195.309,1.04,1.04,0,1,0,.935-1.673Z" transform="translate(-331.492 -36.529)" fill="#71875f"/></g><g transform="translate(4.024 13.39)"><path d="M325.267,35.086A.931.931,0,0,0,326.76,36.2a.931.931,0,0,0-1.493-1.111Z" transform="translate(-325.077 -34.716)" fill="#71875f"/></g><g transform="translate(7.522 11.025)"><path d="M329.188,32.423a.964.964,0,0,0-.608.778.816.816,0,0,0,.161.569c.029.043.594.491.259.23a.915.915,0,1,0,.188-1.577Z" transform="translate(-328.575 -32.351)" fill="#71875f"/></g><g transform="translate(2.703 6.914)"><path d="M323.759,29.041l0,.066a.881.881,0,0,0,1.2.9l.065-.02a.913.913,0,1,0-1.265-.941Z" transform="translate(-323.756 -28.24)" fill="#71875f"/></g><g transform="translate(0 8.846)"><path d="M321.2,30.455a.713.713,0,0,0,1.143.85.713.713,0,0,0-1.143-.85Z" transform="translate(-321.053 -30.172)" fill="#71875f"/></g><g transform="translate(1.701 2.084)"><path d="M322.818,24.275l.038.142a.61.61,0,0,0,.665.5l.147-.005c2.309-.076-1.44-2.866-.85-.632Z" transform="translate(-322.754 -23.41)" fill="#71875f"/></g><g transform="translate(6.064)"><path d="M327.219,22.106a.323.323,0,0,0-.016.032,1.141,1.141,0,0,0,.014.9,1.255,1.255,0,0,0,.966.72c.014,0,.026.006.041.009.925.218,1.587-.926,1.261-1.7a1.23,1.23,0,0,0-.99-.737,1.257,1.257,0,0,0-1.276.772Z" transform="translate(-327.117 -21.326)" fill="#71875f"/></g><g transform="translate(1.371 1.117)"><path d="M322.519,23.141l-.021.05a1.1,1.1,0,0,0,2.049.8l.014-.052a1.118,1.118,0,0,0-.625-1.418,1.1,1.1,0,0,0-1.417.624Z" transform="translate(-322.424 -22.443)" fill="#71875f"/></g><g transform="translate(3.964 4.643)"><path d="M326.528,26.375a2.9,2.9,0,0,0-.216-.213c-.751-.72-1.861.772-.956,1.284a3,3,0,0,0,.267.146.792.792,0,0,0,.905-1.217Z" transform="translate(-325.017 -25.969)" fill="#71875f"/></g><g transform="translate(9.197 4.049)"><path d="M331.5,25.444a.963.963,0,0,0-1.117.3.656.656,0,0,0,.133.909c.068.056.294.255.125.09l-.252-.871,0,.009a.79.79,0,0,0,.116.788l.047.059a.827.827,0,1,0,.952-1.279Z" transform="translate(-330.25 -25.375)" fill="#71875f"/></g><g transform="translate(8.582 6.859)"><path d="M331.472,28.572a1.033,1.033,0,0,0-1.625.022l.353-.279-.061.034c-.481.268-.761,1.064-.169,1.417-.143-.15-.113-.124.09.08.037.027.694.245.323.144a1.042,1.042,0,0,0,.93-.145.915.915,0,0,0,.159-1.273Z" transform="translate(-329.635 -28.185)" fill="#71875f"/></g></g></g><g transform="translate(666.236 82.62)"><path d="M559.059,112.936c-2.42,5.048-9.442,10.669-15.358,10.077-7.27-.729-5.37-7.134-.031-9.19-7.9,2.029-11.412-6.865-2.643-6.268-10.164-3.015-2.47-14.992,6.742-10.871a21.531,21.531,0,0,1,11.569,12.623c-2.406-7.67-2.316-18.115,4.172-23.836,7.31-6.448,9.526-.91,9.315,6.2,4.184-5.771,12.685-.21,7.068,3.883,3.166-2.461,7.285-.709,8.736,2.7,2.417,5.666-2.566,8.516-6.845,10.759-6.177,3.237-12.408,3.213-19.122,1.955" transform="translate(-535.891 -82.62)" fill="#fff"/><path d="M560.5,110.728c-4.585,5.837-8.389,18.15-3.131,24.5,4.39,5.3,8.005,1.374,8.232-4.244-.782,9.428,12.822,4.875,7.537-2.556,2.337,5.737,7.3-.4,6.184-4.638-1.851-7.036-12.558-12.754-18.524-15.451" transform="translate(-535.891 -82.62)" fill="#fff"/><path d="M560.692,108.611a2.451,2.451,0,1,1-1.922,2.885A2.451,2.451,0,0,1,560.692,108.611Z" transform="translate(-535.891 -82.62)" fill="#f4ee82"/><g transform="translate(15.75 20.464)"><g transform="translate(1.034 8.431)"><path d="M552.841,117.605c2.647-.977,6.844-2.524,6.8-5.932a.151.151,0,0,0-.291-.059c-.99,3.008-3.986,4.465-6.613,5.785-.136.068-.032.255.1.206Z" transform="translate(-552.674 -111.515)" fill="#71875f"/></g><g transform="translate(1.594 8.182)"><path d="M553.349,111.868a21.345,21.345,0,0,1,2.863-.309,11.165,11.165,0,0,1,3.143.582c.09.024.165-.1.076-.153-1.838-1.059-4.152-.764-6.121-.312a.1.1,0,0,0,.039.192Z" transform="translate(-553.235 -111.265)" fill="#71875f"/></g><g transform="translate(0.778 3.953)"><path d="M552.594,107.427a12.9,12.9,0,0,1,3.837.774,7.538,7.538,0,0,1,2.122,1.032c.511.367.629.9.974,1.373a.146.146,0,0,0,.228-.016c.757-1.142-1.284-2.183-2.065-2.526a15.224,15.224,0,0,0-5.068-1.027c-.254-.017-.278.388-.028.39Z" transform="translate(-552.419 -107.036)" fill="#71875f"/></g><g transform="translate(6.27 0.148)"><path d="M560.6,110.018c.882-2.82-.364-4.974-2.535-6.765-.092-.076-.212.069-.135.155,1.6,1.778,2.869,4.1,2.38,6.55-.033.169.241.218.29.06Z" transform="translate(-557.91 -103.232)" fill="#71875f"/></g><g transform="translate(10.005 0.456)"><path d="M561.973,109.706c2.293-.94,3.084-3.75,2.829-6.039a.162.162,0,0,0-.311-.021c-.555,2.112-.622,4.413-2.724,5.649a.23.23,0,0,0,.206.411Z" transform="translate(-561.645 -103.54)" fill="#71875f"/></g><g transform="translate(10.993 6.252)"><path d="M562.935,110.8c1.893-.7,4.25-1.233,6.18-.412a.1.1,0,0,0,.112-.166c-1.672-1.683-4.636-.6-6.478.21-.247.109-.058.459.186.368Z" transform="translate(-562.633 -109.336)" fill="#71875f"/></g><g transform="translate(10.452 9.131)"><path d="M562.253,112.6a5.631,5.631,0,0,1,4.6,2.682.11.11,0,0,0,.207-.042c.124-2.251-3.038-3.212-4.83-2.991a.178.178,0,0,0,.023.351Z" transform="translate(-562.092 -112.215)" fill="#71875f"/></g><g transform="translate(9.699 9.298)"><path d="M561.371,112.651a4.466,4.466,0,0,1,.612,4.265c-.044.09.073.176.134.089.989-1.394.475-3.22-.4-4.529-.138-.206-.488-.038-.35.175Z" transform="translate(-561.339 -112.382)" fill="#71875f"/></g><g transform="translate(7.482 9.267)"><path d="M560.389,112.607c.375,1.623-.471,3.079-1.242,4.448a.155.155,0,0,0,.232.2,4.269,4.269,0,0,0,1.449-4.736c-.085-.269-.505-.2-.439.087Z" transform="translate(-559.123 -112.351)" fill="#71875f"/></g><g transform="translate(9.554 13.039)"><path d="M563.207,116.909a1.015,1.015,0,0,0-1.99.4,1.015,1.015,0,0,0,1.99-.4Z" transform="translate(-561.194 -116.123)" fill="#71875f"/></g><g transform="translate(6.649 13.683)"><path d="M559.891,117.393a.808.808,0,0,0-1.583.316.808.808,0,0,0,1.583-.316Z" transform="translate(-558.29 -116.767)" fill="#71875f"/></g><g transform="translate(0.886 7.766)"><path d="M554.042,111.442a.764.764,0,0,0-1.5.3.764.764,0,0,0,1.5-.3Z" transform="translate(-552.527 -110.85)" fill="#71875f"/></g><g transform="translate(5.15 11.126)"><path d="M558.279,115.1a.836.836,0,0,0-.378-.784.711.711,0,0,0-.965.193.835.835,0,0,0-.046.868.739.739,0,0,0,1.389-.277Z" transform="translate(-556.791 -114.209)" fill="#71875f"/></g><g transform="translate(0.213 13.613)"><path d="M553.343,117.59a.834.834,0,0,0-.378-.782A.71.71,0,0,0,552,117a.836.836,0,0,0-.048.869.741.741,0,0,0,1.391-.279Z" transform="translate(-551.854 -116.697)" fill="#71875f"/></g><g transform="translate(0 3.47)"><path d="M553.371,108.369a1.127,1.127,0,0,0,.359-1.081.917.917,0,0,0-1.065-.711.278.278,0,0,1-.048.007l.5.033a2.2,2.2,0,0,0-.36-.062,1.04,1.04,0,1,0,.617,1.814Z" transform="translate(-551.641 -106.554)" fill="#71875f"/></g><g transform="translate(5.943)"><path d="M559.43,103.805a.931.931,0,0,0-1.825.365.931.931,0,0,0,1.825-.365Z" transform="translate(-557.584 -103.084)" fill="#71875f"/></g><g transform="translate(5.369 4.183)"><path d="M558.783,108.5a.967.967,0,0,0-.171-.973.816.816,0,0,0-.53-.261c-.051-.008-.763.112-.345.038a.916.916,0,1,0,1.046,1.2Z" transform="translate(-557.009 -107.267)" fill="#71875f"/></g><g transform="translate(11.674 3.322)"><path d="M564.93,106.731c-.016-.015-.033-.03-.048-.046a.882.882,0,0,0-1.47.3c-.01.019-.018.04-.028.062-.3.648.415,1.317,1.044,1.191a.92.92,0,0,0,.5-1.5Z" transform="translate(-563.314 -106.406)" fill="#71875f"/></g><g transform="translate(12.541 0.248)"><path d="M565.594,103.883a.713.713,0,0,0-1.4.279.713.713,0,0,0,1.4-.279Z" transform="translate(-564.181 -103.332)" fill="#71875f"/></g><g transform="translate(16.117 5.984)"><path d="M569.1,109.224l-.132-.067a.609.609,0,0,0-.813.163l-.1.112c-1.488,1.766,3.093.849,1.04-.208Z" transform="translate(-567.758 -109.068)" fill="#71875f"/></g><g transform="translate(13.798 10.172)"><path d="M567.766,113.944a.3.3,0,0,0-.014-.032,1.143,1.143,0,0,0-.677-.592,1.252,1.252,0,0,0-1.181.236l-.035.024a1.224,1.224,0,1,0,1.626,1.829,1.259,1.259,0,0,0,.281-1.465Z" transform="translate(-565.439 -113.256)" fill="#71875f"/></g><g transform="translate(16.384 6.027)"><path d="M570.144,109.76l-.024-.049a1.1,1.1,0,0,0-1.964.989l.03.045a1.1,1.1,0,0,0,1.958-.985Z" transform="translate(-568.025 -109.11)" fill="#71875f"/></g><g transform="translate(12.696 5.861)"><path d="M565.057,110.574c.1,0,.2-.011.3-.018,1.038-.077.673-1.9-.313-1.571-.1.032-.194.059-.288.1a.792.792,0,0,0,.3,1.488Z" transform="translate(-564.336 -108.945)" fill="#71875f"/></g><g transform="translate(9.583 10.239)"><path d="M562.422,114.888a.963.963,0,0,0,.528-1.028.657.657,0,0,0-.765-.509c-.086.013-.385.047-.15.032l.816.4,0-.009a.788.788,0,0,0-.662-.442l-.077-.005a.827.827,0,1,0,.314,1.564Z" transform="translate(-561.223 -113.323)" fill="#71875f"/></g><g transform="translate(7.622 7.742)"><path d="M560.115,112.775c.69.118,1.159-.628,1.071-1.221-.009.149-.019.3-.029.448.005-.022.01-.044.016-.068.123-.536-.281-1.276-.941-1.074.208,0,.169,0-.119.014-.045.009-.646.351-.323.143a1.047,1.047,0,0,0-.515.788c-.1.521.4.894.84.97Z" transform="translate(-559.263 -110.826)" fill="#71875f"/></g></g></g></g></g></svg>