<svg xmlns="http://www.w3.org/2000/svg" viewBox="0 0 275.51 616.88"><defs><style>.cls-1{fill:#5c995c;}.cls-2{fill:#407c40;}.cls-3{fill:#76995c;}.cls-4{fill:#5a7c40;}.cls-5{fill:#c4e0b1;}.cls-6{fill:#5c9984;}.cls-7{fill:#407c67;}.cls-8{fill:#b1e0b2;}</style></defs><g id="圖層_2" data-name="圖層 2"><g id="圖層_1-2" data-name="圖層 1"><g id="sec3-3-right.svg"><path class="cls-1" d="M148.74,507.29c9.5-14.9,25.9,3,35,14.8A279.5,279.5,0,0,1,167,478a1,1,0,0,1-.9-.2c-2.7-1.8-4.6-1.2-7.7-1.1-3.8.2-7.8-1.7-11-3.7-4.8-3-6.9-11.3-2.1-15.4,4.4-3.7,10-2,14.6,1.9-4.8-4.3-9.3-9.5-11-15.7-1.4-5.6,2.7-12.8,9-12.4,6.1.4,11.5,5.1,11.4,11.5-.1,5.6-4.4,10.5-5.6,15.8a9.36,9.36,0,0,1,.4,1.6v.4c.6,2.1,1.3,4.2,2,6.4a18.54,18.54,0,0,1,2.1,6.4c1.9,5.7,3.9,11.3,6.1,16.8,0-10,3.1-21.9,14.4-19.5,7.9,1.6,12.2,8.3,10.5,16-.8,3.5-3.7,7.2-7.2,8.2a31.5,31.5,0,0,1-7.5,1,17.39,17.39,0,0,0-7,2.2,261.6,261.6,0,0,0,22.5,42.5c.6.9,1.3,1.9,1.9,2.8-2.8-10.9-2.4-23,7.5-28,9.1-4.6,19.4,3.1,21.4,12,1.2,5.3-1.3,10.5-4.9,14.2-2.2,2.2-5.5,3.5-8.2,4.8-4.3,2-5.8,4.4-7.5,8.2a149.07,149.07,0,0,0,21.8,21.7,109.14,109.14,0,0,0,19.8,12.3,61.15,61.15,0,0,1-9.9-18.5c-3.7-10.9-2.1-22,5.6-30.5,8-8.8,20.9-.5,23.7,8.5,2.3,7.3,1.5,13.8-1.1,20.9-3,8.5-10.2,15.4-7.2,25h0c3.1,1.5,6.1,3,9.2,4.6.8.4.2,1.6-.5,1.5-11.8-.9-23.2-5.6-33.5-12.5-10.5,5.3-12.8,23.1-27.2,21.9-8.4-.7-17.3-6.2-17.4-15.6s4.7-15.9,13.8-18.6c5.5-1.6,11.4-.6,17.1,1.6a171.88,171.88,0,0,1-26.5-30.6c-2.9-4.3-5.7-8.7-8.2-13.1a2.35,2.35,0,0,1-.8-.2c-5.3-3-13.5,2.3-19.5,2.9-5.4.6-11.5.2-16.4-2.3C142.54,528.39,143,516.19,148.74,507.29Z"/><path class="cls-2" d="M157.7,438.87c5.8,16.8,12.6,33.4,18.5,50.2,6.1,17.6,13.1,34.3,23.6,49.8,9.9,14.6,22.6,27.3,35.9,38.8a83.57,83.57,0,0,0,21.2,13.4c6,2.6,12.5,3.4,17.9,7.2a1.73,1.73,0,0,1,.4,2.4,1.64,1.64,0,0,1-1.1.7c-12.4,2-26.9-6.8-36.7-13.8-14.6-10.4-27.6-24.5-38.6-38.6-25-32.2-32.8-71.2-41.8-109.8-.1-.5.6-.7.7-.3Z"/><path class="cls-2" d="M249.37,559.75a100.62,100.62,0,0,0,5.5,20.2c2.5,6,7.4,9.9,10.2,15.5a1.21,1.21,0,0,1-1.2,1.7c-13.3-2.9-14.5-26.8-15.7-37.2a.67.67,0,0,1,.5-.7.75.75,0,0,1,.7.5Z"/><path class="cls-2" d="M206.94,594.77c8.5-9.3,25.3-15.8,36.6-6.8a.78.78,0,0,1,.2,1c-.1.1-.3.2-.4.3-4.4,1.1-8.4-.8-12.8-1.4-8.5-1.3-16.8,2-22.9,7.8-.5.5-1.2-.4-.7-.9Z"/><path class="cls-2" d="M211.08,527.48c-2.7,5.2-4.1,10.3-3.5,16.1.5,4.8,3.1,9,3.3,13.7a.9.9,0,0,1-.7,1,1.27,1.27,0,0,1-.6-.1c-10.1-6.8-4.5-23.2.7-31.2a.47.47,0,0,1,.8.5Z"/><path class="cls-2" d="M163.54,513c12.1,3.1,23.7,6.4,27.1,19.7.1.4-.5.6-.7.3-6.1-9-16.6-15.6-26.6-19.4a.4.4,0,0,1-.2-.4c0-.1.2-.2.4-.2Z"/><path class="cls-2" d="M185.72,476.28a33.23,33.23,0,0,0-6.2,10.6c-1.4,4.1-1,8.6-1.8,12.9a.46.46,0,0,1-.5.4c-.1,0-.3-.1-.3-.2-5.5-8.9,1.2-18.5,8-24.3.5-.3,1.1.2.8.6Z"/><path class="cls-2" d="M151.81,459c9.3,4.6,15.9,12,18.4,22a.56.56,0,0,1-.5.6c-.2,0-.4,0-.5-.2-5.6-7.1-10.2-16.2-17.7-21.6-.4-.3-.1-1,.3-.8Z"/><path class="cls-3" d="M96.16,523.25c0,.09.18.12.24.21,4.75,12.19,17.11,19.35,28.57,24.25,10,4.16,20.8,6.28,28,15.14,5.1,6.15,10.65,15.77,7.57,24a24,24,0,0,1-8.08,10.45c-.29.29-6.24,3.4-8.41,3.66a32.13,32.13,0,0,1,3.36,9.29.79.79,0,0,1-.78.82.83.83,0,0,1-.71-.39c-1.44-3-2.95-5.69-4.55-8.35-10.2,5-20,8.64-31.46,5.49-8.94-2.45-16.11-9.34-20.92-17-13.08-20-3.58-48.48,6-68C95.32,522.24,96.16,522.67,96.16,523.25Z"/><path class="cls-4" d="M98.72,538.15c4.18,15.69,17.86,28.35,28.48,39.82,8.87,9.72,23.15,23.19,22.28,37.47a1.36,1.36,0,0,1-1.23,1.44A1.29,1.29,0,0,1,147,616c-3.52-7.8-6.4-14.93-11.57-22-5.15-6.82-11.15-13.12-16.85-19.5-9.75-11.18-16.5-21.82-21-35.92-.24-.79.94-1.15,1.13-.44Z"/><path class="cls-4" d="M136.75,561.57c4.37,11.14,10.6,27.93,7.59,40a.67.67,0,0,1-.86.52c-.22,0-.32-.15-.48-.41-1.73-5.61-1.32-11.92-2.05-17.78a102.46,102.46,0,0,0-4.9-22.14.71.71,0,0,1,.33-.43c.13,0,.41.1.37.24Z"/><path class="cls-4" d="M124.3,559.36c1.22,4.16,2.66,8.31,3.79,12.53.88,3.21,2.27,6.69,1.31,10-.15.32-.63.49-.84.15-1.61-2.88-1.47-6.34-2.13-9.57-.82-4.28-1.87-8.55-2.92-12.82a.41.41,0,0,1,.79-.24Z"/><path class="cls-4" d="M108.41,546.61c2.15,4.54,5.34,12.19,3.44,17.18a.4.4,0,0,1-.63-.08c-1-2.22-1-4.63-1.4-7a83.15,83.15,0,0,0-2.06-9.85c0-.22,0-.36.19-.46s.36,0,.46.19Z"/><path class="cls-4" d="M100.25,553.72a36,36,0,0,0,7.6,4.88c1.73.95,4.22,2.37,4.34,4.51a.48.48,0,0,1-.41.48h0c-2.16-.1-4.17-2.28-5.75-3.54A49.5,49.5,0,0,1,99.82,554c-.1-.17.19-.46.43-.26Z"/><path class="cls-4" d="M95.3,564.7A129.6,129.6,0,0,0,110.94,575a67.21,67.21,0,0,0,7.64,3.58c3.7,1.5,7.44,1.13,10.61,3.3.38.24.49,1-.13,1.13-12.67,3.18-25.58-10.53-34-18.09,0-.08-.1-.17,0-.22s.17-.1.23,0Z"/><path class="cls-4" d="M96.29,581a76.82,76.82,0,0,0,45,18.22c1,.1,1.63,1.35.6,2-5.73,3.67-15.06-1.57-20.84-3.81-9.21-3.68-18.19-8.91-25.07-16.09,0-.09-.07-.31,0-.36a.21.21,0,0,1,.27.07Z"/><path class="cls-3" d="M99.87,268.94c-4.4,4.5-5.2,11.3,1.6,14.1,9.9,4.1,22.3,1.8,32.5.7,14-1.5,28,.1,41.9-1.1,12.6-1.1,21.6-7.5,29.9-16,7.5-.1,14.7-1.3,20.6-5.8a.62.62,0,0,0,.1-.7.76.76,0,0,0-.4-.2c-6.3,1-12,2.6-18.1,3.4,1.6-8.2-2.3-15.3-9.3-20.1-9.2-6.4-22.9-5.5-33.6-5a84.94,84.94,0,0,0-38.9,11.2C117.07,254.74,107.27,261.24,99.87,268.94Z"/><path class="cls-5" d="M111.64,274.34c15.8-5.6,31.7-10.4,48.6-11.3a186.71,186.71,0,0,1,25.9.6c5.2.4,12.5,3,17.4.5a.84.84,0,0,0,.4-1.1,1,1,0,0,0-.8-.5c-6.9.6-13.8-1.1-20.7-1.6a182,182,0,0,0-24.5.2c-16.3,1.1-31.6,6.4-46.5,12.8-.2.2-.1.5.2.4Z"/><path class="cls-5" d="M173.47,277c8.6-4.1,19.6-6.4,26.8-12.9a.65.65,0,0,0-.7-1.1,232.81,232.81,0,0,0-26.2,13.7C173.17,276.8,173.37,277,173.47,277Z"/><path class="cls-5" d="M151.26,279.92c9.2-6.5,19.7-10.8,28.8-17.3a.6.6,0,0,0-.6-1c-5.4,2.3-10.4,5.9-15.4,8.9a89.94,89.94,0,0,0-13,9.2c-.1,0-.1.1,0,.2a.14.14,0,0,0,.2,0Z"/><path class="cls-5" d="M132.24,278.88c6.9-5.2,14.1-11.1,21.7-15.2a.69.69,0,0,0,.3-.9.66.66,0,0,0-.9-.3c-3.6,1.4-6.2,4.2-9.1,6.6-4,3.2-8.3,6.1-12.2,9.5a.37.37,0,0,0-.1.3Z"/><path class="cls-5" d="M120.77,277.32c2-1.9,4.1-3.9,6.2-5.7a60.92,60.92,0,0,0,5.5-4.8.22.22,0,0,0-.2-.2c-4.9,1.6-8.9,6.4-11.8,10.5C120.37,277.22,120.57,277.42,120.77,277.32Z"/><path class="cls-5" d="M113.08,265.12a106.21,106.21,0,0,0,11.2,2.4c3.1.4,6.6,1,9.4-.8.1-.1,0-.2-.1-.2-3.4-.2-6.7.2-10.1-.2s-6.9-1.3-10.3-1.8a.32.32,0,0,0-.1.6Z"/><path class="cls-5" d="M127.27,253.15c6.1,2,11.7,5,17.6,7.6,3,1.3,7.7,3.4,10.9,1.7a.32.32,0,0,0-.1-.6c-10.1-.2-18.9-6-28.3-8.9-.2,0-.3.2-.1.2Z"/><path class="cls-5" d="M158.76,251.2c4.2,2.3,8.1,5,12.2,7.4,2.8,1.7,6.1,3.8,9.5,3.6.2,0,.3-.2.3-.4a.35.35,0,0,0-.1-.2c-3.5-2.2-7.9-3.3-11.6-5.3-3.4-1.8-6.6-3.8-10.2-5.4-.1-.1-.3.2-.1.3Z"/><path class="cls-5" d="M177.76,245.06a137.2,137.2,0,0,1,17,13.4c2.3,2.1,5.4,6,8.8,5.3a.62.62,0,0,0,.5-.8.66.66,0,0,0-.4-.5c-3.8-1.4-6.4-4.1-9.4-6.6a91.66,91.66,0,0,0-16.4-10.9.1.1,0,0,0-.1.1Z"/><path class="cls-6" d="M56.77,322.55c4.5-19.4,28.7-6.7,42.9,2.5a311.51,311.51,0,0,1-34.6-40.7,1.8,1.8,0,0,1-1,.2c-3.5-.9-5.4.5-8.6,1.8-4,1.6-9,1.2-13.1.2-6.3-1.4-11.6-9.4-8.1-15.6,3.2-5.7,9.9-5.9,16.3-3.5-6.7-2.8-13.6-6.6-17.7-12.5-3.7-5.5-2-14.7,4.8-16.7s14.2,1,16.5,7.9c2,6.1-.7,12.9.1,19a9.06,9.06,0,0,1,1.1,1.6.6.6,0,0,1,.1.4l4.5,6a21.64,21.64,0,0,1,4.7,6.1q6.3,8,12.9,15.6c-3.8-10.7-5-24.4,7.9-26.3,9-1.3,16.1,4.2,17.2,13.1.5,4.1-1.2,9-4.5,11.5a36.39,36.39,0,0,1-7.6,3.9,20.26,20.26,0,0,0-6.6,5,310.9,310.9,0,0,0,40.1,36.8c1,.8,2.1,1.5,3.1,2.3-7.1-10.7-11.2-23.7-2.6-32.8,8-8.4,21.9-4.1,27.4,4.6,3.3,5.2,2.6,11.7.1,17-1.5,3.2-4.5,5.8-6.9,8.3-3.8,3.8-4.5,6.9-4.8,11.5a173.55,173.55,0,0,0,31.4,14.9,119.83,119.83,0,0,0,25.8,5.5,69.76,69.76,0,0,1-17.5-15.9c-8.1-10.2-10.6-22.6-5.6-34.6,5.1-12.4,22-8.5,28.5.1,5.2,6.9,6.8,14.1,6.8,22.6,0,10.2-5,20.3,1.9,29.3h0c3.8.4,7.7.8,11.5,1.4,1,.1.8,1.6,0,1.8-12.9,3.6-26.8,2.8-40.5-.6-9.2,9.6-4.8,29.4-20.6,33.6-9.2,2.4-20.8,0-24.5-10s-1-18.7,7.6-25c5.3-3.9,11.9-4.9,18.8-4.8a196.13,196.13,0,0,1-40-22.4c-4.8-3.4-9.3-7.1-13.7-10.9a1.39,1.39,0,0,1-.9,0c-6.8-1.2-13.5,7.6-19.7,10.5-5.6,2.6-12.2,4.6-18.4,3.8C58.17,347.35,54.07,334.25,56.77,322.55Z"/><path class="cls-7" d="M40.39,246.24c12.5,15.7,26.1,30.8,38.7,46.4,13.2,16.4,27,31.6,44,44.1,16.1,11.8,34.4,20.5,53,27.7a90.64,90.64,0,0,0,27.6,6.2c7.4.5,14.7-1.1,21.8.9a2,2,0,0,1,1.3,2.4,1.44,1.44,0,0,1-.9,1.1c-12.5,6.8-31.3,3-44.3-.7-19.5-5.6-38.7-15.6-55.7-26.5-38.8-24.7-62-63.3-86.2-101-.3-.4.3-1,.7-.6Z"/><path class="cls-7" d="M183.78,340.15a104.15,104.15,0,0,0,13.6,19.4c5,5.5,11.7,7.8,16.7,12.6a1.39,1.39,0,0,1,0,1.9.86.86,0,0,1-.6.3c-15.3,2.1-25.5-22.8-30.8-33.5a.65.65,0,0,1,.2-.9.63.63,0,0,1,.9.2Z"/><path class="cls-7" d="M152,393.66c5.5-13.2,20.9-26.5,36.4-21.2a.75.75,0,0,1,.5,1,1,1,0,0,1-.4.5c-4.1,2.7-9.1,2.3-14.1,3.3-9.5,1.9-17,8.5-21.4,17-.3.7-1.3.1-1-.6Z"/><path class="cls-7" d="M130.87,320.45c-.9,6.5-.5,12.4,2.3,18.4,2.3,4.9,6.7,8.4,8.8,13.4a1,1,0,0,1-.4,1.3,1.48,1.48,0,0,1-.7.1c-13.3-3.4-13.6-23.1-11.1-33.5.2-.7,1.2-.4,1.1.3Z"/><path class="cls-7" d="M74.63,323c14.1-1.3,27.7-2.2,36.4,10.7.2.4-.2.9-.6.6-10-7.3-23.6-10.3-35.8-10.6-.2,0-.3-.2-.3-.4a.45.45,0,0,1,.3-.3Z"/><path class="cls-7" d="M84.32,275.57a34.93,34.93,0,0,0-2.5,13.6c.1,5,2.2,9.5,3,14.4.1.3-.1.5-.4.6a.9.9,0,0,1-.5-.1c-9.2-7.5-5.7-20.2-.6-28.9a.54.54,0,0,1,1,.4Z"/><path class="cls-7" d="M41.65,270c11.7,1.4,21.5,6.8,28,16.5a.61.61,0,0,1-.3.9.64.64,0,0,1-.6,0c-8.7-5.6-17-13.6-27.2-16.5-.5-.1-.4-1,.1-.9Z"/><path class="cls-1" d="M123.15,108.11c.1,0,.2-.1.3-.1,12.9,2.2,25.4-4.7,35.5-12,8.7-6.4,16.1-14.6,27.4-16.2,7.9-1.2,19-1,24.5,5.9a24,24,0,0,1,4.8,12.3c.1.4-.3,7.1-1.2,9.1a32.13,32.13,0,0,1,9.7,1.9.8.8,0,0,1,.3,1.1.84.84,0,0,1-.7.4c-3.3-.3-6.4-.4-9.5-.4-1,11.3-2.9,21.6-11.5,29.8-6.7,6.4-16.3,9-25.3,9.2-23.9.9-43.4-21.9-55.2-40.2C121.85,108.31,122.65,107.71,123.15,108.11Z"/><path class="cls-2" d="M137.24,113.6c15.6,4.5,33.5-.7,48.8-3.9,12.9-2.6,31.8-7.9,43.6.2a1.37,1.37,0,0,1,.5,1.8,1.28,1.28,0,0,1-1.4.6c-8.5-1.1-16.1-2.3-24.8-1.4s-17,2.8-25.4,4.4c-14.6,2.7-27.2,2.9-41.6-.5-.7-.2-.4-1.4.3-1.2Z"/><path class="cls-2" d="M176.9,93c11.8,2,29.4,5.3,38.2,14.1a.67.67,0,0,1,0,1,.73.73,0,0,1-.6.2c-5.7-1.4-10.9-5-16.3-7.4a99.82,99.82,0,0,0-21.4-7.2c-.2,0-.3-.2-.3-.4a.54.54,0,0,1,.4-.3Z"/><path class="cls-2" d="M168.59,102.55c4.2,1.1,8.5,2.1,12.7,3.3,3.2.9,6.9,1.5,9.2,4a.42.42,0,0,1-.3.7c-3.3-.1-6.2-2-9.3-3.1-4.1-1.5-8.3-2.8-12.5-4.1-.5-.1-.3-.9.2-.8Z"/><path class="cls-2" d="M149.48,109.68c5,.5,13.2,1.7,16.5,5.9.2.2-.1.5-.3.4-2.5-.2-4.6-1.4-6.8-2.4-3.1-1.2-6.3-2.3-9.5-3.3-.2,0-.3-.2-.3-.4a.52.52,0,0,1,.4-.2Z"/><path class="cls-2" d="M151.37,120.32a35.91,35.91,0,0,0,8.1-4c1.7-1,4.2-2.4,6.1-1.4a.48.48,0,0,1,.2.6h0c-1.2,1.8-4.1,2.4-6,3.1a49.47,49.47,0,0,1-8.4,2.2c-.2,0-.3-.4,0-.5Z"/><path class="cls-2" d="M158.24,130.2a131.08,131.08,0,0,0,16.9-8.1,65.79,65.79,0,0,0,7-4.7c3.2-2.4,4.7-5.8,8.3-7.4.4-.2,1.1.1.9.7-3.8,12.5-22.2,16.5-33,19.8-.1,0-.2,0-.2-.1s0-.2.1-.2Z"/><path class="cls-2" d="M172.74,137.71a76.28,76.28,0,0,0,38.8-29.2c.6-.8,2-.7,2,.5.1,6.8-9.1,12.1-14.1,15.9-7.9,6-17,11.1-26.7,13.2-.1,0-.2,0-.3-.2.1,0,.2-.2.3-.2Z"/><path class="cls-1" d="M194.91,354.9c-1.2-4.1-.5-7.9.8-11.8.1-.4-.4-.8-.6-.4-5.4,5.8-2.4,13.4,1.4,19.5a55.6,55.6,0,0,1-8.4-8.4c-2.4-3.1-4.7-6.3-6.8-9.6a28.37,28.37,0,0,1,.1-7.7c0-.2-.1-.4-.3-.4s-.3.1-.3.2a7.89,7.89,0,0,0-1.1,5c-1.6-2.6-2.9-5.2-4.2-7.8-.1-.3-.4-.4-.6-.2a.37.37,0,0,0-.2.5c.5,1.3,1.1,2.6,1.7,3.9a12.11,12.11,0,0,0-5.3-.9c-.4,0-.4.6-.1.7,1.2.4,2.4.7,3.6,1a9.59,9.59,0,0,1,2.9,1.7,93.06,93.06,0,0,0,7.1,13.2,34.34,34.34,0,0,0-15.2-5.1.43.43,0,0,0-.4.4c0,.2.1.3.3.4,2.8,1.2,5.9,2,8.8,3a50,50,0,0,1,8.9,4.6c4.8,6.4,10.9,11.5,18.6,13.2a.57.57,0,0,0,.5-1c-2.4-1.6-4.8-3.2-7-4.9A41.84,41.84,0,0,1,194.91,354.9Z"/><path class="cls-1" d="M170.8,345.8a5.53,5.53,0,1,1-7.7,1.4,5.58,5.58,0,0,1,7.7-1.4Z"/><path class="cls-1" d="M170.3,332.8a5.53,5.53,0,1,1-7.7,1.4,5.58,5.58,0,0,1,7.7-1.4Z"/><path class="cls-1" d="M177.3,324.4a5.53,5.53,0,1,1-7.7,1.4,5.49,5.49,0,0,1,7.7-1.4Z"/><path class="cls-1" d="M187.1,331.4a5.53,5.53,0,1,1-7.7,1.4,5.4,5.4,0,0,1,7.7-1.4Z"/><path class="cls-1" d="M199.3,339.8a5.53,5.53,0,1,1-7.7,1.4,5.47,5.47,0,0,1,7.7-1.4Z"/><path class="cls-8" d="M169.54,353.9a3.12,3.12,0,0,1-2.8-.4,4.81,4.81,0,0,1-1.1-.9c-.3-.3-.4-.7-.8-.9a.91.91,0,0,0-1.1.2.35.35,0,0,0-.1.2c-.4,1.3,1,2.3,2.1,2.7a5.79,5.79,0,0,0,3.9-.2c.4-.3.2-.8-.1-.7Z"/><path class="cls-8" d="M164.69,350.66c-.2-.6,0-1.1-.5-1.5,0-.1-.2-.1-.3,0a1.66,1.66,0,0,0-.2,1.9c.3.5,1.2.2,1-.4Z"/><path class="cls-8" d="M168.78,341.05a5.09,5.09,0,0,1-3.2-1c-1-.7-1-1.8-1.5-2.8a1,1,0,0,0-1.2-.4c-.3.1-.4.4-.5.7a3.84,3.84,0,0,0,2,3.5c1.2.8,3,.7,4.4.6a.32.32,0,0,0,.3-.3.27.27,0,0,0-.3-.3Z"/><path class="cls-8" d="M163.64,336.51c.1-.4.5-.7.4-1.2,0-.1-.2-.2-.3-.2h-.1c-.5.2-.5.8-.5,1.3,0,.1.1.2.2.3s.2-.1.3-.2Z"/><path class="cls-8" d="M171,328.68a5.11,5.11,0,0,1,1.5-2.1c.4-.3,1-.7.6-1.3a.85.85,0,0,0-.6-.2c-1.6.4-1.9,2.1-2,3.5a.27.27,0,0,0,.3.3c.1,0,.2,0,.2-.2Z"/><path class="cls-8" d="M173.38,325.55h0c0-.1-.1-.1,0,0-.1-.1-.1,0,0,0Z"/><path class="cls-8" d="M174.24,325.83c.6-.1,1.2-.1,1.8-.2a.15.15,0,0,0,0-.3,4,4,0,0,0-1.9-.3c-.5.1-.3.9.1.8Z"/><path class="cls-8" d="M182.38,331.6a4.09,4.09,0,0,1,2.6,1.1c.7.5,1.1,1.3,2,1.5.5.1.9-.4,1-.9.2-1.3-1.2-2-2.2-2.2a9.71,9.71,0,0,0-3.4,0,.25.25,0,0,0,0,.5Z"/><path class="cls-8" d="M187.59,336.07c-.1.2-.1.3-.2.5a.57.57,0,0,0,.4.7.71.71,0,0,0,.6-.3c0-.1.1-.3.1-.4a.61.61,0,0,0-.3-.7c-.2,0-.5,0-.6.2Z"/><path class="cls-8" d="M193.51,342a2.41,2.41,0,0,1,2.3-.3c.8.2,1.7.8,2.5.6a.71.71,0,0,0,.6-.9v-.2c-.4-1-2.1-1.4-3.1-1.4a3.36,3.36,0,0,0-2.9,1.6C192.61,341.82,193.21,342.32,193.51,342Z"/><path class="cls-8" d="M200.17,343.74a1.93,1.93,0,0,0,.3,1,.19.19,0,0,0,.3,0,.1.1,0,0,1,.1-.1c0-.3.1-.6.1-.9.1-.5-.8-.6-.8,0Z"/><path class="cls-1" d="M211.5,180.15c-1.2-4.1-.5-7.9.8-11.8.1-.4-.4-.8-.6-.4-5.4,5.8-2.4,13.4,1.4,19.5a55.6,55.6,0,0,1-8.4-8.4c-2.4-3.1-4.7-6.3-6.8-9.6a28.37,28.37,0,0,1,.1-7.7c0-.2-.1-.4-.3-.4s-.3.1-.3.2a7.89,7.89,0,0,0-1.1,5c-1.6-2.6-2.9-5.2-4.2-7.8-.1-.3-.3-.4-.6-.2a.37.37,0,0,0-.2.5c.5,1.3,1.1,2.6,1.7,3.9a12.11,12.11,0,0,0-5.3-.9c-.4,0-.4.6-.1.7,1.2.4,2.4.7,3.6,1a9.59,9.59,0,0,1,2.9,1.7,93.06,93.06,0,0,0,7.1,13.2,34.34,34.34,0,0,0-15.2-5.1.43.43,0,0,0-.4.4c0,.2.1.3.3.4,2.8,1.2,5.9,2,8.8,3a50,50,0,0,1,8.9,4.6c4.8,6.4,10.9,11.5,18.6,13.2a.57.57,0,0,0,.5-1c-2.4-1.6-4.8-3.2-7-4.9A41.84,41.84,0,0,1,211.5,180.15Z"/><path class="cls-1" d="M187.39,171.05a5.53,5.53,0,1,1-7.7,1.4,5.58,5.58,0,0,1,7.7-1.4Z"/><path class="cls-1" d="M186.89,158.05a5.53,5.53,0,1,1-7.7,1.4,5.58,5.58,0,0,1,7.7-1.4Z"/><path class="cls-1" d="M193.89,149.65a5.53,5.53,0,1,1-7.7,1.4,5.49,5.49,0,0,1,7.7-1.4Z"/><path class="cls-1" d="M203.69,156.65a5.53,5.53,0,1,1-7.7,1.4,5.4,5.4,0,0,1,7.7-1.4Z"/><path class="cls-1" d="M215.89,165.05a5.53,5.53,0,1,1-7.7,1.4,5.47,5.47,0,0,1,7.7-1.4Z"/><path class="cls-8" d="M186.13,179.15a3.12,3.12,0,0,1-2.8-.4,4.81,4.81,0,0,1-1.1-.9c-.3-.3-.4-.7-.8-.9a.91.91,0,0,0-1.1.2.35.35,0,0,0-.1.2c-.4,1.3,1,2.3,2.1,2.7a5.79,5.79,0,0,0,3.9-.2c.4-.3.2-.8-.1-.7Z"/><path class="cls-8" d="M181.28,175.91c-.2-.6,0-1.1-.5-1.5,0-.1-.2-.1-.3,0a1.66,1.66,0,0,0-.2,1.9c.3.5,1.2.2,1-.4Z"/><path class="cls-8" d="M185.37,166.29a5.09,5.09,0,0,1-3.2-1c-1-.7-1-1.8-1.5-2.8a1,1,0,0,0-1.2-.4c-.3.1-.4.4-.5.7a3.84,3.84,0,0,0,2,3.5c1.2.8,3,.7,4.4.6a.32.32,0,0,0,.3-.3.27.27,0,0,0-.3-.3Z"/><path class="cls-8" d="M180.23,161.76c.1-.4.5-.7.4-1.2,0-.1-.2-.2-.3-.2h-.1c-.5.2-.5.8-.5,1.3,0,.1.1.2.2.3s.2-.1.3-.2Z"/><path class="cls-8" d="M187.63,153.93a5.11,5.11,0,0,1,1.5-2.1c.4-.3,1-.7.6-1.3-.1-.2-.3-.2-.6-.2-1.6.4-1.9,2.1-2,3.5a.27.27,0,0,0,.3.3c.1,0,.2,0,.2-.2Z"/><path class="cls-8" d="M190,150.79h0c0-.1-.1-.1,0,0-.1-.1-.1,0,0,0Z"/><path class="cls-8" d="M190.83,151.07c.6-.1,1.2-.1,1.8-.2a.15.15,0,1,0,0-.3,4,4,0,0,0-1.9-.3c-.5.1-.3.9.1.8Z"/><path class="cls-8" d="M199,156.85a4.09,4.09,0,0,1,2.6,1.1c.7.5,1.1,1.3,2,1.5.5.1.9-.4,1-.9.2-1.3-1.2-2-2.2-2.2a9.71,9.71,0,0,0-3.4,0,.25.25,0,0,0,0,.5Z"/><path class="cls-8" d="M204.18,161.32c-.1.2-.1.3-.2.5a.57.57,0,0,0,.4.7.71.71,0,0,0,.6-.3c0-.1.1-.3.1-.4a.61.61,0,0,0-.3-.7c-.2,0-.5,0-.6.2Z"/><path class="cls-8" d="M210.1,167.26a2.41,2.41,0,0,1,2.3-.3c.8.2,1.7.8,2.5.6a.71.71,0,0,0,.6-.9v-.2c-.4-1-2.1-1.4-3.1-1.4a3.36,3.36,0,0,0-2.9,1.6C209.2,167.06,209.8,167.56,210.1,167.26Z"/><path class="cls-8" d="M216.76,169a1.93,1.93,0,0,0,.3,1,.19.19,0,0,0,.3,0,.1.1,0,0,1,.1-.1c0-.3.1-.6.1-.9.1-.5-.8-.6-.8,0Z"/><path class="cls-1" d="M146.1,147.34c10.3,23.6,21.5,46.6,38.4,66.2a151.89,151.89,0,0,0,23.3,21.3c7.7,5.7,16.2,8.8,24.8,12.8.5.2.2,1.1-.3,1-18.1-.6-35.4-18.5-47.1-30.7-18.6-19.4-29.7-45.7-39.7-70.3-.1-.4.4-.7.6-.3Z"/><path class="cls-1" d="M232.05,248.19c-8.8-3-16.5-5-24.2-10.6a94.17,94.17,0,0,1-18.6-18.7c-12-15.4-17.9-31.6-22.4-50.2-.1-.3.3-.4.5-.1,3.1,8.1,5.1,16.6,8.7,24.5,3.4,7.5,8.3,14.7,12.9,21.5a105.77,105.77,0,0,0,17.8,19.4c7.6,6.7,16.5,9.4,25.6,13.4a.43.43,0,1,1-.3.8Z"/><path class="cls-1" d="M204.22,235.46c-16.1-10.4-31.2-24.4-44.2-38.4-13.6-14.7-22.9-31.3-27.6-50.8a.48.48,0,0,1,.9-.3c3.4,7.7,5.8,15.9,9.4,23.7,4.4,9.8,11.6,18,18.9,25.8a232,232,0,0,0,21,19.9c7.4,6.3,14.2,13.6,22.1,19.2.5.5.1,1.3-.5.9Z"/><path class="cls-1" d="M166.29,190.92c-10.6-9.1-19.9-24.2-23.9-37.6,0-.2.1-.4.3-.4a.4.4,0,0,1,.4.2c6.6,12.6,13.9,26.9,24,37.2.4.4-.3,1.1-.8.6Z"/><path class="cls-1" d="M174.6,211.31c-18.7-8.2-31.5-21.1-43.9-36.9a.42.42,0,0,1,.6-.6c6.2,6,11.7,12.5,17.9,18.5,7.4,7.2,17,12.9,26,18,.6.4,0,1.3-.6,1Z"/><path class="cls-1" d="M193.76,222.54c-6.9-10.9-10.4-24.2-14.9-36.2-.2-.6.6-.8.9-.4,7.4,10.7,9.3,24.5,14.7,36.2.1.2,0,.4-.2.6s-.4,0-.5-.2Z"/><path class="cls-1" d="M129,147.67a3.89,3.89,0,1,0,6.8-3.8,3.73,3.73,0,0,0-5.2-1.5,3.93,3.93,0,0,0-1.6,5.3Z"/><path class="cls-1" d="M128.26,176.87a3.89,3.89,0,1,0,6.8-3.8,3.93,3.93,0,0,0-5.3-1.5h0A3.82,3.82,0,0,0,128.26,176.87Z"/><path class="cls-1" d="M138.26,156.37a3.89,3.89,0,1,0,6.8-3.8,3.93,3.93,0,0,0-5.3-1.5h0A3.93,3.93,0,0,0,138.26,156.37Z"/><path class="cls-1" d="M141.76,148.07a3.89,3.89,0,1,0,1.5-5.3A3.82,3.82,0,0,0,141.76,148.07Z"/><path class="cls-1" d="M163.16,172a3.89,3.89,0,1,0,1.5-5.3h0a4,4,0,0,0-1.5,5.3Z"/><path class="cls-1" d="M176.26,188.57a3.89,3.89,0,1,0,1.5-5.3h0A3.82,3.82,0,0,0,176.26,188.57Z"/><path class="cls-1" d="M99,421a.37.37,0,0,0,.3-.1c11.2-6.8,25.4-5,37.4-1.9,10.5,2.7,20.4,7.6,31.5,5,7.8-1.8,18-6,20.6-14.5a24.65,24.65,0,0,0-.1-13.2c-.1-.4-2.9-6.5-4.5-8a31.65,31.65,0,0,0,8.3-5.3c.6-.5-.2-1.7-.9-1.3-2.9,1.4-5.8,2.7-8.6,3.9-5.2-10.2-10.7-19.1-21.7-23.5-8.6-3.5-18.4-2.4-26.9.7-22.5,8.1-32.3,36.5-36.5,57.8-.1.3.2.6.5.7S98.85,421.21,99,421Z"/><path class="cls-2" d="M110.05,410.77c12.8-10,31.5-11.7,46.9-14.4,13-2.3,32.4-4.4,40.5-16.2a1.3,1.3,0,0,0-1.7-1.9c-7.6,4.1-14.2,8-22.6,10.4s-16.8,3.6-25.3,5.3c-14.6,2.9-26.4,7.3-38.5,15.8-.6.4.1,1.5.7,1Z"/><path class="cls-2" d="M154.58,415.31c10.2-6.2,25.4-15.8,30.3-27.2a.74.74,0,0,0-1-.9c-4.8,3.4-8.3,8.7-12.4,12.9a100.63,100.63,0,0,1-17.3,14.6c-.4.2,0,.8.4.6Z"/><path class="cls-2" d="M143.24,409.45c3.5-2.6,7.1-5,10.6-7.7,2.6-2,5.8-3.9,7-7.1.1-.3-.2-.8-.5-.6-3,1.3-5,4.1-7.5,6.3-3.2,2.9-6.6,5.7-10,8.5-.4.3,0,.9.4.6Z"/><path class="cls-2" d="M122.88,409.91c4.4-2.3,11.7-6.5,13.1-11.6.1-.3-.3-.4-.4-.3a26.82,26.82,0,0,0-5.4,4.7,98.83,98.83,0,0,1-7.7,6.6.45.45,0,0,0,0,.5c.1.1.3.2.4.1Z"/><path class="cls-2" d="M120.65,399.35c3.1-.3,5.9.3,9,.7,2,.3,4.7.7,6.2-.9.2-.2.1-.4,0-.6-1.8-1.3-4.7-.8-6.8-.7a48.13,48.13,0,0,0-8.5,1c-.2.1-.1.5.1.5Z"/><path class="cls-2" d="M123.53,387.65a129.62,129.62,0,0,1,18.7,1.3,61.58,61.58,0,0,1,8.3,1.8c3.8,1,6.5,3.6,10.5,3.9.5,0,1-.5.6-1-8.3-10.3-26.9-7.3-38.2-6.4a.35.35,0,0,0-.1.2.22.22,0,0,0,.2.2Z"/><path class="cls-2" d="M134.13,375.29a77.13,77.13,0,0,1,46.9,12.8,1.08,1.08,0,0,0,1.7-1.2c-2.4-6.4-13-7.9-19-9.6-9.4-2.6-19.8-4-29.6-2.4a.2.2,0,0,0,0,.4Z"/><path class="cls-3" d="M3.76,99.86c-6.62,11.07-5.15,24.78,9.68,27.24,21.54,3.63,45.17-6.46,65.13-13.32,27.22-9.32,55.77-12.39,83-21.29,24.55-7.85,39.67-24.6,52.51-45.41,14.9-3.46,28.66-9.21,38.42-20.88a.92.92,0,0,0-.24-1.32,1,1,0,0,0-.94-.1c-12.1,4.76-22.78,10.63-34.43,15-.54-17.17-11.52-29.44-27.63-35.94C168-4.84,141.19,3.15,120.11,9,92.68,16.64,68.43,29.8,47.57,49.17,31.63,63.88,15.08,81.16,3.76,99.86Z"/><path class="cls-5" d="M29.83,105.38c29-18.45,58.46-35.16,91.72-44.58a390.16,390.16,0,0,1,52-10.51c10.66-1.44,26.21.43,34.86-6.9a1.67,1.67,0,0,0-1.57-2.88c-13.45,4.22-28.09,3.94-42,6.15a353.71,353.71,0,0,0-48.76,11.39c-32,9.62-60,27-86.85,46.62a.38.38,0,0,0-.07.58.6.6,0,0,0,.66.13Z"/><path class="cls-5" d="M154.24,82.54c15.43-11.94,36.29-21.41,47.54-37.75a1.23,1.23,0,0,0-.3-1.88,1.38,1.38,0,0,0-1.64,0c-15.57,12-32,25.29-46,39.2-.18.24.15.62.41.45Z"/><path class="cls-5" d="M111.28,98.39C126.73,81.39,145.75,68,161,50.91c.95-1-.57-2.36-1.62-1.66-9.91,7-18.08,16.47-26.83,24.74a175.18,175.18,0,0,0-21.63,24.09.25.25,0,0,0,.39.31Z"/><path class="cls-5" d="M72.83,105C84.22,91.59,96,76.54,109.3,64.86a1.37,1.37,0,0,0,.26-2,1.62,1.62,0,0,0-2-.26C101.16,67,97.22,73.82,92.48,79.89,86,88.24,78.71,96,72.27,104.59a.32.32,0,0,0,.06.42c.23.19.37.17.5,0Z"/><path class="cls-5" d="M49.31,107.12c3.19-4.74,6.39-9.48,9.81-14.17,2.92-4.06,6.27-7.54,8.64-12,.18-.24-.19-.41-.39-.31-9,5.44-14.69,16.83-18.67,26.16a.36.36,0,0,0,.61.35Z"/><path class="cls-5" d="M28.45,86.2A172.2,172.2,0,0,0,51.94,86c6.42-.58,13.55-1.09,18.31-5.88a.3.3,0,0,0-.27-.47c-6.77,1.19-13.26,3.48-20.3,4.2s-14.17.6-21.31,1.11a.62.62,0,0,0,.08,1.21Z"/><path class="cls-5" d="M51.27,56c13.12,1.25,25.66,4.7,38.58,7.18,6.49,1.27,16.92,3.2,22.47-1.47.45-.42.27-1.32-.49-1.15-20,4-40.41-3.53-60.47-5-.28,0-.37.48-.09.44Z"/><path class="cls-5" d="M113.16,37.84c9.31,2.71,18.43,6.15,27.71,9.22,6.46,2.13,13.91,4.78,20.65,2.81a.68.68,0,0,0,0-1.28c-7.91-2.88-17.11-3-25.45-5.29-7.6-2.13-15-4.64-22.84-6.18-.28,0-.36.61-.06.72Z"/><path class="cls-5" d="M148.43,17.05a266,266,0,0,1,40,19c5.46,3.25,13.41,9.47,20.05,6.67a1.43,1.43,0,0,0,.78-1.81,1.5,1.5,0,0,0-1-.8c-8.27-1.27-14.61-5.33-21.84-9.08a185.74,185.74,0,0,0-37.81-14.32c-.22-.05-.26.17-.11.3Z"/></g></g></g></svg>