<svg xmlns="http://www.w3.org/2000/svg" width="298.847" height="357.625" viewBox="0 0 298.847 357.625"><g transform="translate(-20.75 343.602) rotate(-112)"><path d="M44,278.867a3.03,3.03,0,0,1,.566-.753c3.269-3.2,17.5,3.075,21.92,3.737a64.468,64.468,0,0,1,10.1,1.883c14.324,4.567,24.234,22.447,32.783,33.834,3.576,4.763,10.069,23.541,15.289,25.139-19.681-5.542-39.8-11.35-56.351-23.357-5.275-3.827-10.228-8.384-13.153-14.208-1.364-2.714-2.254-5.637-3.406-8.447C50.178,292.866,41.683,283.23,44,278.867Z" fill="#2e5c80"/><path d="M104.035,325.99c-18.841-19.871-37.86-31.586-60.1-46.973a4.22,4.22,0,0,0-.288,2.288C66.282,295.785,79.475,312.447,104.035,325.99Z" fill="#012428"/><path d="M77.284,289.62c5.729.559,11.618.726,17.132-.925,11.59-3.47,19.7-14.322,31.093-18.381-10.862-7.246-19.627-12.757-32.919-11.7-9.555.76-19.539,1.657-27.632,6.792-6.442,4.088-13.316,7.4-19.677,11.647-.786.525-1.638,1.19-1.716,2.131C43.089,284.913,72.545,289.157,77.284,289.62Z" fill="#2e5c80"/><path d="M107.21,270.732c-6.572,1.133-13.311,3.047-20.121,4.93A128.148,128.148,0,0,0,107.21,270.732Z" fill="#012428"/><path d="M87.089,275.662c-13.909,2.274-27.953,2.422-42.081,1.578a2.893,2.893,0,0,0-1.443,1.943,1.643,1.643,0,0,0,.023.3C57.815,283.528,72.615,279.664,87.089,275.662Z" fill="#012428"/><path d="M64.551,307.66c2.446,5.211,4.576,10.7,4.867,16.453.613,12.082-6.9,23.355-6.9,35.453-10.465-7.807-18.6-14.22-22.052-27.1-2.485-9.258-4.984-18.965-2.857-28.311,1.694-7.439,2.509-15.025,4.383-22.441a3.22,3.22,0,0,1,1.433-2.332C48.661,277.018,62.527,303.35,64.551,307.66Z" fill="#2e5c80"/><path d="M48.863,315.8c-.573,10.211,4.9,19.38,8.858,28.81-5.888-16.1-4.847-32.614-9.224-48.972-.782-4.532-3.7-7.919-3.6-11.826-.267-1.549-.617-3.061-1.019-4.551a1.688,1.688,0,0,0-.306.083C46.234,290.837,48.674,302.49,48.863,315.8Z" fill="#012428"/><path d="M41.916,289.9c-3.16-2.922-9.353-13.76-5.6-17.48,2.63-2.611,6.761-2.856,10.456-2.566a54.992,54.992,0,0,1,10.612,1.892c-3.844,1.921-8.927,3.465-11.644,6.878C44.854,279.728,41.091,289.134,41.916,289.9Z" fill="#055c49"/><path d="M-53.229,215.343c-1.869-.236-3.736-.431-5.592-.6l-1.929,2.824c6.127,1.928,12.479,3.053,18.65,4.832C-24.953,227.34-9.776,237.165,4.281,247.9c13.337,10.189,25.77,19.811,37.634,31.744.553.557,1.418-2.767,1.353-3.258-.229-1.734-3.293-4.019-4.484-5.189a134.11,134.11,0,0,0-11.761-9.888L.037,240.3c-3.915-3.048-7.651-6.221-12-8.462-4.309-2.22-9.236-4.2-13.212-7.009C-33.468,218.972-43.363,216.588-53.229,215.343Z" fill="#055c49"/><path d="M131.516,194.231a16.125,16.125,0,0,0-1.984.839,5.359,5.359,0,0,0-1.664,1.2,3.145,3.145,0,0,0,2.138,5.175c4.445.359,15.475,3.546,12.322-5.357C140.912,192.09,135.165,192.943,131.516,194.231Z" fill="#dc8655"/><path d="M145.561,213.589a50.159,50.159,0,0,0,10.531-1.181,3.844,3.844,0,0,0,.436-.737c.022-.05.043-.1.063-.152a3.2,3.2,0,0,0-1.39-3.96c-3.078-1.453-5.611-1.486-9.017-1.7a1.4,1.4,0,0,0-1.691.883c-.7,1.235-1.423,2.615-1.127,4A4.413,4.413,0,0,0,145.561,213.589Z" fill="#dc8655"/><path d="M165.649,200.573c-.214,4.855-7.3,2.485-10.145,1.5a6.972,6.972,0,0,1-3.127-1.942,3.523,3.523,0,0,1-.724-3.472c1.442-3.594,11.864-2.473,13.534.571A6.308,6.308,0,0,1,165.649,200.573Z" fill="#dc8655"/><path d="M157.864,190.4c-3.089.472-5.88-.079-8.018-2.565a1.524,1.524,0,0,1-.347-.565,1.462,1.462,0,0,1,0-.628,4.232,4.232,0,0,1,2.477-3.27c1.3-.5,5.76.755,7.048,1.416,1.665.855,2.6,3.32,1.277,4.647A4.236,4.236,0,0,1,157.864,190.4Z" fill="#dc8655"/><path d="M143.573,187.675c-2.613.58-11.7,1.145-11.364-3.768.2-3.008,6.907-3.005,9.164-3.177,2.779-.212,6.881,4.025,3.636,6.4A3.784,3.784,0,0,1,143.573,187.675Z" fill="#dc8655"/><path d="M122.755,169.773a4.994,4.994,0,0,0,2.525,1.654,12.067,12.067,0,0,0,4.663.632c1.8-.112,3.925-1.044,4.027-2.842.083-1.461-1.276-2.1-2.158-2.991a2.256,2.256,0,0,0-1.476-.5C128.34,165.576,119.83,165.666,122.755,169.773Z" fill="#dc8655"/><path d="M139.6,175.667a4.981,4.981,0,0,0,2.524,1.654,12.067,12.067,0,0,0,4.663.632c1.8-.112,3.925-1.044,4.027-2.842.083-1.461-1.276-2.1-2.157-2.991a2.26,2.26,0,0,0-1.477-.5C145.18,171.47,136.671,171.56,139.6,175.667Z" fill="#dc8655"/><path d="M157.278,179.6a4.989,4.989,0,0,0,2.524,1.655,12.085,12.085,0,0,0,4.663.631c1.8-.111,3.926-1.044,4.028-2.842.083-1.46-1.277-2.1-2.158-2.991a2.264,2.264,0,0,0-1.477-.5C162.862,175.4,154.353,175.49,157.278,179.6Z" fill="#dc8655"/><path d="M129.851,189.017c.224,3.381-5.527,3.747-7.631,2.9-1.356-.543-2.323-2.289-1.525-3.512.631-.968,1.958-1.131,3.112-1.2C125.724,187.1,129.641,185.859,129.851,189.017Z" fill="#dc8655"/><path d="M120.682,175.387c2.535-.244,6.424,2.126,2.484,3.983a6.739,6.739,0,0,1-2.62.462c-2.1.089-4.5.047-5.858-1.555a1.63,1.63,0,0,1,.742-2.149C116.583,175.48,119.371,175.512,120.682,175.387Z" fill="#dc8655"/><path d="M173.167,188.578c2.535-.243,6.425,2.127,2.485,3.984a6.78,6.78,0,0,1-2.62.462c-2.1.088-4.505.046-5.859-1.555a1.63,1.63,0,0,1,.743-2.15C169.069,188.671,171.856,188.7,173.167,188.578Z" fill="#dc8655"/><path d="M158.292,163.879c2.535-.243,6.424,2.127,2.484,3.984a6.777,6.777,0,0,1-2.62.462c-2.1.088-4.505.046-5.858-1.555a1.631,1.631,0,0,1,.742-2.15C154.193,163.972,156.981,164.005,158.292,163.879Z" fill="#dc8655"/><path d="M144.4,92.15C127.234,88.5,109.125,93.4,91.786,87.764,72.46,81.477,53.435,79.9,33.163,81.086c-17.57,1.03-35.834,3.631-50.3,13.656-16.784,11.632-37.781,38.936-28.188,60.913a25.387,25.387,0,0,0,18.554,14.587c4.589.8,10.968,1.837,10.949,6.5a8.87,8.87,0,0,1-1.663,4.3,74.245,74.245,0,0,0-8.123,19.753c-.742,2.962-1.288,6.151-.226,9.014,1.435,3.866,5.4,6.133,9.2,7.729,38.684,16.233,79.259-7.021,101.649-37.989,9.427-13.038,18.3-26.64,24.258-41.585,3.954-9.913,6.653-20.459,12.428-29.435C127.8,99.047,136.282,97.286,144.4,92.15Z" fill="#de4525"/><path d="M15.236,155.418c25.94-13.388,46.022-32.633,71.125-45.185,4.513-2.256,8.786-5,13.337-7.175C68.936,114.075,44.04,137.4,15.236,152.908c-11.629,6.121-21.917,14.476-33.48,19.834a4.685,4.685,0,0,1,2.362,3.272A67.188,67.188,0,0,0-.662,165.459,83.561,83.561,0,0,1,15.236,155.418Z" fill="#efe9dd"/><path d="M99.7,103.058a109.155,109.155,0,0,1,12.6-3.7A35.7,35.7,0,0,0,99.7,103.058Z" fill="#efe9dd"/><path d="M46.754,159.881" fill="none" stroke="#efe9dd" stroke-miterlimit="10" stroke-width="0.5"/><path d="M18.862,181.079" fill="none" stroke="#efe9dd" stroke-miterlimit="10" stroke-width="0.5"/><path d="M46.754,177.174" fill="none" stroke="#efe9dd" stroke-miterlimit="10" stroke-width="0.5"/><path d="M68.51,169.922" fill="none" stroke="#efe9dd" stroke-miterlimit="10" stroke-width="0.5"/><path d="M53.448,140.357" fill="none" stroke="#efe9dd" stroke-miterlimit="10" stroke-width="0.5"/><path d="M74.646,148.724" fill="none" stroke="#efe9dd" stroke-miterlimit="10" stroke-width="0.5"/><path d="M81.34,172.711" fill="none" stroke="#efe9dd" stroke-miterlimit="10" stroke-width="0.5"/><path d="M61.816,190" fill="none" stroke="#efe9dd" stroke-miterlimit="10" stroke-width="0.5"/><path d="M31.135,210.087" fill="none" stroke="#efe9dd" stroke-miterlimit="10" stroke-width="0.5"/><path d="M27.788,194.467" fill="none" stroke="#efe9dd" stroke-miterlimit="10" stroke-width="0.5"/><path d="M1.569,210.087" fill="none" stroke="#efe9dd" stroke-miterlimit="10" stroke-width="0.5"/><path d="M-4.567,184.426" fill="none" stroke="#efe9dd" stroke-miterlimit="10" stroke-width="0.5"/><path d="M81.9,123.622" fill="none" stroke="#efe9dd" stroke-miterlimit="10" stroke-width="0.5"/><path d="M94.728,147.609" fill="none" stroke="#efe9dd" stroke-miterlimit="10" stroke-width="0.5"/><path d="M100.307,121.948" fill="none" stroke="#efe9dd" stroke-miterlimit="10" stroke-width="0.5"/><path d="M117.042,104.655" fill="none" stroke="#efe9dd" stroke-miterlimit="10" stroke-width="0.5"/><path d="M130.988,94.614" fill="none" stroke="#efe9dd" stroke-miterlimit="10" stroke-width="0.5"/><path d="M98.633,94.056" fill="none" stroke="#efe9dd" stroke-miterlimit="10" stroke-width="0.5"/><path d="M74.646,87.92" fill="none" stroke="#efe9dd" stroke-miterlimit="10" stroke-width="0.5"/><path d="M86.361,97.961" fill="none" stroke="#efe9dd" stroke-miterlimit="10" stroke-width="0.5"/><path d="M71.3,108" fill="none" stroke="#efe9dd" stroke-miterlimit="10" stroke-width="0.5"/><path d="M64.605,97.961" fill="none" stroke="#efe9dd" stroke-miterlimit="10" stroke-width="0.5"/><path d="M48.428,86.246" fill="none" stroke="#efe9dd" stroke-miterlimit="10" stroke-width="0.5"/><path d="M35.6,99.635" fill="none" stroke="#efe9dd" stroke-miterlimit="10" stroke-width="0.5"/><path d="M49.543,119.159" fill="none" stroke="#efe9dd" stroke-miterlimit="10" stroke-width="0.5"/><path d="M50.1,105.213" fill="none" stroke="#efe9dd" stroke-miterlimit="10" stroke-width="0.5"/><path d="M33.924,119.717" fill="none" stroke="#efe9dd" stroke-miterlimit="10" stroke-width="0.5"/><path d="M21.094,89.593" fill="none" stroke="#efe9dd" stroke-miterlimit="10" stroke-width="0.5"/><path d="M.454,103.539" fill="none" stroke="#efe9dd" stroke-miterlimit="10" stroke-width="0.5"/><path d="M19.978,108.56" fill="none" stroke="#efe9dd" stroke-miterlimit="10" stroke-width="0.5"/><path d="M22.209,137.568" fill="none" stroke="#efe9dd" stroke-miterlimit="10" stroke-width="0.5"/><path d="M6.59,125.853" fill="none" stroke="#efe9dd" stroke-miterlimit="10" stroke-width="0.5"/><path d="M-40.269,129.758" fill="none" stroke="#efe9dd" stroke-miterlimit="10" stroke-width="0.5"/><path d="M-.1,150.4" fill="none" stroke="#efe9dd" stroke-miterlimit="10" stroke-width="0.5"/><path d="M-25.207,127.526" fill="none" stroke="#efe9dd" stroke-miterlimit="10" stroke-width="0.5"/><path d="M-11.261,116.928" fill="none" stroke="#efe9dd" stroke-miterlimit="10" stroke-width="0.5"/><path d="M-13.492,100.75" fill="none" stroke="#efe9dd" stroke-miterlimit="10" stroke-width="0.5"/><path d="M-11.819,137.01" fill="none" stroke="#efe9dd" stroke-miterlimit="10" stroke-width="0.5"/><path d="M-35.806,149.84" fill="none" stroke="#efe9dd" stroke-miterlimit="10" stroke-width="0.5"/><path d="M-20.744,148.724" fill="none" stroke="#efe9dd" stroke-miterlimit="10" stroke-width="0.5"/><path d="M-20.186,163.786" fill="none" stroke="#efe9dd" stroke-miterlimit="10" stroke-width="0.5"/><path d="M6.032,171.6" fill="none" stroke="#efe9dd" stroke-miterlimit="10" stroke-width="0.5"/><path d="M12.726,196.141" fill="none" stroke="#efe9dd" stroke-miterlimit="10" stroke-width="0.5"/><path d="M-16.281,203.392" fill="none" stroke="#efe9dd" stroke-miterlimit="10" stroke-width="0.5"/><path d="M46.754,197.256" fill="none" stroke="#efe9dd" stroke-miterlimit="10" stroke-width="0.5"/><path d="M74.646,134.778" fill="none" stroke="#efe9dd" stroke-miterlimit="10" stroke-width="0.5"/><path d="M24.441,159.881" fill="none" stroke="#efe9dd" stroke-miterlimit="10" stroke-width="0.5"/><path d="M93.055,133.663" fill="none" stroke="#efe9dd" stroke-miterlimit="10" stroke-width="0.5"/><path d="M101.98,109.676" fill="none" stroke="#efe9dd" stroke-miterlimit="10" stroke-width="0.5"/><path d="M194.352,293.5c.2,4.729,1.867,12.748-1.439,16.571a9.1,9.1,0,0,1-9.636,2.5c-3.7-1.281-6.168-4.7-8.387-7.932-5.257-7.647-11.726-16.01-7.632-26.019,4.675-11.428,19.1-7.5,23.876,1.339A31.108,31.108,0,0,1,194.352,293.5Z" fill="#fdfbfa"/><path d="M172.255,329.726c2.676-3.9,6.145-11.324,11.082-12.4a9.1,9.1,0,0,1,9.213,3.772c2.2,3.245,2.119,7.462,1.961,11.377-.374,9.271-.208,19.843-9.484,25.4-10.59,6.347-19.786-5.444-18.311-15.38A31.119,31.119,0,0,1,172.255,329.726Z" fill="#fdfbfa"/><path d="M199.739,337.332c-3.264-3.428-9.8-8.363-9.831-13.417a9.1,9.1,0,0,1,5.6-8.228c3.63-1.475,7.739-.523,11.536.445,8.991,2.292,19.367,4.326,22.878,14.554,4.009,11.678-9.435,18.223-18.848,14.716A31.1,31.1,0,0,1,199.739,337.332Z" fill="#fdfbfa"/><path d="M168.914,305.505c4.654.865,12.843,1.032,15.829,5.109a9.1,9.1,0,0,1,.283,9.951c-2.077,3.322-5.964,4.96-9.607,6.4-8.629,3.413-18.228,7.848-27.067,1.619-10.093-7.112-3.037-20.3,6.645-22.972A31.129,31.129,0,0,1,168.914,305.505Z" fill="#fdfbfa"/><path d="M212.771,317.167c-4.579,1.2-12.059,4.536-16.5,2.119a9.1,9.1,0,0,1-4.494-8.883c.464-3.89,3.283-7.027,5.966-9.883,6.353-6.763,13.149-14.863,23.8-12.992,12.16,2.136,11.391,17.069,3.771,23.614A31.119,31.119,0,0,1,212.771,317.167Z" fill="#fdfbfa"/><path d="M198.275,317.678a6.44,6.44,0,0,1-1.98,3.829,10.235,10.235,0,0,1-4.18,2.081c-6.664,1.882-15.332-4.23-9.517-11.169,3.338-3.983,12.018-3.528,14.8.849A6.475,6.475,0,0,1,198.275,317.678Z" fill="#dc8655"/></g></svg>