<?xml version="1.0" encoding="utf-8"?>
<!-- Generator: Adobe Illustrator 24.2.3, SVG Export Plug-In . SVG Version: 6.00 Build 0)  -->
<svg version="1.1" id="圖層_1" xmlns="http://www.w3.org/2000/svg" xmlns:xlink="http://www.w3.org/1999/xlink" x="0px" y="0px"
	 viewBox="0 0 663.6 133.6" style="enable-background:new 0 0 663.6 133.6;" xml:space="preserve">
<style type="text/css">
	.st0{fill:#FFFFFF;}
	.st1{fill:#F4EE82;}
	.st2{fill:#EDD570;}
	.st3{fill:#DD855E;}
	.st4{fill:#71875F;}
</style>
<g id="圖層_2_1_">
	<g id="圖層_1-2">
		<g id="sec3-3-top.svg">
			<path class="st0" d="M620.8,30.3c-3.1-3.8-5.2-9.2-4.9-14.2c0.3-1.7,1.3-5.3,3.5-2.7c0.3-1.3,1.4-2.2,2.2-1
				c1.3-1.9,3,0.1,3.6,1.5c0.8,2.2,0.2,4.9-0.4,7c-0.7,3.1-2.1,6-2.8,9c2.7-3.2,6-5.9,9.5-8c2.3-1.3,8.6-0.7,4.3,2.4
				c1.6-0.6,3.3,0.5,1.5,1.8c3.3-0.3,4.1,1.6,1.5,3.5c-2.3,1.5-4.9,2.4-7.6,2.6c-2.8,0.4-8,0.4-10.3-1.4"/>
			<path class="st0" d="M621,31.1c4.8,1.2,9.7,4.1,12.4,8.4c0.8,1.4,2.2,5-1,4.1c0.6,1.2,0.2,2.5-1.2,2.2c0.1,2.2-2.4,1.8-3.7,0.9
				c-2-1.2-3.1-3.8-3.9-5.8c-1.2-2.9-2-6-3.3-8.9c-0.3,4.2-1.2,8.3-2.8,12.2c-1.1,2.4-6.5,5.7-4.9,0.7c-0.9,1.4-2.9,1.6-2.3-0.6
				c-2.4,2.2-4.2,1.2-3.3-1.9c1-2.6,2.5-4.9,4.5-6.7c2.1-2,6.1-5.1,9.1-5.1"/>
			<path class="st0" d="M621.6,30.9c-2.9-4.1-8.4-8.2-13.2-9.5c-1-0.3-4.3-1.3-5.1,0.1s1,2.6,2.2,3c-1.6-0.2-3.6,1-1.5,2.2
				c-2-0.2-2.1,1.1-1.4,2.5c1.2,2.4,5.1,2.1,7.6,2.2c3.9,0.3,8.1,1.5,11.8-0.4"/>
			<path class="st1" d="M622.6,30.4c0,1.4-1.1,2.5-2.5,2.5c-1.4,0-2.5-1.1-2.5-2.5c0-1.4,1.1-2.5,2.5-2.5
				C621.5,27.9,622.6,29,622.6,30.4z"/>
			<path class="st2" d="M147.8,42.4c-3.1-3.8-5.2-9.2-4.9-14.2c0.3-1.7,1.3-5.3,3.5-2.7c0.3-1.3,1.4-2.2,2.2-1
				c1.3-1.9,3,0.1,3.6,1.5c0.8,2.2,0.2,4.9-0.4,7c-0.7,3.1-2.1,6-2.8,9c2.7-3.2,6-5.9,9.5-8c2.3-1.3,8.6-0.7,4.3,2.4
				c1.6-0.6,3.3,0.5,1.5,1.8c3.3-0.3,4.1,1.6,1.5,3.5c-2.3,1.5-4.9,2.4-7.6,2.6c-2.8,0.4-8,0.4-10.3-1.4"/>
			<path class="st2" d="M148,43.3c4.8,1.2,9.7,4.1,12.4,8.4c0.8,1.4,2.2,5-1,4.1c0.6,1.2,0.2,2.5-1.2,2.2c0.1,2.2-2.4,1.8-3.7,0.9
				c-2-1.2-3.1-3.8-3.9-5.8c-1.2-2.9-2-6-3.3-8.9c-0.3,4.2-1.2,8.3-2.8,12.2c-1.1,2.4-6.5,5.7-4.9,0.7c-0.9,1.4-2.9,1.6-2.3-0.6
				c-2.4,2.2-4.2,1.2-3.3-1.9c1-2.6,2.5-4.9,4.5-6.7c2.1-2,6.1-5.1,9.1-5.1"/>
			<path class="st2" d="M148.7,43.1c-2.9-4-8.4-8.2-13.2-9.5c-1-0.3-4.3-1.3-5.1,0.1c-0.7,1.4,1,2.6,2.2,3c-1.6-0.2-3.6,1-1.5,2.2
				c-2-0.2-2.1,1.1-1.4,2.5c1.2,2.4,5.1,2.1,7.6,2.2c3.9,0.3,8.1,1.5,11.8-0.4"/>
			<path class="st0" d="M149.7,42.5c0,1.4-1.1,2.5-2.5,2.5c-1.4,0-2.5-1.1-2.5-2.5c0-1.4,1.1-2.5,2.5-2.5l0,0
				C148.6,40,149.7,41.1,149.7,42.5z"/>
			<path class="st3" d="M29.6,23.8c-1.8-2.2-2.7-5-2.6-7.9c0.1-0.9,0.7-2.9,1.9-1.5c0.2-0.7,0.7-1.2,1.2-0.6c0.7-1,1.6,0,2,0.8
				c0.3,1.3,0.2,2.6-0.2,3.8c-0.5,1.8-1.2,3.4-1.6,5.1c1.5-1.8,3.2-3.3,5.2-4.4c1.3-0.7,4.8-0.4,2.3,1.3c0.9-0.3,1.8,0.3,0.8,1
				c1.8-0.2,2.2,0.8,0.8,1.9c-1.3,0.8-2.7,1.3-4.2,1.5c-1.6,0.2-4.4,0.2-5.7-0.7"/>
			<path class="st3" d="M29.7,24.2c2.8,0.6,5.2,2.3,6.8,4.7c0.5,0.7,1.2,2.7-0.6,2.2c0.3,0.7,0.1,1.4-0.7,1.2c0,1.2-1.3,0.9-2.1,0.6
				c-1.1-0.7-1.7-2.1-2.2-3.2c-0.7-1.6-1-3.3-1.8-4.9c-0.1,2.3-0.6,4.6-1.5,6.7c-0.7,1.3-3.6,3.2-2.7,0.4c-0.6,0.7-1.6,0.9-1.3-0.3
				c-1.3,1.2-2.3,0.7-1.8-1c0.6-1.4,1.4-2.7,2.4-3.7c1.1-1.1,3.4-2.8,5-2.8"/>
			<path class="st3" d="M30.1,24.1c-1.8-2.5-4.4-4.4-7.3-5.3c-0.6-0.1-2.3-0.7-2.7,0.1s0.6,1.5,1.2,1.7c-0.9-0.2-2.1,0.6-0.9,1.1
				c-1-0.1-1.1,0.7-0.7,1.4c0.7,1.3,2.8,1.1,4.1,1.2C25.9,24.5,28.2,25.2,30.1,24.1"/>
			<path class="st1" d="M30.7,23.9c0,0.8-0.6,1.4-1.4,1.4s-1.4-0.6-1.4-1.4s0.6-1.4,1.4-1.4l0,0C30,22.5,30.6,23.1,30.7,23.9z"/>
			<path class="st0" d="M75,92.6c-1.8-2.2-2.7-5-2.6-7.9c0.1-0.9,0.7-2.9,1.9-1.5c0.2-0.7,0.7-1.2,1.2-0.6c0.7-1,1.6,0,2,0.8
				c0.3,1.3,0.2,2.6-0.2,3.8c-0.5,1.8-1.2,3.4-1.6,5.1c1.5-1.8,3.2-3.3,5.2-4.4c1.3-0.7,4.8-0.4,2.3,1.3c0.9-0.3,1.8,0.3,0.8,1
				c1.8-0.2,2.2,0.8,0.8,1.9c-1.3,0.8-2.7,1.3-4.2,1.5c-1.6,0.2-4.4,0.2-5.7-0.7"/>
			<path class="st0" d="M75.1,93c2.8,0.6,5.2,2.3,6.8,4.7c0.5,0.7,1.2,2.7-0.6,2.2c0.3,0.7,0.1,1.4-0.7,1.2c0,1.2-1.3,0.9-2.1,0.6
				c-1.1-0.7-1.7-2.1-2.2-3.2c-0.7-1.6-1-3.3-1.8-4.9c-0.1,2.3-0.6,4.6-1.5,6.7c-0.7,1.3-3.6,3.2-2.7,0.4c-0.6,0.7-1.6,0.9-1.3-0.3
				c-1.3,1.2-2.3,0.7-1.8-1c0.6-1.4,1.4-2.7,2.4-3.7c1.1-1.1,3.4-2.8,5-2.8"/>
			<path class="st0" d="M75.5,93c-1.8-2.5-4.4-4.3-7.3-5.2c-0.6-0.2-2.3-0.7-2.7,0c-0.4,0.7,0.6,1.5,1.2,1.7
				c-0.9-0.2-2.1,0.6-0.9,1.1c-1-0.1-1.1,0.7-0.7,1.4c0.7,1.3,2.8,1.1,4.1,1.2C71.2,93.3,73.6,94,75.5,93"/>
			<path class="st1" d="M76,92.7c0,0.8-0.6,1.4-1.4,1.4s-1.4-0.6-1.4-1.4s0.6-1.4,1.4-1.4l0,0C75.4,91.3,76,91.9,76,92.7z"/>
			<path class="st3" d="M249.5,26.9c5.1-1.5,13.3-0.1,16.7,4.4c4,5.5-1.6,8.2-6.4,5.8c6.4,4.2,2.3,12.3-2.7,5.8
				c4.3,9-8.9,11.1-11.8,2.2c-1.7-5.3-1.1-11,1.5-15.9c-3.8,6.5-11.1,12.9-19.2,12.1c-9.1-1-6.6-6.1-1.5-10.4
				c-6.6,0.7-8-8.7-1.7-7.4c-3.6-0.7-5.1-4.6-3.6-7.8c2.4-5.2,7.5-3.6,11.8-2c6.1,2.2,10,6.6,13.4,12.1"/>
			<path class="st3" d="M247.1,27.3c6.9-0.5,17.9-5.6,19-13.2c0.9-6.4-4-6.5-8.1-3.1c7-5.3-4.7-12-6.5-3.6c2.5-5.2-4.9-4.9-7.1-1.4
				c-3.7,5.7-1,16.7,0.8,22.6"/>
			<path class="st1" d="M245.5,28.4c-1-0.7-1.2-2.2-0.5-3.2c0.7-1,2.2-1.2,3.2-0.5c1,0.7,1.2,2.2,0.5,3.2l0,0
				C247.9,29,246.5,29.2,245.5,28.4C245.5,28.4,245.5,28.4,245.5,28.4z"/>
			<path class="st4" d="M256.7,28.3c-2.3-1.2-6-3.2-8.3-1c-0.1,0.1,0,0.3,0.2,0.3c2.7-1.2,5.6,0,8.1,0.9
				C256.8,28.5,256.8,28.3,256.7,28.3z"/>
			<path class="st4" d="M252.4,31.5c-0.7-0.5-1.4-1.1-2.1-1.8c-0.6-0.8-1.1-1.7-1.5-2.6c-0.1,0-0.2,0-0.2,0.1c0.4,2,2.1,3.4,3.6,4.5
				C252.4,31.7,252.4,31.7,252.4,31.5L252.4,31.5z"/>
			<path class="st4" d="M249.7,34.8c-0.8-1-1.4-2-1.9-3.2c-0.3-0.7-0.5-1.3-0.6-2.1c0-0.5,0.1-1,0.4-1.5c-0.1-0.1-0.1-0.2-0.2-0.2
				l0,0c-1.3,0.2-0.7,2.2-0.5,3c0.6,1.5,1.4,3,2.4,4.2c0.1,0.1,0.2,0.1,0.3,0S249.8,34.9,249.7,34.8z"/>
			<path class="st4" d="M246.5,27.6c-2.4,1.1-3.2,3.4-3.1,6c0,0.1,0.2,0.1,0.2,0c0.3-2.2,1-4.5,3.1-5.7
				C246.8,27.8,246.7,27.5,246.5,27.6z"/>
			<path class="st4" d="M245.4,26.9c-2.1-1-4.5,0.2-6,1.8c0,0.1,0,0.2,0.1,0.3h0.2c1.8-0.9,3.5-2.3,5.6-1.7c0.1,0,0.3,0,0.3-0.2
				C245.6,27.1,245.5,26.9,245.4,26.9L245.4,26.9z"/>
			<path class="st4" d="M245.6,25.5c-1.6-0.9-3.5-2.2-4.1-4c0-0.1,0-0.1-0.1-0.1l0,0c-0.1,0-0.1,0-0.1,0.1l0,0
				c-0.1,2.2,2.5,3.6,4.2,4.4C245.7,26,245.9,25.6,245.6,25.5z"/>
			<path class="st4" d="M247.3,24.9c-1.1-1.4-1.5-3.2-1-5c0-0.1,0-0.1-0.1-0.1l0,0h-0.1c-1.7,1.3-0.4,4.1,0.9,5.2
				C247.2,25.2,247.4,25,247.3,24.9L247.3,24.9z"/>
			<path class="st4" d="M247.9,25.5c0.2-1.4,1.2-2.6,2.5-3.1c0.1,0,0.1,0,0.1-0.1s0-0.1-0.1-0.1l0,0c-1.6,0.2-2.5,1.7-2.9,3.1
				c-0.1,0.1,0,0.2,0.1,0.3C247.7,25.6,247.9,25.6,247.9,25.5L247.9,25.5z"/>
			<path class="st4" d="M248.5,26.1c0.9-1.3,2.4-1.6,3.8-2c0.1,0,0.1-0.1,0.1-0.2c0-0.1,0-0.1-0.1-0.1l0,0c-1.7-0.2-3.3,0.6-4.2,2.1
				c-0.1,0.1,0,0.2,0.1,0.3S248.4,26.2,248.5,26.1z"/>
			<path class="st4" d="M249.7,21.5c-0.3,0.4-0.2,1,0.2,1.3c0.4,0.3,1,0.2,1.3-0.2c0.3-0.4,0.2-1-0.2-1.3c0,0,0,0,0,0
				C250.6,21,250,21.1,249.7,21.5z"/>
			<path class="st4" d="M252.1,23.5c-0.2,0.3-0.2,0.7,0.1,0.9c0,0,0.1,0.1,0.1,0.1c0.3,0.2,0.8,0.1,1-0.2c0.2-0.3,0.2-0.7-0.1-0.9
				c0,0-0.1-0.1-0.1-0.1C252.8,23.1,252.4,23.2,252.1,23.5z"/>
			<path class="st4" d="M251.7,31.3c-0.3,0.3-0.2,0.8,0.1,1c0,0,0,0,0,0c0.3,0.2,0.7,0.2,0.9-0.1c0,0,0,0,0-0.1
				c0.2-0.3,0.1-0.8-0.2-1C252.2,30.9,251.9,31,251.7,31.3z"/>
			<path class="st4" d="M251.5,26.1c-0.2,0.1-0.3,0.5-0.3,0.7c0.1,0.3,0.4,0.6,0.7,0.6c0.3,0,0.5-0.2,0.7-0.5
				c0.1-0.4-0.1-0.8-0.4-0.9c0,0,0,0,0,0C251.9,25.9,251.7,25.9,251.5,26.1z"/>
			<path class="st4" d="M256.3,28c-0.2,0.1-0.3,0.5-0.3,0.7c0.1,0.3,0.4,0.6,0.7,0.6c0.3,0,0.5-0.2,0.7-0.5c0.1-0.4-0.1-0.8-0.4-0.9
				c0,0,0,0,0,0C256.7,27.8,256.5,27.8,256.3,28z"/>
			<path class="st4" d="M249.9,33.7c-0.4,0-0.7,0.1-0.9,0.5c-0.3,0.4-0.2,0.9,0.2,1.2l0,0l-0.3-0.4c0.1,0.1,0.1,0.2,0.2,0.3
				c0.3,0.4,1,0.5,1.4,0.2c0.4-0.3,0.5-1,0.2-1.4C250.5,33.9,250.2,33.7,249.9,33.7z"/>
			<path class="st4" d="M243,32.4c-0.3,0.4-0.2,0.9,0.2,1.2c0.4,0.3,0.9,0.2,1.2-0.2l0,0l0,0c0.3-0.4,0.2-0.9-0.2-1.2
				C243.8,31.9,243.2,32,243,32.4C243,32.4,243,32.4,243,32.4z"/>
			<path class="st4" d="M246.6,29.9c-0.3,0.1-0.5,0.3-0.6,0.7c0,0.2,0,0.4,0.2,0.6c0,0,0.6,0.5,0.3,0.2c0.4,0.3,0.9,0.2,1.2-0.2
				c0.3-0.4,0.2-0.9-0.2-1.2C247.2,29.7,246.9,29.7,246.6,29.9z"/>
			<path class="st4" d="M241.5,26.7L241.5,26.7c0,0.6,0.3,0.9,0.7,0.9c0.1,0,0.3,0,0.4-0.1h0.1c0.4-0.2,0.6-0.7,0.5-1.1
				c-0.2-0.4-0.7-0.5-1.1-0.4C241.8,26.1,241.5,26.4,241.5,26.7z"/>
			<path class="st4" d="M239.1,28c-0.2,0.3-0.1,0.7,0.2,0.9c0.3,0.2,0.6,0.1,0.8-0.1c0.2-0.3,0.1-0.7-0.2-0.9
				C239.8,27.6,239.4,27.7,239.1,28z"/>
			<path class="st4" d="M240.7,22.3L240.7,22.3c0.1,0.4,0.4,0.6,0.7,0.6h0.1C243.6,22.7,240.1,20.1,240.7,22.3z"/>
			<path class="st4" d="M244.8,20.2L244.8,20.2c-0.1,0.3-0.1,0.6,0,0.8c0.1,0.4,0.5,0.6,0.9,0.7l0,0c0.8,0.3,1.5-0.8,1.2-1.6
				c-0.2-0.3-0.5-0.6-0.9-0.7C245.5,19.5,245,19.7,244.8,20.2z"/>
			<path class="st4" d="M240.4,21.2L240.4,21.2c-0.2,0.5,0.1,1.1,0.6,1.4c0.5,0.2,1.1-0.1,1.3-0.6v-0.1c0.2-0.5-0.1-1.1-0.6-1.3
				c-0.5-0.2-1,0-1.3,0.4C240.4,21.1,240.4,21.1,240.4,21.2z"/>
			<path class="st4" d="M244.1,24.2l-0.2-0.2c-0.7-0.7-1.8,0.7-0.9,1.2c0.1,0.1,0.2,0.1,0.3,0.1c0.4,0.1,0.8-0.1,0.9-0.5
				C244.3,24.6,244.3,24.4,244.1,24.2z"/>
			<path class="st4" d="M248.7,23.3c-0.4-0.2-0.8-0.1-1,0.3c-0.2,0.3-0.1,0.7,0.2,0.8c0,0,0,0,0,0l0.1,0.1l-0.3-0.8l0,0
				c-0.1,0.3,0,0.6,0.2,0.7v0.1c0.3,0.3,0.8,0.4,1.1,0.1c0.3-0.3,0.4-0.8,0.1-1.1C249,23.4,248.9,23.3,248.7,23.3z"/>
			<path class="st4" d="M248.7,26.3c-0.4-0.4-0.9-0.5-1.4-0.2c0,0.1,0,0.1-0.1,0.2l0.4-0.3h-0.1c-0.5,0.3-0.7,1-0.2,1.4
				c-0.1-0.2-0.1-0.1,0.1,0.1c0,0,0.7,0.2,0.3,0.1c0.3,0.1,0.6,0,0.8-0.1C248.9,27.2,249,26.7,248.7,26.3
				C248.8,26.3,248.7,26.3,248.7,26.3L248.7,26.3z"/>
			<path class="st0" d="M541,105.2c-2.2,4.7-8.8,10-14.4,9.5c-6.8-0.7-5.1-6.6,0-8.6c-7.4,1.9-10.7-6.5-2.4-5.9
				c-9.5-2.8-2.3-14,6.3-10.2c5.1,2.3,9,6.5,10.9,11.8c-2.3-7.1-2.2-16.8,3.8-22.2c6.8-6,8.9-0.8,8.7,5.8c3.9-5.4,11.9-0.2,6.6,3.6
				c3-2.3,6.8-0.7,8.1,2.5c2.2,5.3-2.4,8-6.4,10.1c-5.8,3-11.6,3-17.9,1.9"/>
			<path class="st0" d="M542.3,103.1c-4.3,5.4-7.9,16.9-2.9,22.9c4.1,5,7.5,1.3,7.7-3.9c-0.7,8.8,12,4.6,7-2.4
				c2.2,5.3,6.8-0.4,5.8-4.3c-1.8-6.5-11.8-12-17.3-14.5"/>
			<path class="st1" d="M542.5,101.1c1.2-0.3,2.5,0.5,2.7,1.8c0.3,1.2-0.5,2.5-1.8,2.7c-1.2,0.3-2.5-0.5-2.7-1.8
				C540.4,102.6,541.2,101.4,542.5,101.1C542.5,101.2,542.5,101.1,542.5,101.1z"/>
			<path class="st4" d="M535.2,109.6c2.4-0.9,6.4-2.3,6.4-5.5c0-0.1-0.1-0.2-0.2-0.2c-0.1,0-0.1,0-0.1,0.1c-0.9,2.8-3.7,4.2-6.2,5.4
				C534.9,109.5,535,109.6,535.2,109.6z"/>
			<path class="st4" d="M535.6,104.2c0.9-0.2,1.8-0.3,2.7-0.3c1,0,2,0.2,2.9,0.6c0.1,0,0.2-0.1,0.1-0.2c-1.7-0.9-3.9-0.7-5.7-0.3
				C535.5,104,535.5,104.1,535.6,104.2z"/>
			<path class="st4" d="M535,100c1.2,0.1,2.4,0.3,3.6,0.7c0.7,0.2,1.4,0.5,2,0.9c0.5,0.4,0.6,0.8,0.9,1.3c0.1,0.1,0.1,0.1,0.2,0l0,0
				c0.7-1.1-1.1-2.1-1.9-2.4c-1.5-0.6-3.1-0.9-4.8-0.9c-0.1,0-0.2,0.1-0.2,0.2C534.8,99.9,534.9,100,535,100
				C535,100,535,100,535,100z"/>
			<path class="st4" d="M542.5,102.5c0.8-2.6-0.4-4.7-2.3-6.4c-0.1-0.1-0.3,0.1-0.2,0.2c1.5,1.7,2.7,3.8,2.2,6.1
				C542.2,102.6,542.3,102.6,542.5,102.5z"/>
			<path class="st4" d="M543.7,102.2c2.2-0.8,2.9-3.5,2.6-5.6c0-0.2,0-0.2-0.1-0.2s-0.1,0.1-0.2,0.1c-0.5,2-0.6,4.1-2.5,5.3
				c-0.1,0-0.1,0.2-0.1,0.3C543.5,102.2,543.6,102.2,543.7,102.2z"/>
			<path class="st4" d="M544.6,103.2c1.8-0.7,4-1.1,5.8-0.4h0.1v-0.1l0,0c-1.6-1.7-4.3-0.7-6.1,0.1
				C544.2,102.9,544.4,103.3,544.6,103.2z"/>
			<path class="st4" d="M544,104.9c1.8,0.1,3.4,1,4.3,2.5c0,0.1,0.1,0.1,0.1,0c0.1,0,0.1,0,0.1-0.1c0.1-2.2-2.8-3-4.5-2.8
				c-0.2,0.1-0.2,0.2-0.2,0.2C543.8,104.8,543.9,104.9,544,104.9L544,104.9z"/>
			<path class="st4" d="M543.1,104.9c0.9,1.1,1.1,2.6,0.6,3.9c0,0.1,0.1,0.2,0.1,0.1c0.9-1.3,0.5-3-0.4-4.2
				C543.3,104.6,543,104.8,543.1,104.9L543.1,104.9z"/>
			<path class="st4" d="M542.3,104.9c0.3,1.5-0.5,2.8-1.2,4.1v0.2h0.2c1.3-1,1.9-2.8,1.3-4.4C542.5,104.5,542.2,104.6,542.3,104.9
				L542.3,104.9z"/>
			<path class="st4" d="M544.9,108.9c-0.1-0.5-0.6-0.8-1.1-0.8c0,0,0,0,0,0c-0.5,0.1-0.8,0.6-0.8,1.1c0,0,0,0,0,0
				c0.1,0.5,0.6,0.8,1.1,0.7C544.6,109.9,544.9,109.4,544.9,108.9z"/>
			<path class="st4" d="M541.8,109.3c-0.1-0.4-0.5-0.7-0.9-0.6c-0.4,0.1-0.6,0.5-0.6,0.8c0.1,0.4,0.5,0.7,0.9,0.6
				C541.6,110.1,541.8,109.7,541.8,109.3z"/>
			<path class="st4" d="M536.3,103.8c-0.1-0.4-0.5-0.6-0.8-0.6s-0.6,0.5-0.6,0.8c0.1,0.4,0.4,0.6,0.8,0.6
				C536.1,104.6,536.3,104.2,536.3,103.8z"/>
			<path class="st4" d="M540.3,107.2c0-0.3-0.1-0.6-0.4-0.7c-0.3-0.2-0.7-0.1-0.9,0.2c-0.1,0.3-0.1,0.6,0,0.8
				c0.1,0.3,0.5,0.5,0.9,0.3c0,0,0.1,0,0.1,0C540.1,107.7,540.2,107.5,540.3,107.2z"/>
			<path class="st4" d="M535.6,109.5c0-0.3-0.1-0.6-0.4-0.7c-0.3-0.2-0.7-0.1-0.9,0.2c-0.1,0.3-0.1,0.6,0,0.8
				c0.1,0.3,0.5,0.5,0.9,0.3c0,0,0.1,0,0.1,0C535.5,110,535.6,109.8,535.6,109.5z"/>
			<path class="st4" d="M535.6,100.9c0.3-0.3,0.4-0.6,0.4-1c-0.1-0.5-0.6-0.8-1-0.7c0,0,0,0,0,0h0.1c-0.5-0.1-1,0.3-1,0.8
				c0,0,0,0.1,0,0.1c0,0.5,0.4,1,0.9,1C535.2,101.2,535.5,101.1,535.6,100.9L535.6,100.9z"/>
			<path class="st4" d="M541.3,96.6c-0.1-0.5-0.6-0.8-1-0.7c-0.5,0.1-0.8,0.6-0.7,1c0.1,0.5,0.6,0.8,1,0.7
				C541.1,97.5,541.4,97.1,541.3,96.6C541.3,96.6,541.3,96.6,541.3,96.6z"/>
			<path class="st4" d="M540.8,101c0.1-0.3,0-0.7-0.2-0.9c-0.1-0.1-0.3-0.2-0.5-0.2c-0.1,0-0.7,0.1-0.4,0c-0.5,0.1-0.8,0.6-0.7,1
				c0.1,0.5,0.6,0.8,1,0.7C540.4,101.5,540.7,101.3,540.8,101z"/>
			<path class="st4" d="M546.5,99.4L546.5,99.4c-0.3-0.4-0.9-0.4-1.2-0.1c-0.1,0.1-0.2,0.2-0.2,0.4v0.1c-0.3,0.6,0.4,1.2,0.9,1.1
				c0.5-0.1,0.8-0.6,0.7-1c0,0,0,0,0,0C546.6,99.6,546.6,99.5,546.5,99.4z"/>
			<path class="st4" d="M547.1,96.8c-0.1-0.4-0.4-0.7-0.7-0.6c-0.4,0.1-0.7,0.4-0.6,0.7l0,0c0.1,0.3,0.4,0.6,0.7,0.6
				C546.9,97.4,547.2,97,547.1,96.8z"/>
			<path class="st4" d="M550.3,101.7L550.3,101.7c-0.3-0.3-0.6-0.2-0.8,0c0,0,0,0,0,0.1l-0.1,0.1C548,103.5,552.3,102.7,550.3,101.7
				L550.3,101.7z"/>
			<path class="st4" d="M549.1,106.1L549.1,106.1c-0.1-0.3-0.4-0.5-0.7-0.6c-0.3-0.2-0.8-0.1-1,0.2l0,0c-0.5,0.3-0.6,0.9-0.3,1.4
				c0,0.1,0.1,0.1,0.1,0.2c0.4,0.5,1,0.6,1.5,0.2c0,0,0.1,0,0.1-0.1l0,0C549.3,107.2,549.4,106.6,549.1,106.1z"/>
			<path class="st4" d="M551.3,102.3L551.3,102.3c-0.2-0.5-0.8-0.7-1.3-0.5c0,0,0,0-0.1,0c-0.5,0.3-0.7,0.8-0.5,1.3l0,0
				c0.3,0.5,0.9,0.6,1.4,0.4C551.3,103.2,551.5,102.7,551.3,102.3z"/>
			<path class="st4" d="M546.6,102.9h0.3c0.9-0.1,0.7-1.8-0.3-1.5c-0.1,0-0.2,0.1-0.3,0.1c-0.4,0.2-0.5,0.7-0.3,1c0,0,0,0,0,0
				C546.1,102.8,546.3,102.9,546.6,102.9z"/>
			<path class="st4" d="M544.1,107c0.4-0.2,0.6-0.6,0.5-0.9c0-0.3-0.3-0.6-0.7-0.6h-0.2l0.7,0.4l0,0c-0.1-0.2-0.3-0.4-0.6-0.4h-0.1
				c-0.4,0-0.8,0.3-0.8,0.7c0,0.4,0.3,0.8,0.7,0.8C543.9,107.1,544,107,544.1,107L544.1,107z"/>
			<path class="st4" d="M542,105c0.6,0.2,1-0.6,0.9-1.1v0.3c0.1-0.4-0.3-1.1-0.8-0.9H542c0,0-0.6,0.4-0.3,0.1
				c-0.4,0.3-0.6,0.5-0.6,0.8C541.2,104.5,541.5,105,542,105z"/>
		</g>
	</g>
</g>
</svg>
