<svg xmlns="http://www.w3.org/2000/svg" viewBox="0 0 254.97 571.37"><defs><style>.cls-1{fill:#5c9984;}.cls-2{fill:#5c995c;}.cls-3{fill:#b1e0b2;}.cls-4{fill:#76995c;}.cls-5{fill:#5a7c40;}.cls-6{fill:#407c67;}</style></defs><g id="圖層_2" data-name="圖層 2"><g id="圖層_1-2" data-name="圖層 1"><g id="sec3-3-left.svg"><path class="cls-1" d="M94,415.53c-9.4,23.5-19.5,46.4-35.6,66.2a146.25,146.25,0,0,1-22.2,21.6c-7.4,5.9-15.6,9.1-23.9,13.3a.54.54,0,0,0,.3,1c17.7-1.2,34.1-19.2,45.2-31.5,17.8-19.7,27.8-45.9,36.8-70.3.1-.4-.4-.7-.6-.3Z"/><path class="cls-1" d="M12.9,517.13c8.6-3.2,16-5.4,23.3-11.1A94.3,94.3,0,0,0,54,487c11.3-15.5,16.6-31.5,20.3-49.9.1-.3-.3-.4-.4-.1-2.8,8.1-4.5,16.4-7.7,24.3-3.1,7.5-7.7,14.7-12,21.5a104.89,104.89,0,0,1-16.8,19.6c-7.3,6.9-15.9,9.8-24.7,13.9-.5.3-.3,1,.2.8Z"/><path class="cls-1" d="M39.8,503.77c15.5-10.8,29.8-24.9,42.1-39.1,12.9-14.8,21.5-31.3,25.5-50.6.1-.5-.7-.8-.9-.3-3.1,7.7-5.2,15.8-8.4,23.6-4,9.8-10.8,18-17.7,25.9a238.29,238.29,0,0,1-20,20.2c-7,6.4-13.5,13.8-21.1,19.5-.5.4,0,1.2.5.8Z"/><path class="cls-1" d="M75.61,458.9c10.1-9.3,18.8-24.4,22.2-37.6,0-.2-.1-.4-.2-.4s-.3,0-.3.2c-6.2,12.6-12.9,26.8-22.5,37.2-.4.4.3,1.1.8.6Z"/><path class="cls-1" d="M68.16,479.11c18-8.6,30.2-21.7,41.8-37.6.2-.2.1-.4,0-.6s-.4-.1-.6,0h0c-5.9,6-11.1,12.7-17,18.7-7,7.5-16.2,13.4-24.8,18.6-.7.4-.1,1.2.6.9Z"/><path class="cls-1" d="M49.7,490.73c6.5-10.9,9.5-24,13.4-36,.2-.5-.6-.7-.9-.3-6.9,10.7-8.3,24.4-13.3,36a.37.37,0,0,0,.2.5.48.48,0,0,0,.6-.2Z"/><path class="cls-1" d="M110.79,415.24a3.8,3.8,0,1,1-1.7-5.1,3.83,3.83,0,0,1,1.7,5.1Z"/><path class="cls-1" d="M112.49,443.84a3.8,3.8,0,1,1-1.7-5.1A3.83,3.83,0,0,1,112.49,443.84Z"/><path class="cls-1" d="M102,424.14a3.8,3.8,0,1,1-1.7-5.1,3.72,3.72,0,0,1,1.7,5.1Z"/><path class="cls-1" d="M98.29,416.14a3.68,3.68,0,0,1-5.1,1.6,3.8,3.8,0,0,1,3.4-6.8A3.77,3.77,0,0,1,98.29,416.14Z"/><path class="cls-1" d="M78,440.24a3.8,3.8,0,1,1-1.7-5.1,3.64,3.64,0,0,1,1.7,5.1Z"/><path class="cls-1" d="M65.79,456.94a3.8,3.8,0,1,1-1.7-5.1,3.83,3.83,0,0,1,1.7,5.1Z"/><path class="cls-2" d="M247.28,466.22c5.88-11,3.7-24.27-10.75-26-21-2.4-43.43,8.64-62.36,16.14-25.82,10.36-53.39,14.85-79.35,24.87-23.35,8.92-37.17,25.85-48.5,46.73-14.3,4-27.41,10.35-36.26,22.1a.93.93,0,0,0,.31,1.31,1.22,1.22,0,0,0,.88.13c11.5-5.25,21.55-11.4,32.62-16.22,1.39,16.49,12.59,27.88,28.49,33.41,21.09,7.2,46.71-1.83,66.79-8.52a169.52,169.52,0,0,0,68.28-42.52C222.13,502.45,237.27,484.86,247.28,466.22Z"/><path class="cls-3" d="M221.77,462.17c-27.2,19.29-54.81,37.07-86.6,47.76a366.75,366.75,0,0,1-49.88,12.79c-10.29,1.95-25.41.88-33.41,8.46a1.54,1.54,0,0,0-.11,2.25,1.44,1.44,0,0,0,1.8.4c12.81-4.7,27-5.25,40.36-8.1a347,347,0,0,0,46.65-13.59c30.53-11,56.78-29.09,81.76-49.57.11-.16.2-.47,0-.58-.2.11-.42.07-.61.18Z"/><path class="cls-3" d="M102.39,490.62c-14.36,12.29-34.07,22.65-44.19,39a1.34,1.34,0,0,0,.4,1.87,1.21,1.21,0,0,0,1.5,0c14.6-12.48,29.79-26.14,42.66-40.32.29-.41-.12-.7-.37-.51Z"/><path class="cls-3" d="M143.17,473c-14,17.27-31.83,31.31-45.74,48.55-.83,1,.69,2.32,1.63,1.5,9.21-7.22,16.71-16.86,24.7-25.31a163.44,163.44,0,0,0,19.68-24.43c.2-.1.18-.24.1-.3s-.31-.09-.37,0Z"/><path class="cls-3" d="M180.09,464.65c-10.39,13.61-21,28.76-33.33,40.76a1.35,1.35,0,0,0-.1,1.89,1.42,1.42,0,0,0,1.82.18c6.1-4.52,9.48-11.43,13.81-17.44,6.05-8.46,12.56-16.35,18.37-25a.35.35,0,0,0-.16-.48.31.31,0,0,0-.41.07Z"/><path class="cls-3" d="M202.81,461.43c-2.89,4.82-5.72,9.55-8.77,14.25-2.59,4.05-5.76,7.69-7.86,12.08-.09.31.3.45.49.35,8.41-5.72,13.3-17.06,16.77-26.36.09-.3-.41-.65-.63-.32Z"/><path class="cls-3" d="M224.08,480.68A172,172,0,0,0,201.41,482c-6.24.88-13.2,1.74-17.58,6.61a.26.26,0,0,0,.07.41c.08.06.08.06.22,0,6.56-1.52,12.72-4,19.43-5.07s13.77-1.35,20.58-2.19c.56-.09.59-1.18,0-1.14Z"/><path class="cls-3" d="M203.43,511c-12.72-.49-25.12-3.19-37.7-4.93-6.33-.89-16.56-2.33-21.67,2.52a.65.65,0,0,0,.55,1.12c19.24-5,39.23,1.36,58.84,1.79.22,0,.29-.41,0-.5Z"/><path class="cls-3" d="M144.44,531.83c-9.22-2.18-18.2-5.05-27.32-7.54-6.34-1.76-13.76-3.9-20.13-1.77a.69.69,0,0,0,.08,1.27c7.88,2.35,16.79,2,24.94,3.8,7.48,1.7,14.81,3.79,22.39,4.83.22,0,.34-.5,0-.59Z"/><path class="cls-3" d="M111.37,553.77a261.66,261.66,0,0,1-39.74-16.49c-5.46-2.84-13.48-8.47-19.77-5.43a1.33,1.33,0,0,0-.54,1.82,1.47,1.47,0,0,0,1.07.75c8,.74,14.32,4.3,21.51,7.63a182.2,182.2,0,0,0,37.29,12c.23,0,.26-.19.18-.25Z"/><path class="cls-2" d="M134.81,203.57c6.1-.8,10.9-5.5,7.4-11.8-5-9.2-15.9-15.1-24.4-20.5-11.6-7.5-21.3-17.3-32.7-24.9-10.3-6.9-21.1-7.6-32.8-6.2-5.7-4.6-12-8.1-19.2-8.3a.47.47,0,0,0-.5.5.52.52,0,0,0,.2.4c5.4,3.1,10.8,5.4,15.9,8.5-6.3,5.3-7.6,13.1-5.3,21,3.1,10.6,14.1,18.4,22.5,24.5a82.45,82.45,0,0,0,36.7,15.4C112.91,203.77,124.41,204.87,134.81,203.57Z"/><path class="cls-3" d="M129.13,192.13c-15.6-5.4-30.6-11.5-44.1-21.3a189,189,0,0,1-19.4-16.4c-3.8-3.6-7.7-10-13-11.1a.83.83,0,0,0-1,.6,1,1,0,0,0,.4.9c5.6,3.8,9.9,9.4,14.8,14a181.77,181.77,0,0,0,18.8,15c13.2,9.1,28,14.5,43.4,18.7.1,0,.2-.1.3-.2-.1-.1-.1-.2-.2-.2Z"/><path class="cls-3" d="M83.47,152.08c-9.1-2.2-18.9-7.2-28.4-6.7a.86.86,0,0,0-.6.7.56.56,0,0,0,.5.6,228.13,228.13,0,0,0,28.5,5.7c.1,0,.2-.2,0-.3Z"/><path class="cls-3" d="M102.26,163.55c-11-.7-21.7-3.9-32.7-4.6-.7,0-.7.9-.1,1.1,5.6,1.7,11.6,1.9,17.3,2.8a80.21,80.21,0,0,0,15.5.9.1.1,0,0,0,.1-.1c0-.1,0-.1-.1-.1Z"/><path class="cls-3" d="M116.19,176c-8.5-.3-17.6-.3-26-1.8a.66.66,0,0,0-.8.5.62.62,0,0,0,.5.8c3.6,1.1,7.3.6,11,.6,5.1,0,10.2.4,15.3.2.1,0,.2-.1.1-.2a.1.1,0,0,0-.1-.1Z"/><path class="cls-3" d="M123.92,184.28c-2.7.2-5.4.4-8.2.5a42.2,42.2,0,0,0-7.1.3c-.2,0-.1.2,0,.3,4.7,1.7,10.7.5,15.4-.8.2,0,.1-.3-.1-.3Z"/><path class="cls-3" d="M122.34,198.4a100.06,100.06,0,0,0-7-8.8c-2.2-2.3-4.5-4.8-7.8-5.2-.1,0-.1.2-.1.2,2.5,2.2,5.3,4,7.6,6.4s4.5,5.2,6.8,7.7c.2.2.6-.1.5-.3Z"/><path class="cls-3" d="M104.14,198.76c-3.4-5.3-5.9-11.1-8.8-16.7-1.4-2.8-3.8-7.3-7.2-8-.3,0-.6.3-.3.5,7.5,6.4,10.7,16.2,16.1,24.2.1.2.3.1.2,0Z"/><path class="cls-3" d="M78.85,180.9c-1.8-4.3-3.2-8.8-4.8-13.2-1.1-3.1-2.3-6.7-5-8.6-.2-.2-.6.1-.5.3,1.3,3.8,4,7.3,5.6,11.1,1.5,3.5,2.7,7,4.5,10.4,0,.2.3.1.2,0Z"/><path class="cls-3" d="M60.59,173.77a123.89,123.89,0,0,1-4.7-20.7c-.5-3-.5-7.9-3.5-9.5a.65.65,0,0,0-.9.2.85.85,0,0,0,0,.7c2,3.4,2.4,7,3.1,10.9a94.44,94.44,0,0,0,5.8,18.5c.1,0,.2,0,.2-.1Z"/><path class="cls-4" d="M199.39,255c3.21,21.47-25.95,17.78-43.54,13.82A339,339,0,0,1,206.08,297a1.38,1.38,0,0,1,1-.58c3.9-.43,5.14-2.51,7.9-5.08,3.37-3.22,8.5-4.65,12.87-5.26,6.79-1,15.27,5.18,14.12,12.79-1,7-7.56,9.87-14.84,9.88,7.74.35,16,1.56,22.46,6.05,5.85,4.08,7.75,14.06,1.72,18.73-5.87,4.5-14.49,4.38-19.42-1.76-4.32-5.41-4.4-13.41-7.51-19.29a9.7,9.7,0,0,1-1.63-1.19.6.6,0,0,1-.24-.34l-6.85-4.44a21.45,21.45,0,0,1-7-4.37c-6.19-3.84-12.49-7.42-18.88-11,7.92,9.49,14.48,22.93,2.4,29.71-8.46,4.75-17.61,1.83-22.17-6.7-2-3.93-2.3-9.62,0-13.39a39.81,39.81,0,0,1,6-6.92,20.78,20.78,0,0,0,4.57-7.64,330,330,0,0,0-54.24-22.13c-1.31-.36-2.62-.71-4-1.16,11.21,8,20.45,19.79,15.37,32.24-4.68,11.54-20.18,12.45-29,5.76-5.5-4-7.39-10.88-7-17.13.24-3.84,2.18-7.7,3.68-11.06,2.36-5.29,1.79-8.72.25-13.59a183.54,183.54,0,0,0-37-3.15c-9.68.18-18.75,1.95-27.73,4.22,8.65,1.6,17.41,5.74,23.66,9.45,12.13,7.33,19.36,18.91,19,33.08-.29,14.57-18.54,17-28.41,10.8-7.92-5-12.24-11.8-15.58-20.48-4-10.36-3-22.53-13.3-29.06h0c-4,1.09-7.88,2.06-12,3-1,.17-1.45-1.26-.71-1.86,11.48-8.59,25.53-13,40.45-14.89,5.39-13.31-6.74-31.8,7.42-42.05,8.22-5.94,20.73-8,28.27.82s8.34,18.65,2.23,28.39c-3.73,5.93-9.93,9.59-16.81,12a210.16,210.16,0,0,1,48.36,7.68c6.09,1.63,12,3.64,17.86,5.78a1.74,1.74,0,0,1,.93-.36c7.19-1.36,10.51-12.81,15.43-18.13,4.47-4.82,10.25-9.29,16.79-10.94C188.28,230.23,197.51,242,199.39,255Z"/><path class="cls-5" d="M245.48,326.24c-18.54-11.2-37.86-21.35-56.6-32.47-19.57-11.66-39.12-21.83-60.89-28-20.68-5.88-42.29-7.76-63.57-8A99.1,99.1,0,0,0,34.54,262c-7.5,2.23-14.14,6.71-22,7.38A2.11,2.11,0,0,1,10.69,266c9.77-11.67,29.94-14.92,44.26-16.13,21.6-1.76,44.55,1.1,65.72,5.73C168.9,266,207,296.34,245.83,325.47c.55.32.07,1-.35.77Z"/><path class="cls-5" d="M66.24,285.44c-6.74-5.56-13.27-10.55-21-14.63-7.09-3.71-14.62-3.49-21.56-6.51a1.45,1.45,0,0,1-.3-2.45c14.37-7.77,34.35,13.59,43.78,22.5a.7.7,0,1,1-.87,1.09Z"/><path class="cls-5" d="M77,218.87c-.34,15.55-10.5,34.87-27.91,35.56a1.07,1.07,0,0,1-1-.81,1,1,0,0,1,.19-.61c3.09-4.51,8.31-6,12.81-8.77C69.91,238.62,74.8,229,75.76,218.7a.63.63,0,1,1,1.24.17Z"/><path class="cls-5" d="M126.62,285.37c-1.7-7-4.4-12.88-9.53-17.87-4.18-4.18-9.93-6.05-13.92-10.3a1,1,0,0,1,.49-1.8c14.58-1.63,22.53,18.24,24.1,29.85a.57.57,0,0,1-1.14.12Z"/><path class="cls-5" d="M181.42,261.27c-13.47,6.77-26.68,12.81-40.29,3-.42-.27,0-.95.31-.87,12.76,3.67,27.54,1.42,39.69-2.92a.3.3,0,0,1,.42.27c.11.28,0,.41-.13.48Z"/><path class="cls-5" d="M190.31,313.31a41.69,41.69,0,0,0-2.78-14.79c-2.06-5.1-6-8.94-8.61-13.51a.55.55,0,0,1,.12-.79.68.68,0,0,1,.5-.09c12.05,4.05,13.67,18.32,11.94,29.16-.06.67-1.14.65-1.17,0Z"/><path class="cls-5" d="M234.91,302.67c-12.2,3.08-24,1.3-34.27-6.12a.62.62,0,0,1,0-.95.63.63,0,0,1,.56-.22c10.83,2.27,22.3,7.3,33.49,6.32.54,0,.77.88.26,1Z"/><path class="cls-1" d="M116.75,401.66c-.1,0-.2.1-.3.1-12.6-2.2-24.9,4.5-34.8,11.7-8.6,6.2-15.8,14.3-26.9,15.9-7.8,1.1-18.6,1-24-5.8a24.08,24.08,0,0,1-4.7-12.1c0-.4.3-6.9,1.2-8.9a31.47,31.47,0,0,1-9.5-1.9.8.8,0,0,1-.3-1.1.84.84,0,0,1,.7-.4c3.2.2,6.3.4,9.3.4,1-11.1,2.8-21.2,11.2-29.3,6.6-6.3,16-8.8,24.8-9.1,23.4-.6,42.6,21.8,54.1,39.7A.57.57,0,0,1,116.75,401.66Z"/><path class="cls-6" d="M102.85,396.28c-15.2-4.4-32.8.7-47.9,3.8-12.7,2.6-31.2,7.7-42.8-.2a1.17,1.17,0,0,1-.4-1.7,1.14,1.14,0,0,1,1.3-.6c8.3,1,15.8,2.2,24.3,1.4s16.7-2.8,24.9-4.3c14.3-2.6,26.7-2.8,40.8.5a.56.56,0,1,1-.2,1.1Z"/><path class="cls-6" d="M64,416.44c-11.6-1.9-28.9-5.2-37.5-13.8a.67.67,0,0,1,0-1c.1-.2.4-.2.6-.2,5.6,1.3,10.7,4.9,15.9,7.3a102.46,102.46,0,0,0,21.1,7c.2,0,.3.2.3.4s-.3.4-.4.3Z"/><path class="cls-6" d="M72.19,407.15c-4.2-1.1-8.3-2-12.5-3.2-3.1-.9-6.8-1.5-9-4a.42.42,0,0,1,.3-.7c3.2.1,6.1,2,9.1,3.1,4,1.5,8.2,2.7,12.3,4,.4.1.3.9-.2.8Z"/><path class="cls-6" d="M90.91,400.1c-4.9-.4-13-1.6-16.1-5.8-.2-.2,0-.4.3-.4,2.3.3,4.4,1.5,6.6,2.4,3.1,1.2,6.2,2.3,9.4,3.2.2,0,.3.2.2.4s-.2.3-.4.2Z"/><path class="cls-6" d="M89.1,389.63a36.31,36.31,0,0,0-7.9,3.9c-1.7,1-4.1,2.3-6,1.4-.3-.1-.4-.3-.3-.5h0c1.2-1.8,4-2.4,6-3.1a38.63,38.63,0,0,1,8.1-2.1c.2,0,.3.4.1.4Z"/><path class="cls-6" d="M82.32,380a126.73,126.73,0,0,0-16.6,8,63.65,63.65,0,0,0-6.9,4.6c-3.1,2.3-4.7,5.6-8.1,7.2-.4.2-1.1-.1-.9-.7,3.7-12.2,21.8-16.2,32.4-19.4.1,0,.2,0,.2.1a.35.35,0,0,1-.1.2Z"/><path class="cls-6" d="M68.07,372.61A75.94,75.94,0,0,0,30,401.21c-.5.8-2,.7-2-.4-.1-6.7,9-11.9,13.8-15.6,7.8-5.9,16.7-10.9,26.2-13a.37.37,0,0,1,.3.1c0,.2,0,.3-.2.3Z"/><path class="cls-2" d="M44.78,106.84c3,2.92,4.18,6.49,4.93,10.54.06.31.6.46.72.06,1.87-7.56-4.39-12.67-10.49-16a58.24,58.24,0,0,1,11.15,3.2,104.45,104.45,0,0,1,10.42,5,26.67,26.67,0,0,1,3.55,6.61c.1.17.29.3.46.2a.28.28,0,0,0,.17-.32,7.73,7.73,0,0,0-1.42-4.82c2.44,1.51,4.88,3,7.19,4.71a.45.45,0,1,0,.5-.74c-1-.81-2.17-1.65-3.24-2.55a10.21,10.21,0,0,0,5-1.73c.35-.2.06-.72-.25-.66-1.16.18-2.4.64-3.55.82a9.72,9.72,0,0,1-3.23,0,88.19,88.19,0,0,0-12.38-7.89,31.94,31.94,0,0,0,15.46-2.86.41.41,0,0,0,.16-.54.53.53,0,0,0-.37-.25,87.05,87.05,0,0,0-8.93,1.63,44.76,44.76,0,0,1-9.8.28c-7.25-3.18-14.84-4.7-22.31-2.5-.49.16-.59,1,0,1.12q4.32.36,8.37.85A48.13,48.13,0,0,1,44.78,106.84Z"/><path class="cls-2" d="M69.84,103.13a5.39,5.39,0,1,1,5.88-4.86,5.35,5.35,0,0,1-5.88,4.86Z"/><path class="cls-2" d="M76.48,114.09a5.4,5.4,0,1,1,5.89-4.86h0A5.44,5.44,0,0,1,76.48,114.09Z"/><path class="cls-2" d="M74.42,124.61a5.39,5.39,0,1,1,5.89-4.86h0A5.33,5.33,0,0,1,74.42,124.61Z"/><path class="cls-2" d="M62.72,123.32a5.4,5.4,0,1,1,5.89-4.87,5.37,5.37,0,0,1-5.89,4.87Z"/><path class="cls-2" d="M48.29,121.83A5.4,5.4,0,1,1,54.17,117h0A5.36,5.36,0,0,1,48.29,121.83Z"/><path class="cls-3" d="M67.14,95.61a3.18,3.18,0,0,1,2.64-1,8.85,8.85,0,0,1,1.32.31c.36,0,.64.33,1.08.31a.78.78,0,0,0,.78-.66.36.36,0,0,0,0-.23c-.28-1.33-1.94-1.44-3-1.3a6.52,6.52,0,0,0-3.27,2.15c-.3.29.17.71.47.43Z"/><path class="cls-3" d="M72.72,96.05c.47.43.54,1,1.17,1.07a.31.31,0,0,0,.35-.19,1.66,1.66,0,0,0-.79-1.63c-.41-.34-1.1.27-.73.75Z"/><path class="cls-3" d="M73.9,106.28a4.67,4.67,0,0,1,3.28-.68c1.13.18,1.75,1.09,2.62,1.63a.7.7,0,0,0,1.07-.13c.22-.23.16-.54.1-.86a3.68,3.68,0,0,0-3.4-2c-1.4-.25-2.88.79-4,1.56-.09,0-.08.27,0,.36s.18.13.41.12Z"/><path class="cls-3" d="M80.41,107.74c.11.4-.15.77.18,1.16,0,.09.28.08.36,0l.09-.05c.34-.42,0-.94-.19-1.38a.22.22,0,0,0-.27-.08c-.09,0-.13.19-.17.32Z"/><path class="cls-3" d="M77.77,117.93a4.94,4.94,0,0,1-.26,2.43c-.16.54-.57,1.23,0,1.47.18.13.36,0,.62-.11,1.21-1.13.64-2.76,0-4,0-.08-.18-.12-.36,0a.23.23,0,0,0-.07.28Z"/><path class="cls-3" d="M77.25,121.75h0c.14,0,.09,0,0,0Z"/><path class="cls-3" d="M76.39,121.92a10.5,10.5,0,0,1-1.52,1,.3.3,0,0,0,.19.35,6,6,0,0,0,1.81-.66c.39-.33-.18-.93-.48-.65Z"/><path class="cls-3" d="M66.66,120.93a4.68,4.68,0,0,1-2.72.25c-.86-.1-1.6-.6-2.48-.34-.49.15-.59.79-.44,1.27.41,1.15,2,1.08,2.95.77a9.16,9.16,0,0,0,2.88-1.6c.27-.14,0-.58-.19-.35Z"/><path class="cls-3" d="M60.05,119.42c0-.14-.06-.31-.07-.53s-.33-.39-.55-.38a.41.41,0,0,0-.38.55.75.75,0,0,0,0,.45.48.48,0,0,0,.55.38c.22,0,.35-.2.43-.47Z"/><path class="cls-3" d="M52.14,117.25a2.45,2.45,0,0,1-1.83,1.25,7.64,7.64,0,0,0-2.48.68.78.78,0,0,0-.09,1.08c0,.09,0,.09.19.13.88.77,2.43.25,3.35-.14A3.51,3.51,0,0,0,53,117.44.48.48,0,0,0,52.14,117.25Z"/><path class="cls-3" d="M45.66,118.93a1.7,1.7,0,0,0-.75-.73.18.18,0,0,0-.26.14l0,.14c.09.17.15.49.3.75.15.48,1,.13.75-.3Z"/><path class="cls-2" d="M85.18,363.23c-10.1-23.2-21-45.7-37.7-65a141.77,141.77,0,0,0-22.9-20.9c-7.6-5.6-15.9-8.6-24.3-12.5-.5-.2-.3-1,.3-1,17.7.6,34.7,18.1,46.2,30.1,18.3,19,29.2,44.9,38.9,69,.2.4-.4.7-.5.3Z"/><path class="cls-2" d="M.8,264.24c8.7,3,16.2,4.9,23.7,10.4A97.16,97.16,0,0,1,42.9,293c11.7,15.1,17.6,30.9,21.9,49.2.1.3-.3.4-.4.1-3-8-5-16.2-8.5-24-3.3-7.4-8.1-14.5-12.7-21.1a105.64,105.64,0,0,0-17.5-19.1c-7.5-6.6-16.1-9.2-25.1-13.1-.5-.2-.3-1,.2-.8Z"/><path class="cls-2" d="M28.12,276.79c15.8,10.3,30.6,24,43.4,37.7,13.3,14.4,22.5,30.6,27.1,49.8a.48.48,0,0,1-.9.3c-3.4-7.6-5.7-15.7-9.2-23.3-4.4-9.6-11.4-17.6-18.5-25.3a252.7,252.7,0,0,0-20.6-19.5c-7.3-6.2-14-13.4-21.8-18.9-.5-.4,0-1.2.5-.8Z"/><path class="cls-2" d="M65.36,320.39c10.4,9,19.5,23.8,23.4,36.9,0,.2-.1.3-.3.4s-.3,0-.3-.2c-6.5-12.3-13.7-26.3-23.5-36.4-.5-.4.2-1.1.7-.7Z"/><path class="cls-2" d="M57.17,300.54c18.3,8,30.9,20.7,43,36.2a.43.43,0,0,1-.6.6c-6-5.9-11.4-12.4-17.4-18.3-7.3-7-16.7-12.7-25.5-17.6-.7-.4-.1-1.2.5-.9Z"/><path class="cls-2" d="M38.33,289.48c6.8,10.7,10.3,23.7,14.7,35.5.2.5-.6.7-.9.3-7.2-10.4-9.1-24-14.5-35.4a.48.48,0,0,1,.2-.6c.2,0,.4,0,.5.2Z"/><path class="cls-2" d="M101.88,362.93a3.83,3.83,0,1,0-1.5,5.2,3.79,3.79,0,0,0,1.5-5.2Z"/><path class="cls-2" d="M102.68,334.33a3.87,3.87,0,0,0-5.2-1.5,3.7,3.7,0,0,0-1.5,5.1,3.87,3.87,0,0,0,5.2,1.5A3.78,3.78,0,0,0,102.68,334.33Z"/><path class="cls-2" d="M92.88,354.33a3.87,3.87,0,0,0-5.2-1.5,3.79,3.79,0,0,0-1.5,5.2,3.83,3.83,0,0,0,6.7-3.7Z"/><path class="cls-2" d="M89.48,362.53a3.83,3.83,0,1,0-1.5,5.2A3.93,3.93,0,0,0,89.48,362.53Z"/><path class="cls-2" d="M68.38,339.13a3.83,3.83,0,1,0-1.5,5.2,3.93,3.93,0,0,0,1.5-5.2Z"/><path class="cls-2" d="M55.58,322.83a3.83,3.83,0,1,0-1.5,5.2,3.93,3.93,0,0,0,1.5-5.2Z"/><path class="cls-4" d="M164.38,4.87a.6.6,0,0,0-.4.1c-14.5,8.8-32.9,6.5-48.5,2.5C102,4,89.18-2.43,74.78,1c-10.1,2.3-23.4,7.7-26.7,18.8-1.7,5.8-1.3,11.3.1,17.1.1.5,3.7,8.4,5.8,10.3a42.24,42.24,0,0,0-10.8,6.9c-.8.7.2,2.2,1.2,1.7,3.8-1.9,7.5-3.5,11.2-5,6.7,13.3,13.8,24.8,28.1,30.6,11.1,4.5,23.9,3.1,34.9-.9,29.1-10.6,41.8-47.4,47.2-75a.78.78,0,0,0-.6-.9A.83.83,0,0,0,164.38,4.87Z"/><path class="cls-5" d="M150,18.23c-16.6,12.9-40.8,15.1-60.8,18.6-16.8,3-42.1,5.7-52.5,21a1.69,1.69,0,0,0,2.2,2.5c9.8-5.3,18.4-10.4,29.2-13.5s21.8-4.7,32.7-6.9c18.9-3.7,34.2-9.5,50-20.4.9-.6,0-2-.8-1.3Z"/><path class="cls-5" d="M92.31,12.35c-13.2,8-33,20.5-39.3,35.2a.88.88,0,0,0,.5,1.2.75.75,0,0,0,.8-.1c6.2-4.4,10.8-11.2,16.1-16.7a135.81,135.81,0,0,1,22.5-18.9c.4-.3-.1-1-.6-.7Z"/><path class="cls-5" d="M106.91,19.84c-4.6,3.4-9.3,6.5-13.8,10-3.4,2.6-7.6,5.1-9.1,9.2-.2.4.2,1,.7.8,3.9-1.7,6.5-5.4,9.7-8.2,4.3-3.8,8.7-7.3,13.1-10.9a.54.54,0,1,0-.6-.9Z"/><path class="cls-5" d="M133.34,19.36c-5.7,2.9-15.1,8.3-17,14.9-.1.3.3.5.6.4,2.8-1.5,4.7-3.9,7-6.1,3.2-3,6.5-5.9,9.9-8.5.2-.1.2-.4.1-.6a.47.47,0,0,0-.6-.1Z"/><path class="cls-5" d="M136.16,33.1c-4,.4-7.7-.4-11.7-.9-2.5-.4-6-.9-8,1.1a.62.62,0,0,0,.1.8h0c2.3,1.7,6.1,1,8.8.9a58,58,0,0,0,11-1.3c.3-.1.2-.7-.2-.6Z"/><path class="cls-5" d="M132.58,48.21a177.85,177.85,0,0,1-24.2-1.7,79.81,79.81,0,0,1-10.8-2.3c-4.9-1.4-8.4-4.7-13.5-5-.6,0-1.3.6-.8,1.2,10.6,13.3,34.7,9.4,49.4,8.2a.22.22,0,0,0,.2-.2c-.1-.1-.2-.2-.3-.2Z"/><path class="cls-5" d="M118.7,64.21c-21.4,1-43-4.4-60.8-16.6a1.39,1.39,0,0,0-2.2,1.5c3.1,8.3,16.8,10.3,24.6,12.5,12.4,3.5,25.8,5.2,38.5,3.2a.32.32,0,0,0,.3-.3c-.1-.2-.2-.3-.4-.3Z"/></g></g></g></svg>